<svg width="16" height="17" viewBox="0 0 16 17" fill="none" xmlns="http://www.w3.org/2000/svg">
<path fill-rule="evenodd" clip-rule="evenodd" d="M3.30217 2C3.31258 2 3.32302 2 3.3335 2L12.6982 2C13.1428 1.99998 13.5229 1.99996 13.8267 2.03828C14.1489 2.07892 14.4603 2.1702 14.716 2.41016C14.9763 2.65436 15.0797 2.95904 15.1252 3.27603C15.1669 3.56723 15.1669 3.92931 15.1668 4.34239L15.1668 4.86008C15.1668 5.18575 15.1669 5.4673 15.1425 5.70207C15.1164 5.95471 15.0592 6.19173 14.9219 6.41929C14.7856 6.64513 14.602 6.80907 14.3904 6.95602C14.1911 7.09446 13.9365 7.2378 13.637 7.40637L11.6754 8.51063C11.2289 8.76199 11.0734 8.8525 10.9696 8.94262C10.7312 9.14958 10.5947 9.37921 10.5306 9.66692C10.5031 9.78991 10.5002 9.94481 10.5002 10.4153L10.5002 12.2367C10.5002 12.8375 10.5002 13.3476 10.4384 13.7397C10.3727 14.1567 10.22 14.5566 9.82001 14.8068C9.42911 15.0513 8.9985 15.0289 8.58003 14.9295C8.177 14.8338 7.68034 14.6396 7.0844 14.4066L7.02648 14.384C6.74733 14.2749 6.5029 14.1793 6.30939 14.0794C6.10143 13.972 5.90829 13.8384 5.76053 13.6305C5.6111 13.4202 5.5512 13.1947 5.52448 12.9642C5.50012 12.754 5.50014 12.5018 5.50016 12.2204L5.50017 10.4153C5.50017 9.94481 5.4972 9.78991 5.46978 9.66692C5.40563 9.37921 5.26911 9.14958 5.03072 8.94262C4.92692 8.8525 4.77144 8.76199 4.32492 8.51063L2.3633 7.40637C2.06382 7.2378 1.80918 7.09446 1.60989 6.95602C1.39832 6.80907 1.21477 6.64513 1.07848 6.41929C0.941152 6.19173 0.883967 5.95471 0.857795 5.70207C0.833472 5.4673 0.833485 5.18575 0.833499 4.86008L0.833499 4.37644C0.833499 4.36505 0.833499 4.35369 0.833498 4.34238C0.833467 3.92931 0.833439 3.56723 0.875167 3.27603C0.920592 2.95904 1.024 2.65436 1.28428 2.41016C1.54005 2.1702 1.85146 2.07892 2.17365 2.03828C2.47745 1.99996 2.85754 1.99998 3.30217 2ZM2.2988 3.03042C2.07636 3.05848 2.00563 3.10461 1.9685 3.13944C1.93589 3.17004 1.89285 3.2239 1.86506 3.41789C1.8347 3.6297 1.8335 3.91912 1.8335 4.37644V4.83632C1.8335 5.19246 1.83412 5.42185 1.85247 5.59903C1.86957 5.76404 1.89891 5.84338 1.93466 5.90261C1.97143 5.96355 2.0325 6.032 2.18039 6.13473C2.3362 6.24296 2.54907 6.36339 2.87345 6.54599L4.81547 7.63922C4.83365 7.64945 4.85156 7.65953 4.86921 7.66946C5.24168 7.879 5.49535 8.02172 5.68629 8.18749C6.08054 8.52975 6.33348 8.94548 6.44581 9.4493C6.50041 9.69417 6.50031 9.96874 6.50018 10.3563C6.50017 10.3757 6.50017 10.3953 6.50017 10.4153V12.1949C6.50017 12.5097 6.50094 12.7033 6.51784 12.8491C6.53311 12.9809 6.55718 13.0252 6.5757 13.0512C6.59589 13.0797 6.63587 13.1225 6.76818 13.1909C6.90979 13.264 7.10489 13.3409 7.41298 13.4614C8.05365 13.7118 8.48459 13.879 8.81111 13.9566C9.13018 14.0323 9.23532 13.993 9.28972 13.959C9.335 13.9307 9.40502 13.8731 9.4506 13.584C9.49868 13.2791 9.50017 12.849 9.50017 12.1949V10.4153C9.50017 10.3953 9.50016 10.3757 9.50015 10.3563C9.50002 9.96875 9.49993 9.69417 9.55452 9.4493C9.66686 8.94547 9.9198 8.52975 10.314 8.18749C10.505 8.02172 10.7586 7.87901 11.1311 7.66947C11.1488 7.65954 11.1667 7.64946 11.1849 7.63921L13.1269 6.54599C13.4513 6.36339 13.6641 6.24296 13.8199 6.13473C13.9678 6.032 14.0289 5.96355 14.0657 5.90261C14.1014 5.84338 14.1308 5.76404 14.1479 5.59903C14.1662 5.42185 14.1668 5.19246 14.1668 4.83632V4.37644C14.1668 3.91912 14.1656 3.6297 14.1353 3.41789C14.1075 3.2239 14.0644 3.17004 14.0318 3.13944C13.9947 3.10461 13.924 3.05848 13.7015 3.03042C13.4678 3.00094 13.1515 3 12.6668 3H3.3335C2.84881 3 2.53253 3.00094 2.2988 3.03042Z" fill="#838E9E"/>
</svg>
