<svg width="16" height="17" viewBox="0 0 16 17" fill="none" xmlns="http://www.w3.org/2000/svg">
<path d="M11.3055 6.99998C11.0294 6.99998 10.8055 6.77612 10.8055 6.49998L10.8055 1.83331C10.8055 1.55717 11.0294 1.33331 11.3055 1.33331C11.5817 1.33331 11.8055 1.55717 11.8055 1.83331L11.8055 6.49998C11.8055 6.77612 11.5817 6.99998 11.3055 6.99998Z" fill="#838E9E"/>
<path fill-rule="evenodd" clip-rule="evenodd" d="M4.6665 4.33331C6.04722 4.33331 7.1665 5.4526 7.1665 6.83331C7.1665 8.21403 6.04722 9.33331 4.6665 9.33331C3.28579 9.33331 2.1665 8.21403 2.1665 6.83331C2.1665 5.4526 3.28579 4.33331 4.6665 4.33331ZM6.1665 6.83331C6.1665 6.00489 5.49493 5.33331 4.6665 5.33331C3.83808 5.33331 3.1665 6.00489 3.1665 6.83331C3.1665 7.66174 3.83808 8.33331 4.6665 8.33331C5.49493 8.33331 6.1665 7.66174 6.1665 6.83331Z" fill="#838E9E"/>
<path fill-rule="evenodd" clip-rule="evenodd" d="M11.3332 12.6666C12.7139 12.6666 13.8332 11.5474 13.8332 10.1666C13.8332 8.78593 12.7139 7.66665 11.3332 7.66665C9.95246 7.66665 8.83317 8.78593 8.83317 10.1666C8.83317 11.5474 9.95246 12.6666 11.3332 12.6666ZM12.8332 10.1666C12.8332 10.9951 12.1616 11.6666 11.3332 11.6666C10.5047 11.6666 9.83317 10.9951 9.83317 10.1666C9.83317 9.33822 10.5047 8.66665 11.3332 8.66665C12.1616 8.66665 12.8332 9.33822 12.8332 10.1666Z" fill="#838E9E"/>
<path d="M4.13885 10.5C4.13885 10.2238 4.36271 9.99998 4.63885 9.99998C4.91499 9.99998 5.13885 10.2238 5.13885 10.5V15.1666C5.13885 15.4428 4.91499 15.6666 4.63885 15.6666C4.36271 15.6666 4.13885 15.4428 4.13885 15.1666V10.5Z" fill="#838E9E"/>
<path d="M11.3055 15.6666C11.0294 15.6666 10.8055 15.4428 10.8055 15.1666V13.8333C10.8055 13.5572 11.0294 13.3333 11.3055 13.3333C11.5817 13.3333 11.8055 13.5572 11.8055 13.8333V15.1666C11.8055 15.4428 11.5817 15.6666 11.3055 15.6666Z" fill="#838E9E"/>
<path d="M4.13885 1.83331C4.13885 1.55717 4.36271 1.33331 4.63885 1.33331C4.91499 1.33331 5.13885 1.55717 5.13885 1.83331V3.16665C5.13885 3.44279 4.91499 3.66665 4.63885 3.66665C4.36271 3.66665 4.13885 3.44279 4.13885 3.16665V1.83331Z" fill="#838E9E"/>
</svg>
