<svg width="12" height="13" viewBox="0 0 12 13" fill="none" xmlns="http://www.w3.org/2000/svg">
<path d="M6.2295 1.33025C6.16296 1.27837 6.081 1.2502 5.99662 1.2502C5.91225 1.2502 5.83029 1.27837 5.76375 1.33025L0.375 5.53212L0.841125 6.12162L1.5 5.60787V10.25C1.5004 10.4488 1.57954 10.6393 1.72011 10.7799C1.86067 10.9205 2.05121 10.9996 2.25 11H9.75C9.94879 10.9996 10.1393 10.9205 10.2799 10.7799C10.4205 10.6393 10.4996 10.4488 10.5 10.25V5.61125L11.1589 6.125L11.625 5.5355L6.2295 1.33025ZM6.75 10.25H5.25V7.25H6.75V10.25ZM7.5 10.25V7.25C7.5 7.05109 7.42098 6.86032 7.28033 6.71967C7.13968 6.57902 6.94891 6.5 6.75 6.5H5.25C5.05109 6.5 4.86032 6.57902 4.71967 6.71967C4.57902 6.86032 4.5 7.05109 4.5 7.25V10.25H2.25V5.02325L6 2.102L9.75 5.027V10.25H7.5Z" fill="white" fill-opacity="0.5"/>
</svg>
