<svg width="115" height="110" viewBox="0 0 115 110" fill="none" xmlns="http://www.w3.org/2000/svg">
<g clip-path="url(#clip0_248_830)">
<rect width="115" height="110" rx="10" fill="#F0F2F2"/>
<path d="M48.9653 89.7029L99.9129 59.663L65.9475 39.6371L15 69.6769L48.9653 89.7029Z" fill="#E0E0E0"/>
<path d="M48.9652 83.1819L46.3955 84.6972L48.9652 86.2116L51.535 84.6972L48.9652 83.1819Z" fill="#6C6C6C"/>
<path d="M51.5346 88.4847V84.6973L48.9648 86.2117V90L51.5346 88.4847Z" fill="#484F54"/>
<path d="M46.3955 84.6973V88.4847L48.9652 90V86.2117L46.3955 84.6973Z" fill="#1E2229"/>
<path d="M17.5697 64.6694L15 66.1848L17.5697 67.6992L20.1395 66.1848L17.5697 64.6694Z" fill="#6C6C6C"/>
<path d="M20.14 69.9732V66.1848L17.5703 67.6992V71.4885L20.14 69.9732Z" fill="#484F54"/>
<path d="M15 66.1847V69.973L17.5697 71.4884V67.6991L15 66.1847Z" fill="#1E2229"/>
<path d="M97.3432 54.6565L94.7734 56.1718L97.3432 57.6863L99.9129 56.1718L97.3432 54.6565Z" fill="#6C6C6C"/>
<path d="M99.9125 59.9602V56.1719L97.3428 57.6863V61.4756L99.9125 59.9602Z" fill="#484F54"/>
<path d="M94.7734 56.1719V59.9602L97.3432 61.4756V57.6863L94.7734 56.1719Z" fill="#1E2229"/>
<path d="M48.9648 86.2116L99.9124 56.1718V51.1653L48.9648 81.2051V86.2116Z" fill="#313A42"/>
<path d="M48.9653 81.2052L99.9129 51.1653L65.9475 31.1394L15 61.1783L48.9653 81.2052Z" fill="#41484E"/>
<path d="M66.0065 20.6833L64.4473 21.6034L98.3533 41.5945L99.9126 40.6754L66.0065 20.6833Z" fill="#6C6C6C"/>
<path d="M99.9128 51.1654V40.6754L98.3535 41.5945V52.0854L99.9128 51.1654Z" fill="#484F54"/>
<path d="M64.4473 21.6034V32.0924L98.3533 52.0854V41.5945L64.4473 21.6034Z" fill="#1E2229"/>
<path d="M65.9277 20L64.3604 20.9237L98.4326 41.0139L99.9999 40.0902L65.9277 20Z" fill="#76797D"/>
<path d="M100 41.3541V40.0901L98.4326 41.0138V42.2778L100 41.3541Z" fill="#64686C"/>
<path d="M64.3604 20.9237V22.1877L98.4326 42.2779V41.0139L64.3604 20.9237Z" fill="#282D36"/>
<path d="M97.3763 47.8851V51.1148H97.3682C97.3853 51.6587 97.1401 52.2027 96.6155 52.5136L87.1961 58.0659L50.9728 79.4292C49.7296 80.1548 48.1991 80.1548 46.965 79.4292L18.3008 62.522C17.7933 62.2285 17.54 61.702 17.54 61.1745V57.91L19.9921 58.8337L54.2287 38.6444L65.9484 31.7365L95.3401 49.0583C95.6599 48.4033 96.2599 47.8245 97.3763 47.8851Z" fill="#C9C9C9"/>
<path d="M47.6807 79.7485C48.6723 80.0925 49.7609 80.0274 50.7148 79.5531V72.0691H47.6807V79.7485Z" fill="#BDBDBD"/>
<path d="M18.3724 58.2255L17.5371 57.9109V61.1782C17.5371 61.702 17.7913 62.2257 18.2979 62.5248L18.3724 62.5688V58.2255Z" fill="#A9A9A9"/>
<path d="M18.373 58.2255V62.5688L46.9636 79.4265C47.1935 79.5622 47.4351 79.664 47.6812 79.7494V54.7454H26.9266L19.9907 58.8346L18.373 58.2255Z" fill="#B6B6B6"/>
<path d="M97.3762 47.8851V47.9282C97.3762 48.4465 97.1229 48.973 96.6154 49.2757L84.4476 56.4515L50.9718 76.1913C49.7287 76.9168 48.1981 76.9168 46.964 76.1913L18.2998 59.2841C17.7924 58.9905 17.5391 58.464 17.5391 57.9366V57.9109C17.5471 57.4018 17.8013 56.8918 18.2998 56.5983L51.4882 37.031L63.9435 29.6827C65.1866 28.9489 66.7082 28.9489 67.9513 29.6827L96.6154 46.5816C97.1059 46.8752 97.3592 47.376 97.3762 47.8851Z" fill="#E4E4E4"/>
<path d="M73.9111 44.6122C73.9111 44.6122 76.7081 39.5076 83.653 38.8829C83.653 38.8829 90.4685 41.6806 94.7745 45.4359C94.7745 45.4359 91.4341 49.4747 85.0326 51.1652C85.0326 51.1652 77.4824 48.3584 73.9111 44.6122Z" fill="#C7C7C7"/>
<path d="M15 61.1783V66.1848L48.9653 86.2117V81.2052L15 61.1783Z" fill="#171E1F"/>
<path d="M73.9102 43.2392C73.9102 43.2392 76.7071 38.1346 83.652 37.5099C83.652 37.5099 90.4675 40.3076 94.7735 44.0629C94.7735 44.0629 91.4331 48.1017 85.0316 49.7922C85.0316 49.7922 77.4814 46.9853 73.9102 43.2392Z" fill="#DFA357"/>
<path d="M84.7617 49.6188C84.7985 49.6573 84.8425 49.6949 84.8803 49.7334C84.9692 49.7674 85.0321 49.7912 85.0321 49.7912C91.4335 48.0998 94.7739 44.0619 94.7739 44.0619C94.7272 44.0216 94.676 43.9821 94.6293 43.9418C94.5548 43.9106 94.5036 43.8885 94.5036 43.8885C87.5578 44.5141 84.7617 49.6188 84.7617 49.6188Z" fill="#F9C687"/>
<path d="M58.9375 35.7258C58.9375 35.7258 61.7345 30.6211 68.6794 29.9965C68.6794 29.9965 75.4949 32.7941 79.8008 36.5495C79.8008 36.5495 76.4604 40.5882 70.059 42.2788C70.059 42.2788 62.5096 39.4719 58.9375 35.7258Z" fill="#C7C7C7"/>
<path d="M58.9375 34.3526C58.9375 34.3526 61.7345 29.248 68.6794 28.6233C68.6794 28.6233 75.4949 31.421 79.8008 35.1763C79.8008 35.1763 76.4604 39.2151 70.059 40.9056C70.059 40.9056 62.5096 38.0987 58.9375 34.3526Z" fill="#DFA357"/>
<path d="M69.7881 40.7322C69.8249 40.7708 69.8689 40.8084 69.9067 40.8469C69.9956 40.8808 70.0585 40.9047 70.0585 40.9047C76.4599 39.2132 79.8003 35.1754 79.8003 35.1754C79.7536 35.135 79.7024 35.0956 79.6557 35.0552C79.5812 35.024 79.5299 35.0029 79.5299 35.0029C72.5851 35.6276 69.7881 40.7322 69.7881 40.7322Z" fill="#F9C687"/>
<path d="M84.4465 56.4517L84.345 59.7502L80.8105 61.8306L80.921 58.532L84.4465 56.4517Z" fill="#272F7D"/>
<path d="M80.9213 58.5319L80.8117 61.8305L50.9718 79.4293C49.7287 80.1549 48.1981 80.1549 46.964 79.4293L45.8736 78.79L18.2998 62.5212C17.7924 62.2276 17.5391 61.7011 17.5391 61.1737V57.9091C17.5471 57.4083 17.7924 56.9074 18.2747 56.6139L47.9619 39.1105L50.7014 40.7249L80.9213 58.5319Z" fill="#555B9B"/>
<path d="M84.4466 56.4515L80.9212 58.5319L50.7005 40.7267L47.9609 39.1114L51.4873 37.031L54.2268 38.6454L84.4466 56.4515Z" fill="#4850A1"/>
<path d="M80.9248 58.5365L50.97 76.1941C49.7305 76.9187 48.1945 76.9187 46.964 76.1941L18.3025 59.2795C17.7906 58.986 17.5391 58.4631 17.5391 57.9403V57.9128C17.548 57.6284 17.6199 57.3532 17.7726 57.1147C17.8894 56.9221 18.06 56.7478 18.2756 56.6194L21.3295 54.8124L27.5809 51.1341L31.4791 48.8318L37.5509 45.2452L41.5569 42.8878L47.961 39.1086L50.7005 40.723L80.9248 58.5365Z" fill="#747AB8"/>
<path d="M49.9848 43.0694C49.9848 44.027 48.7533 44.804 47.2336 44.804C45.7138 44.804 44.4824 44.027 44.4824 43.0694C44.4824 42.1118 45.7138 41.3348 47.2336 41.3348C48.7533 41.3348 49.9848 42.1118 49.9848 43.0694Z" fill="#898EC5"/>
<path d="M56.7211 47.0394C56.7211 47.997 55.4897 48.7739 53.9699 48.7739C52.4502 48.7739 51.2188 47.9979 51.2188 47.0394C51.2188 46.0817 52.4502 45.3048 53.9699 45.3048C55.4897 45.3048 56.7211 46.0817 56.7211 47.0394Z" fill="#898EC5"/>
<path d="M60.7062 52.7448C62.2257 52.7448 63.4574 51.9682 63.4574 51.0102C63.4574 50.0522 62.2257 49.2756 60.7062 49.2756C59.1868 49.2756 57.9551 50.0522 57.9551 51.0102C57.9551 51.9682 59.1868 52.7448 60.7062 52.7448Z" fill="#898EC5"/>
<path d="M67.4426 56.7147C68.962 56.7147 70.1938 55.9381 70.1938 54.9802C70.1938 54.0222 68.962 53.2456 67.4426 53.2456C65.9231 53.2456 64.6914 54.0222 64.6914 54.9802C64.6914 55.9381 65.9231 56.7147 67.4426 56.7147Z" fill="#898EC5"/>
<path d="M74.1789 60.6848C75.6983 60.6848 76.9301 59.9082 76.9301 58.9503C76.9301 57.9923 75.6983 57.2157 74.1789 57.2157C72.6595 57.2157 71.4277 57.9923 71.4277 58.9503C71.4277 59.9082 72.6595 60.6848 74.1789 60.6848Z" fill="#898EC5"/>
<path d="M42.428 44.1446C42.428 45.0986 41.1885 45.8783 39.6705 45.8783C38.8173 45.8783 38.0538 45.6306 37.5508 45.2453L41.5568 42.8879C42.0957 43.1998 42.428 43.6493 42.428 44.1446Z" fill="#898EC5"/>
<path d="M49.1596 48.1146C49.1596 49.0722 47.9281 49.8491 46.4084 49.8491C44.8886 49.8491 43.6572 49.0722 43.6572 48.1146C43.6572 47.1569 44.8886 46.38 46.4084 46.38C47.9281 46.38 49.1596 47.1569 49.1596 48.1146Z" fill="#898EC5"/>
<path d="M55.8959 52.0854C55.8959 53.043 54.6645 53.82 53.1447 53.82C51.625 53.82 50.3936 53.043 50.3936 52.0854C50.3936 51.1278 51.625 50.3508 53.1447 50.3508C54.6645 50.3508 55.8959 51.1268 55.8959 52.0854Z" fill="#898EC5"/>
<path d="M62.6332 56.0554C62.6332 57.013 61.4018 57.7899 59.882 57.7899C58.3623 57.7899 57.1309 57.0139 57.1309 56.0554C57.1309 55.0977 58.3623 54.3208 59.882 54.3208C61.4018 54.3208 62.6332 55.0977 62.6332 56.0554Z" fill="#898EC5"/>
<path d="M69.3696 60.0263C69.3696 60.9839 68.1381 61.7609 66.6184 61.7609C65.0986 61.7609 63.8672 60.9849 63.8672 60.0263C63.8672 59.0687 65.0986 58.2917 66.6184 58.2917C68.1381 58.2917 69.3696 59.0678 69.3696 60.0263Z" fill="#898EC5"/>
<path d="M40.2914 49.2078C40.2914 50.1655 39.06 50.9424 37.5403 50.9424C36.0205 50.9424 34.7891 50.1664 34.7891 49.2078C34.7891 48.2493 36.0205 47.4733 37.5403 47.4733C39.06 47.4733 40.2914 48.2502 40.2914 49.2078Z" fill="#898EC5"/>
<path d="M47.0278 53.1787C47.0278 54.1363 45.7963 54.9132 44.2766 54.9132C42.7568 54.9132 41.5254 54.1372 41.5254 53.1787C41.5254 52.2201 42.7568 51.4441 44.2766 51.4441C45.7963 51.4441 47.0278 52.2201 47.0278 53.1787Z" fill="#898EC5"/>
<path d="M53.7641 57.1486C53.7641 58.1063 52.5327 58.8832 51.0129 58.8832C49.4932 58.8832 48.2617 58.1072 48.2617 57.1486C48.2617 56.191 49.4932 55.4141 51.0129 55.4141C52.5327 55.4141 53.7641 56.191 53.7641 57.1486Z" fill="#898EC5"/>
<path d="M60.5004 61.1186C60.5004 62.0762 59.269 62.8532 57.7492 62.8532C56.2295 62.8532 54.998 62.0772 54.998 61.1186C54.998 60.161 56.2295 59.384 57.7492 59.384C59.269 59.384 60.5004 60.161 60.5004 61.1186Z" fill="#898EC5"/>
<path d="M67.2377 65.0895C67.2377 66.0472 66.0063 66.8241 64.4865 66.8241C62.9668 66.8241 61.7354 66.0481 61.7354 65.0895C61.7354 64.1319 62.9668 63.355 64.4865 63.355C66.0063 63.355 67.2377 64.1319 67.2377 65.0895Z" fill="#898EC5"/>
<path d="M32.7267 50.2811C32.7267 51.2442 31.4962 52.0147 29.9782 52.0147C28.9453 52.0147 28.0471 51.657 27.5801 51.1341L31.4783 48.8318C32.2327 49.1437 32.7267 49.6757 32.7267 50.2811Z" fill="#898EC5"/>
<path d="M39.4672 54.2529C39.4672 55.2105 38.2358 55.9874 36.716 55.9874C35.1963 55.9874 33.9648 55.2105 33.9648 54.2529C33.9648 53.2952 35.1963 52.5183 36.716 52.5183C38.2358 52.5192 39.4672 53.2952 39.4672 54.2529Z" fill="#898EC5"/>
<path d="M46.2035 58.2238C46.2035 59.1815 44.9721 59.9584 43.4524 59.9584C41.9326 59.9584 40.7012 59.1824 40.7012 58.2238C40.7012 57.2662 41.9326 56.4893 43.4524 56.4893C44.9721 56.4893 46.2035 57.2662 46.2035 58.2238Z" fill="#898EC5"/>
<path d="M50.1887 63.9284C51.7081 63.9284 52.9399 63.1518 52.9399 62.1938C52.9399 61.2358 51.7081 60.4592 50.1887 60.4592C48.6693 60.4592 47.4375 61.2358 47.4375 62.1938C47.4375 63.1518 48.6693 63.9284 50.1887 63.9284Z" fill="#898EC5"/>
<path d="M56.925 67.8992C58.4445 67.8992 59.6762 67.1226 59.6762 66.1646C59.6762 65.2066 58.4445 64.4301 56.925 64.4301C55.4056 64.4301 54.1738 65.2066 54.1738 66.1646C54.1738 67.1226 55.4056 67.8992 56.925 67.8992Z" fill="#898EC5"/>
<path d="M27.8478 57.0817C29.3673 57.0817 30.599 56.3051 30.599 55.3471C30.599 54.3891 29.3673 53.6125 27.8478 53.6125C26.3284 53.6125 25.0967 54.3891 25.0967 55.3471C25.0967 56.3051 26.3284 57.0817 27.8478 57.0817Z" fill="#898EC5"/>
<path d="M37.3363 59.3171C37.3363 60.2747 36.1049 61.0517 34.5852 61.0517C33.0654 61.0517 31.834 60.2756 31.834 59.3171C31.834 58.3595 33.0654 57.5825 34.5852 57.5825C36.1049 57.5825 37.3363 58.3595 37.3363 59.3171Z" fill="#898EC5"/>
<path d="M41.3215 65.0216C42.8409 65.0216 44.0727 64.245 44.0727 63.2871C44.0727 62.3291 42.8409 61.5525 41.3215 61.5525C39.802 61.5525 38.5703 62.3291 38.5703 63.2871C38.5703 64.245 39.802 65.0216 41.3215 65.0216Z" fill="#898EC5"/>
<path d="M48.0578 68.9924C49.5772 68.9924 50.809 68.2159 50.809 67.2579C50.809 66.2999 49.5772 65.5233 48.0578 65.5233C46.5384 65.5233 45.3066 66.2999 45.3066 67.2579C45.3066 68.2159 46.5384 68.9924 48.0578 68.9924Z" fill="#898EC5"/>
<path d="M54.7941 72.9624C56.3136 72.9624 57.5453 72.1858 57.5453 71.2279C57.5453 70.2699 56.3136 69.4933 54.7941 69.4933C53.2747 69.4933 52.043 70.2699 52.043 71.2279C52.043 72.1858 53.2747 72.9624 54.7941 72.9624Z" fill="#898EC5"/>
<path d="M23.0349 56.4177C23.0349 57.3809 21.8044 58.1606 20.2864 58.1606C19.1637 58.1606 18.1936 57.7294 17.7715 57.1149C17.8883 56.9222 18.0589 56.748 18.2745 56.6195L21.3283 54.8125C22.3343 55.0785 23.0349 55.6931 23.0349 56.4177Z" fill="#898EC5"/>
<path d="M27.0227 62.1268C28.5421 62.1268 29.7738 61.3503 29.7738 60.3923C29.7738 59.4343 28.5421 58.6577 27.0227 58.6577C25.5032 58.6577 24.2715 59.4343 24.2715 60.3923C24.2715 61.3503 25.5032 62.1268 27.0227 62.1268Z" fill="#898EC5"/>
<path d="M33.759 66.0968C35.2784 66.0968 36.5102 65.3202 36.5102 64.3623C36.5102 63.4043 35.2784 62.6277 33.759 62.6277C32.2395 62.6277 31.0078 63.4043 31.0078 64.3623C31.0078 65.3202 32.2395 66.0968 33.759 66.0968Z" fill="#898EC5"/>
<path d="M40.4953 70.0676C42.0147 70.0676 43.2465 69.2911 43.2465 68.3331C43.2465 67.3751 42.0147 66.5985 40.4953 66.5985C38.9759 66.5985 37.7441 67.3751 37.7441 68.3331C37.7441 69.2911 38.9759 70.0676 40.4953 70.0676Z" fill="#898EC5"/>
<path d="M49.9828 72.3032C49.9828 73.2608 48.7514 74.0377 47.2316 74.0377C45.7119 74.0377 44.4805 73.2608 44.4805 72.3032C44.4805 71.3455 45.7119 70.5686 47.2316 70.5686C48.7514 70.5686 49.9828 71.3455 49.9828 72.3032Z" fill="#898EC5"/>
</g>
<defs>
<clipPath id="clip0_248_830">
<rect width="115" height="110" fill="white"/>
</clipPath>
</defs>
</svg>
