<svg width="115" height="110" viewBox="0 0 115 110" fill="none" xmlns="http://www.w3.org/2000/svg">
<g clip-path="url(#clip0_248_3037)">
<rect width="115" height="110" rx="10" fill="#F0F2F2"/>
<path d="M39.4452 98.0001L16 84.1607V48.412L39.4452 62.2514V98.0001Z" fill="#3C4275"/>
<path d="M39.4452 62.2512L16 48.4118L73.8449 14.9076L97.2913 28.7458L39.4452 62.2512Z" fill="#AB7022"/>
<path d="M97.2851 28.7435V64.5767L39.4414 97.9941V62.2561L97.2851 28.7435Z" fill="#5A619D"/>
<path d="M52.5859 83.0812L84.1481 64.6244L84.1504 38.094L52.5859 56.5509V83.0812Z" fill="#ADADAD"/>
<path d="M84.2254 37.725L84.1504 72.2705L84.5955 72.0135L84.611 37.5024L84.2254 37.725Z" fill="#212549"/>
<path d="M52.2117 56.1212L52.1367 90.6679L52.5818 90.4109L52.5973 55.8987L52.2117 56.1212Z" fill="#212549"/>
<path d="M37.1838 83.769L37.1719 75.5575V62.1572L37.5527 62.3833L37.5646 66.5605V67.0603L37.5765 75.2838V75.7955L37.6003 84.007V84.5306L37.6122 92.7422V93.2539L37.6241 96.9312L37.1838 96.6694V83.769Z" fill="#2B251D"/>
<path d="M84.1481 65.0693L52.5859 83.5953V83.0812L84.1481 64.6243V65.0693Z" fill="#212549"/>
<path d="M97.2854 56.9958V57.4838L84.1553 65.1955V64.6719L97.2854 56.9958Z" fill="#212549"/>
<path d="M97.2854 48.2369V48.7249L84.1553 56.4247V55.9129L97.2854 48.2369Z" fill="#212549"/>
<path d="M97.2854 39.478V39.9659L84.1553 47.6657V47.154L97.2854 39.478Z" fill="#212549"/>
<path d="M71.5555 75.0743V76.9582L67.2327 79.4503V78.2483H66.2773V80.0012V80.8795V80.9152L66.591 80.6998L72.5109 77.2867V77.0832V76.4072V75.0743H71.5555Z" fill="#3C4275"/>
<path d="M68.188 78.4698L66.2773 77.3701V78.2484L68.188 79.348V78.4698Z" fill="#9EA094"/>
<path d="M73.4664 75.4244L71.5557 74.3247V75.203L73.4664 76.3026V75.4244Z" fill="#9EA094"/>
<path d="M71.9678 74.0867L71.5555 74.3247L73.0812 75.1875L68.188 78.0115L66.6623 77.1476L66.2773 77.3701L68.188 78.4697L73.8785 75.1863L71.9678 74.0867Z" fill="#C4C4C4"/>
<path d="M73.879 76.0646L68.1885 79.348V78.4697L73.879 75.1863V76.0646Z" fill="#DEDEDE"/>
<path d="M47.371 64.1697V66.0535L43.0481 68.5456V67.3436H42.0928V69.0966V69.9749V70.0106L42.4065 69.7952L48.3251 66.382V66.1785V65.5026V64.1697H47.371Z" fill="#3C4275"/>
<path d="M44.0035 67.565L42.0928 66.4653V67.3436L44.0035 68.4444V67.565Z" fill="#9EA094"/>
<path d="M49.2796 64.5196L47.3701 63.4199V64.2982L49.2796 65.3978V64.5196Z" fill="#9EA094"/>
<path d="M47.7833 63.1819L47.371 63.4199L48.8955 64.2827L44.0035 67.1068L42.4778 66.2428L42.0928 66.4653L44.0035 67.565L49.6928 64.2815L47.7833 63.1819Z" fill="#C4C4C4"/>
<path d="M49.6923 65.1598L44.0029 68.4444V67.5649L49.6923 64.2815V65.1598Z" fill="#DEDEDE"/>
<path d="M93.15 62.3822V64.2661L88.8272 66.7581V65.5573H87.873V67.3091V68.1886V68.2231L88.1856 68.0077L94.1054 64.5946V64.3911V63.7163V62.3822H93.15Z" fill="#3C4275"/>
<path d="M88.9627 65.5632L87.873 64.9408V65.8191L88.9627 66.4427V65.5632Z" fill="#9EA094"/>
<path d="M94.2412 62.5179L93.1504 61.8955V62.7738L94.2412 63.3974V62.5179Z" fill="#9EA094"/>
<path d="M93.5623 61.6562L93.15 61.8954L93.8558 62.281L88.9639 65.1051L88.2568 64.7183L87.873 64.9408L88.9627 65.5633L94.6532 62.2798L93.5623 61.6562Z" fill="#C4C4C4"/>
<path d="M94.6534 63.1593L88.9629 66.4427V65.5632L94.6534 62.2798V63.1593Z" fill="#DEDEDE"/>
<path d="M93.15 54.041V55.9249L88.8272 58.4169V57.215H87.873V58.9667V59.8462V59.8807L88.1856 59.6653L94.1054 56.2534V56.0487V55.3739V54.041H93.15Z" fill="#3C4275"/>
<path d="M88.9627 57.2221L87.873 56.5985V57.478L88.9627 58.1004V57.2221Z" fill="#9EA094"/>
<path d="M94.2412 54.1754L93.1504 53.553V54.4325L94.2412 55.0549V54.1754Z" fill="#9EA094"/>
<path d="M93.5623 53.3151L93.15 53.5531L93.8558 53.9386L88.9639 56.7627L88.2568 56.3759L87.873 56.5985L88.9627 57.2221L94.6532 53.9386L93.5623 53.3151Z" fill="#C4C4C4"/>
<path d="M94.6534 54.817L88.9629 58.1004V57.2221L94.6534 53.9387V54.817Z" fill="#DEDEDE"/>
<path d="M93.15 45.6985V47.5823L88.8272 50.0744V48.8736H87.873V50.6254V51.5049V51.5394L88.1856 51.324L94.1054 47.9108V47.7073V47.0314V45.6985H93.15Z" fill="#3C4275"/>
<path d="M88.9627 48.8797L87.873 48.2561V49.1356L88.9627 49.7592V48.8797Z" fill="#9EA094"/>
<path d="M94.2412 45.8343L93.1504 45.2107V46.0901L94.2412 46.7126V45.8343Z" fill="#9EA094"/>
<path d="M93.5623 44.9727L93.15 45.2107L93.8558 45.5974L88.9639 48.4215L88.2568 48.0347L87.873 48.2561L88.9627 48.8797L94.6532 45.5963L93.5623 44.9727Z" fill="#C4C4C4"/>
<path d="M94.6534 46.4758L88.9629 49.7592V48.8797L94.6534 45.5963V46.4758Z" fill="#DEDEDE"/>
<path d="M93.15 37.3572V39.2411L88.8272 41.7331V40.5311H87.873V42.2829V43.1624V43.1969L88.1856 42.9815L94.1054 39.5683V39.3648V38.6901V37.3572H93.15Z" fill="#3C4275"/>
<path d="M88.9627 40.5372L87.873 39.9148V40.7943L88.9627 41.4167V40.5372Z" fill="#9EA094"/>
<path d="M94.2412 37.4918L93.1504 36.8694V37.7477L94.2412 38.3713V37.4918Z" fill="#9EA094"/>
<path d="M93.5623 36.6313L93.15 36.8694L93.8558 37.2549L88.9639 40.079L88.2568 39.6922L87.873 39.9148L88.9627 40.5372L94.6532 37.2538L93.5623 36.6313Z" fill="#C4C4C4"/>
<path d="M94.6534 38.1332L88.9629 41.4167V40.5372L94.6534 37.2538V38.1332Z" fill="#DEDEDE"/>
<path d="M41.1551 65.1254L16 50.259V46.5043L41.1551 61.3707V65.1254Z" fill="#B28245"/>
<path d="M41.1551 61.3706L16 46.5042L73.8449 13L99 27.8664L41.1551 61.3706Z" fill="#F9C686"/>
<path d="M99.0002 27.8665L41.1553 61.3706V65.1253L99.0002 31.6997V27.8665Z" fill="#DFA357"/>
<path d="M31.54 39.847L62.8146 21.5496L83.3427 33.5193L52.0693 51.8168L31.54 39.847Z" fill="#393939"/>
<path d="M32.2061 39.8065L62.7451 21.9387L82.6767 33.5598L52.1365 51.4276L32.2061 39.8065Z" fill="#666666"/>
<path d="M32.2061 39.8065L62.7451 21.9387L52.1365 51.4276L32.2061 39.8065Z" fill="#595959"/>
<path d="M38.7842 38.4308C38.7842 36.4696 41.5956 34.8796 45.0629 34.8796C48.5301 34.8796 51.3415 36.4696 51.3415 38.4308C51.3415 40.3921 48.5301 41.982 45.0629 41.982C41.5956 41.982 38.7842 40.3921 38.7842 38.4308Z" fill="#393939" stroke="#C4C4C4" stroke-width="0.25" stroke-miterlimit="10"/>
<path d="M40.75 38.4307C40.75 37.0836 42.6809 35.9911 45.0621 35.9911C47.4434 35.9911 49.3743 37.0836 49.3743 38.4307C49.3743 39.7779 47.4434 40.8692 45.0621 40.8692C42.6809 40.8704 40.75 39.7779 40.75 38.4307Z" fill="#393939" stroke="#C4C4C4" stroke-width="0.25" stroke-miterlimit="10"/>
<path d="M43.9395 38.4308C43.9395 38.0797 44.4421 37.7953 45.0623 37.7953C45.6826 37.7953 46.1852 38.0797 46.1852 38.4308C46.1852 38.7819 45.6826 39.0663 45.0623 39.0663C44.4421 39.0663 43.9395 38.7819 43.9395 38.4308Z" fill="#9C3939"/>
<path d="M49.2471 43.9563C49.2471 42.2545 51.6853 40.8752 54.694 40.8752C57.7026 40.8752 60.1409 42.2545 60.1409 43.9563C60.1409 45.6581 57.7026 47.0375 54.694 47.0375C51.6865 47.0375 49.2471 45.6581 49.2471 43.9563Z" fill="#393939" stroke="#C4C4C4" stroke-width="0.25" stroke-miterlimit="10"/>
<path d="M51.2139 43.9563C51.2139 42.8686 52.7717 41.9879 54.6942 41.9879C56.6168 41.9879 58.1746 42.8698 58.1746 43.9563C58.1746 45.044 56.6168 45.9247 54.6942 45.9247C52.7717 45.9247 51.2139 45.0428 51.2139 43.9563Z" fill="#393939" stroke="#C4C4C4" stroke-width="0.25" stroke-miterlimit="10"/>
<path d="M54.6953 29.4872C54.6953 27.526 57.5055 25.936 60.974 25.936C64.4413 25.936 67.2527 27.526 67.2527 29.4872C67.2527 31.4485 64.4425 33.0384 60.974 33.0384C57.5055 33.0384 54.6953 31.4485 54.6953 29.4872Z" fill="#393939" stroke="#C4C4C4" stroke-width="0.25" stroke-miterlimit="10"/>
<path d="M56.5547 29.4873C56.5547 28.1401 58.4856 27.0476 60.8668 27.0476C63.2481 27.0476 65.179 28.1401 65.179 29.4873C65.179 30.8344 63.2481 31.9269 60.8668 31.9269C58.4856 31.9269 56.5547 30.8344 56.5547 29.4873Z" fill="#393939" stroke="#C4C4C4" stroke-width="0.25" stroke-miterlimit="10"/>
<path d="M65.1592 35.0129C65.1592 33.311 67.5975 31.9318 70.6061 31.9318C73.6147 31.9318 76.053 33.311 76.053 35.0129C76.053 36.7147 73.6147 38.094 70.6061 38.094C67.5975 38.094 65.1592 36.7147 65.1592 35.0129Z" fill="#393939" stroke="#C4C4C4" stroke-width="0.25" stroke-miterlimit="10"/>
<path d="M67.291 35.0129C67.291 33.9775 68.7751 33.1373 70.6062 33.1373C72.4373 33.1373 73.9214 33.9763 73.9214 35.0129C73.9214 36.0482 72.4373 36.8884 70.6062 36.8884C68.7751 36.8872 67.291 36.0482 67.291 35.0129Z" fill="#393939" stroke="#C4C4C4" stroke-width="0.25" stroke-miterlimit="10"/>
<path d="M59.8506 29.4873C59.8506 29.1362 60.3532 28.8518 60.9735 28.8518C61.5937 28.8518 62.0964 29.1362 62.0964 29.4873C62.0964 29.8384 61.5937 30.1228 60.9735 30.1228C60.3532 30.1228 59.8506 29.8384 59.8506 29.4873Z" fill="#9C3939"/>
<path d="M53.5713 43.9563C53.5713 43.6052 54.0739 43.3208 54.6942 43.3208C55.3145 43.3208 55.8171 43.6052 55.8171 43.9563C55.8171 44.3074 55.3145 44.5918 54.6942 44.5918C54.0739 44.5918 53.5713 44.3062 53.5713 43.9563Z" fill="#9C3939"/>
<path d="M69.4834 35.0128C69.4834 34.6617 69.986 34.3773 70.6063 34.3773C71.2265 34.3773 71.7292 34.6617 71.7292 35.0128C71.7292 35.3639 71.2265 35.6483 70.6063 35.6483C69.986 35.6483 69.4834 35.3639 69.4834 35.0128Z" fill="#9C3939"/>
<path d="M56.3906 78.2245L80.6439 64.0412L80.6462 52.8021L56.3906 66.9854V78.2245Z" fill="#191E21"/>
<path d="M78.582 54.4135V63.696L66.7589 70.6104L58.4531 75.4659V66.1952L58.8334 65.9691L70.6445 59.0667L78.582 54.4135Z" fill="#44565E"/>
<path d="M81.0146 49.1533V51.5299L54.575 66.9331V65.4169H53.3701V67.6269V68.736V68.7801L53.7646 68.5087L82.2195 51.9441V51.687V50.8349V49.1533H81.0146Z" fill="#737373"/>
<path d="M78.582 54.4135V63.696L70.6445 59.0667L78.582 54.4135Z" fill="#56666D"/>
<path d="M66.7589 70.6103L58.4531 75.4658V66.1951L58.8334 65.969L66.7589 70.6103Z" fill="#56666D"/>
<path d="M82.9287 49.5116V50.4625L83.8151 49.9531V49.0034L82.9287 49.5116Z" fill="#B8B8B8"/>
<path d="M81.7925 47.8442L80.9072 48.3524L82.9284 49.5115L83.8148 49.0034L81.7925 47.8442Z" fill="#D8D8D8"/>
<path d="M80.9072 48.3524V49.3045L82.9284 50.4624V49.5115L80.9072 48.3524Z" fill="#B8B8B8"/>
<path d="M55.3911 65.6443V66.5964L54.5059 66.0858V65.1361L55.3911 65.6443Z" fill="#707070"/>
<path d="M82.0434 49.0034L82.9286 49.5116L55.3911 65.6443L54.5059 65.1361L82.0434 49.0034Z" fill="#D8D8D8"/>
<path d="M82.9291 49.5116V50.4625L55.3916 66.5963V65.6443L82.9291 49.5116Z" fill="#B8B8B8"/>
<path d="M55.3916 65.6443V66.5964L56.278 66.0858V65.1361L55.3916 65.6443Z" fill="#B8B8B8"/>
<path d="M54.2554 63.9781L53.3701 64.4863L55.3913 65.6442L56.2777 65.1361L54.2554 63.9781Z" fill="#D8D8D8"/>
<path d="M53.3701 64.4863V65.4372L55.3913 66.5963V65.6443L53.3701 64.4863Z" fill="#969696"/>
<path d="M52.5859 80.5284L84.1481 62.0716L84.1504 61.8442L52.5859 80.3011V80.5284Z" fill="#7B7B7B"/>
<path d="M52.5859 64.6517L84.1481 46.1936L84.1504 45.9663L52.5859 64.4244V64.6517Z" fill="#7B7B7B"/>
<path d="M59.0198 56.753C59.6116 57.0958 59.6009 58.224 58.9961 59.2736C58.3913 60.3232 57.4205 60.8969 56.8276 60.5553C56.2358 60.2126 56.2465 59.0844 56.8513 58.0347C57.4573 56.9839 58.4281 56.4103 59.0198 56.753Z" fill="#737373"/>
<path d="M79.7005 45.0189C80.2923 45.3617 80.2816 46.4899 79.6767 47.5395C79.0707 48.5892 78.1011 49.1628 77.5082 48.8212C76.9165 48.4785 76.9272 47.3503 77.532 46.3006C78.138 45.2498 79.1076 44.6762 79.7005 45.0189Z" fill="#737373"/>
<path d="M59.8377 56.3021L59.1461 55.9022C58.7266 55.6594 58.1111 55.8808 57.5752 56.4092C57.5182 56.4651 57.4612 56.527 57.4029 56.5901C57.3827 56.6139 57.3614 56.6401 57.34 56.6663C57.3233 56.6865 57.3067 56.7031 57.2924 56.7258C57.2746 56.746 57.258 56.7686 57.2425 56.79C57.1998 56.8448 57.1593 56.9031 57.1201 56.9626C57.1023 56.9876 57.0857 57.0138 57.069 57.0399C57.0417 57.0852 57.012 57.1328 56.9847 57.1804C56.9573 57.228 56.9312 57.2767 56.9051 57.3232C56.8908 57.3505 56.8766 57.3779 56.8647 57.4041C56.8326 57.4696 56.8041 57.5303 56.7779 57.5933C56.766 57.6195 56.7554 57.6445 56.7447 57.673C56.7328 57.6957 56.7257 57.7207 56.7173 57.7433C56.7055 57.7754 56.6947 57.8039 56.6829 57.8361C56.6543 57.9158 56.6318 57.998 56.6116 58.0765C56.5997 58.1182 56.5902 58.161 56.5819 58.2026C56.5652 58.2812 56.551 58.3585 56.5427 58.4347C56.5391 58.4609 56.5343 58.4882 56.5332 58.5132C56.5284 58.5775 56.5236 58.6406 56.5225 58.7013C56.5225 58.7287 56.5225 58.7572 56.5236 58.7858C56.526 58.8715 56.5343 58.9548 56.5486 59.0333C56.5534 59.0559 56.5581 59.0774 56.5629 59.0976C56.5747 59.1464 56.5878 59.1928 56.6033 59.2368C56.6175 59.2785 56.6342 59.3189 56.6532 59.3558C56.6686 59.3856 56.6829 59.4118 56.6995 59.4391C56.7161 59.4665 56.7351 59.4915 56.7542 59.5165C56.7542 59.5165 56.7601 59.5248 56.7649 59.5284C56.7744 59.5403 56.7839 59.551 56.7969 59.5629C56.7969 59.5629 56.8088 59.576 56.8148 59.5831C56.8575 59.626 56.9063 59.6617 56.9597 59.6926L57.6501 60.0925C58.0101 60.3008 58.5116 60.1687 58.9833 59.7938C59.038 59.7521 59.0938 59.7057 59.1473 59.6545C59.1734 59.6319 59.1972 59.6093 59.2222 59.5867C59.436 59.3737 59.638 59.1143 59.8103 58.8155C59.9826 58.5156 60.1074 58.211 60.1834 57.9194C60.3736 57.1887 60.2595 56.546 59.8377 56.3021Z" fill="#E0E0E0"/>
<path d="M60.1858 57.9193C60.1822 57.9301 60.1739 57.942 60.1715 57.9527L57.5479 56.4353C57.5574 56.427 57.5657 56.4163 57.574 56.4092C58.1111 55.8796 58.7254 55.6594 59.1449 55.9022L59.8364 56.302C60.2594 56.546 60.3735 57.1886 60.1858 57.9193Z" fill="#F2F2F2"/>
<path d="M59.6077 59.0856C59.4841 59.2617 59.3641 59.4498 59.2251 59.5878C59.2001 59.6104 59.1764 59.6331 59.1502 59.6557C59.0967 59.7068 59.0409 59.7521 58.9862 59.7949C58.5145 60.1698 58.0119 60.3019 57.653 60.0936L56.9627 59.6937C56.9092 59.6628 56.8617 59.6271 56.8177 59.5843C56.8118 59.5771 56.8058 59.5712 56.8058 59.5712C56.788 59.5521 56.7785 59.5426 56.7678 59.5295C56.7642 59.5259 56.7595 59.52 56.7595 59.52C56.7381 59.4926 56.7191 59.4676 56.7024 59.4403C56.6858 59.4129 56.6704 59.3867 56.6561 59.3569C56.6371 59.3201 56.6204 59.2796 56.6062 59.2379C56.5919 59.1939 56.5777 59.1475 56.5658 59.0987C56.561 59.0785 56.5563 59.0559 56.5515 59.0344C56.5373 58.9571 56.5301 58.8714 56.5278 58.7857C56.5254 58.7583 56.5266 58.7298 56.5254 58.7024C56.5266 58.6417 56.5301 58.5798 56.5361 58.5144C56.5373 58.4894 56.542 58.4632 56.5456 58.4358C56.5539 58.3597 56.5682 58.2823 56.5848 58.2038C56.5931 58.1621 56.6038 58.1181 56.6145 58.0776C56.6347 57.9991 56.6573 57.9169 56.6858 57.8372C56.6977 57.8051 56.7084 57.7765 56.7203 57.7444C56.7286 57.7218 56.7357 57.6968 56.7476 57.6742C56.7571 57.6456 56.7678 57.6218 56.7809 57.5945C56.7975 57.5552 56.8153 57.5183 56.8331 57.479L59.6077 59.0856Z" fill="#BDBDBD"/>
<path d="M58.7193 59.9341C58.332 60.1603 57.9446 60.2626 57.6511 60.0936L56.9607 59.6938C56.9073 59.6628 56.8597 59.6271 56.8157 59.5843C56.8098 59.5772 56.8039 59.5712 56.8039 59.5712C56.786 59.5521 56.7765 59.5426 56.7659 59.5295C56.7623 59.526 56.7575 59.52 56.7575 59.52C56.7361 59.4926 56.7171 59.4677 56.7005 59.4403C56.6839 59.4129 56.6684 59.3867 56.6541 59.357C56.6351 59.3201 56.6185 59.2796 56.6042 59.238C56.59 59.1939 56.5757 59.1475 56.5639 59.0987C56.5591 59.0785 56.5543 59.0559 56.5496 59.0345C56.5353 58.9571 56.5282 58.8714 56.5258 58.7857C56.5234 58.7584 56.5246 58.7298 56.5234 58.7024C56.5234 58.6905 56.5258 58.6786 56.5258 58.6667L58.7193 59.9341Z" fill="#B3B3B3"/>
<path d="M59.929 56.3663C60.5208 56.709 60.5101 57.8372 59.9053 58.8869C59.3005 59.9365 58.3297 60.5101 57.7367 60.1686C57.145 59.8258 57.1557 58.6976 57.7605 57.6468C58.3665 56.5983 59.3373 56.0247 59.929 56.3663Z" fill="#CBCBCB"/>
<path d="M59.8402 56.9828C60.2822 57.2386 60.2739 58.08 59.8223 58.8643C59.3708 59.6485 58.646 60.0758 58.2052 59.8199C57.7631 59.564 57.7714 58.7226 58.223 57.9384C58.6733 57.1553 59.3981 56.7269 59.8402 56.9828Z" fill="#DEDEDE"/>
<path d="M57.8577 59.2415V59.6604L57.3008 59.3403V58.9226L57.8577 59.2415Z" fill="#B0B0B0"/>
<path d="M59.2744 58.1145L59.5501 58.2728L57.8569 59.2415L57.3008 58.9226L57.8973 58.8357L59.2744 58.1145Z" fill="#F2F2F2"/>
<path d="M59.5497 58.2728V58.6918L57.8564 59.6605V59.2415L59.5497 58.2728Z" fill="#D2D2D2"/>
<path d="M58.7357 58.881V59.0143L57.8564 59.5177V59.3844L58.7357 58.881Z" fill="#747474"/>
<path d="M80.5179 44.569L79.8264 44.1692C79.4069 43.9264 78.7914 44.1477 78.2555 44.6773C78.1973 44.7333 78.1414 44.7951 78.0832 44.8582C78.063 44.882 78.0416 44.9082 78.0202 44.9344C78.0036 44.9546 77.987 44.9713 77.9727 44.9939C77.9549 45.0141 77.9382 45.0367 77.9228 45.0581C77.88 45.1129 77.8396 45.1712 77.8004 45.2307C77.7826 45.2557 77.7659 45.2819 77.7493 45.3081C77.722 45.3533 77.6923 45.4009 77.6649 45.4485C77.6376 45.4961 77.6115 45.5449 77.5865 45.5913C77.5722 45.6186 77.558 45.646 77.5461 45.6722C77.514 45.7377 77.4843 45.7984 77.4594 45.8626C77.4475 45.8888 77.4368 45.9138 77.4261 45.9424C77.4142 45.965 77.4071 45.9888 77.3988 46.0126C77.3869 46.0447 77.3762 46.0733 77.3643 46.1054C77.3358 46.1851 77.3132 46.2672 77.293 46.3458C77.2823 46.3874 77.2716 46.4303 77.2633 46.472C77.2467 46.5505 77.2324 46.6279 77.2241 46.704C77.2205 46.7302 77.2158 46.7576 77.2146 46.7825C77.2098 46.8468 77.2063 46.9099 77.2051 46.9706C77.2051 46.998 77.2051 47.0265 77.2063 47.0551C77.2087 47.1408 77.217 47.2241 77.2312 47.3026C77.236 47.3252 77.2407 47.3466 77.2455 47.3669C77.2574 47.4157 77.2704 47.4621 77.2859 47.5061C77.3001 47.5478 77.3168 47.5882 77.3358 47.6251C77.3512 47.6549 77.3667 47.6811 77.3821 47.7084C77.3988 47.7358 77.4178 47.7608 77.438 47.7858C77.438 47.7858 77.4439 47.7941 77.4487 47.7977C77.4582 47.8096 77.4677 47.8203 77.4808 47.8322C77.4808 47.8322 77.4926 47.8453 77.4986 47.8524C77.5414 47.8953 77.5901 47.931 77.6435 47.9619L78.3339 48.3618C78.694 48.57 79.1954 48.438 79.6671 48.0631C79.7218 48.0214 79.7776 47.975 79.8311 47.9238C79.8572 47.9012 79.881 47.8786 79.906 47.856C80.1199 47.643 80.3207 47.3835 80.4941 47.0848C80.6676 46.7861 80.7912 46.4803 80.8672 46.1887C81.0538 45.4556 80.9397 44.813 80.5179 44.569Z" fill="#E0E0E0"/>
<path d="M80.8645 46.1864C80.8609 46.1971 80.8538 46.209 80.8502 46.2197L78.2266 44.7024C78.2361 44.694 78.2444 44.6833 78.2527 44.6762C78.7898 44.1466 79.4041 43.9264 79.8236 44.168L80.5151 44.5679C80.9393 44.813 81.0534 45.4557 80.8645 46.1864Z" fill="#F2F2F2"/>
<path d="M80.2864 47.3514C80.1628 47.5276 80.0428 47.7156 79.9038 47.8537C79.8788 47.8763 79.8551 47.9001 79.8289 47.9215C79.7755 47.9727 79.7196 48.0179 79.665 48.0607C79.1932 48.4356 78.6906 48.5677 78.3318 48.3595L77.6414 47.9596C77.5879 47.9287 77.5404 47.8929 77.4964 47.8501C77.4905 47.843 77.4845 47.837 77.4845 47.837C77.4667 47.818 77.4572 47.8085 77.4465 47.7954C77.4429 47.7918 77.4382 47.7858 77.4382 47.7858C77.4168 47.7585 77.3978 47.7335 77.3812 47.7061C77.3645 47.6787 77.3491 47.6525 77.3348 47.6228C77.3158 47.5859 77.2992 47.5455 77.2849 47.5038C77.2706 47.4598 77.2564 47.4134 77.2445 47.3646C77.2397 47.3443 77.235 47.3217 77.2302 47.3003C77.216 47.2229 77.2077 47.1373 77.2065 47.0516C77.2041 47.0242 77.2053 46.9956 77.2041 46.9683C77.2053 46.9076 77.2088 46.8457 77.2136 46.7802C77.2148 46.7552 77.2195 46.729 77.2231 46.7017C77.2314 46.6255 77.2457 46.5481 77.2623 46.4696C77.2706 46.428 77.2813 46.3839 77.292 46.3435C77.3122 46.2649 77.3348 46.1828 77.3633 46.1031C77.3752 46.0709 77.3859 46.0424 77.3978 46.0103C77.4061 45.9876 77.4132 45.9627 77.4251 45.94C77.4346 45.9115 77.4453 45.8877 77.4584 45.8603C77.475 45.821 77.4928 45.7841 77.5107 45.7449L80.2864 47.3514Z" fill="#BDBDBD"/>
<path d="M79.4 48.2C79.0114 48.4261 78.6252 48.5285 78.3318 48.3583L77.6414 47.9584C77.5879 47.9275 77.5404 47.8918 77.4964 47.8489C77.4905 47.8418 77.4845 47.8359 77.4845 47.8359C77.4667 47.8168 77.4572 47.8073 77.4465 47.7942C77.4429 47.7906 77.4382 47.7847 77.4382 47.7847C77.4168 47.7573 77.3978 47.7323 77.3812 47.7049C77.3645 47.6776 77.3491 47.6514 77.3348 47.6217C77.3158 47.5848 77.2992 47.5443 77.2849 47.5026C77.2706 47.4586 77.2564 47.4122 77.2445 47.3634C77.2397 47.3432 77.235 47.3206 77.2302 47.2992C77.216 47.2218 77.2077 47.1361 77.2065 47.0504C77.2041 47.023 77.2053 46.9945 77.2041 46.9671C77.2041 46.9564 77.2065 46.9433 77.2065 46.9314L79.4 48.2Z" fill="#B3B3B3"/>
<path d="M80.6097 44.6334C81.2014 44.9762 81.1907 46.1044 80.5859 47.154C79.9811 48.2037 79.0103 48.7773 78.4174 48.4357C77.8256 48.093 77.8363 46.9648 78.4412 45.9151C79.0472 44.8643 80.018 44.2907 80.6097 44.6334Z" fill="#CBCBCB"/>
<path d="M80.5189 45.2487C80.9609 45.5045 80.9526 46.3459 80.5011 47.1302C80.0495 47.9133 79.3247 48.3417 78.8839 48.0858C78.4418 47.8299 78.4502 46.9886 78.9017 46.2043C79.3532 45.4212 80.078 44.994 80.5189 45.2487Z" fill="#DEDEDE"/>
<path d="M78.5376 47.5074V47.9275L77.9795 47.6074V47.1897L78.5376 47.5074Z" fill="#B0B0B0"/>
<path d="M79.9544 46.3804L80.23 46.5386L78.5368 47.5074L77.9795 47.1896L78.5772 47.1015L79.9544 46.3804Z" fill="#F2F2F2"/>
<path d="M80.2294 46.5387V46.9576L78.5361 47.9275V47.5074L80.2294 46.5387Z" fill="#D2D2D2"/>
<path d="M79.4154 47.1479V47.2812L78.5361 47.7846V47.6514L79.4154 47.1479Z" fill="#747474"/>
<path d="M65.9375 54.8859L70.7974 52.044V50.1411L65.9375 52.983V54.8859Z" fill="#737373"/>
</g>
<defs>
<clipPath id="clip0_248_3037">
<rect width="115" height="110" fill="white"/>
</clipPath>
</defs>
</svg>
