<svg width="115" height="110" viewBox="0 0 115 110" fill="none" xmlns="http://www.w3.org/2000/svg">
<g clip-path="url(#clip0_248_3771)">
<rect width="115" height="110" rx="10" fill="#F0F2F2"/>
<path d="M51.8713 86.3446L30.6621 74.2896L77.0453 47.8083L98.2545 59.8643L51.8713 86.3446Z" fill="#E0E0E0"/>
<path d="M32.6868 65.061L30.5029 74.1334L32.1891 75.1001L35.5986 63.4031L32.6868 65.061Z" fill="#02090B"/>
<path d="M34.3743 66.0267L32.1895 75.1001L33.8942 74.2078L37.2852 64.3698L34.3743 66.0267Z" fill="#313839"/>
<path d="M50.3553 74.5208C50.3553 74.5208 49.3729 76.8644 49.5688 79.4908C49.7647 82.1172 51.3887 83.4556 51.3785 84.7444C51.3683 86.0333 51.3683 86.0333 51.3683 86.0333L53.0554 86.9999C53.0554 86.9999 53.5884 82.8121 51.8966 80.1361C50.45 77.8476 53.2662 72.8647 53.2662 72.8647L50.3553 74.5208Z" fill="#02090B"/>
<path d="M52.0428 75.4875C52.0428 75.4875 51.0604 77.8311 51.2563 80.4575C51.4522 83.0838 53.0762 84.4223 53.066 85.7102C53.0558 86.9991 53.0558 86.9991 53.0558 86.9991L54.7605 86.1068C54.7605 86.1068 54.5191 83.619 53.5841 81.101C52.6435 78.5673 54.9537 73.8296 54.9537 73.8296L52.0428 75.4875Z" fill="#313839"/>
<path d="M96.3418 48.1232C96.3418 48.1232 97.9361 50.3878 97.6687 54.3269C97.5071 56.7054 96.6547 57.4481 96.353 59.889C96.2787 60.4921 95.7457 62.5824 95.7457 62.5824L94.0586 61.6158C94.0586 61.6158 94.4393 59.1142 95.3873 56.1354C96.3548 53.0959 94.4671 49.1889 94.4671 49.1889L96.3418 48.1232Z" fill="#02090B"/>
<path d="M98.0284 49.0898C98.0284 49.0898 99.7768 51.2122 99.2466 55.1247C98.969 57.1755 97.8891 58.5497 97.5883 60.9897C97.514 61.5928 97.436 61.681 97.436 61.681L95.7461 62.5815C95.7461 62.5815 95.8334 60.1498 97.0692 56.3805C98.059 53.3612 96.1546 50.1547 96.1546 50.1547L98.0284 49.0898Z" fill="#313839"/>
<path d="M32.4355 48.3711L78.6757 22L81.0388 23.3485L34.7986 49.7196L32.4355 48.3711Z" fill="#41484E"/>
<path d="M34.7988 49.7197L81.039 23.3486L81.0362 41.389L34.7998 67.7508L34.7988 49.7197Z" fill="#171E1F"/>
<path d="M34.7996 67.7507L32.4365 66.4022L32.4355 48.3711L34.7986 49.7196L34.7996 67.7507Z" fill="#02090B"/>
<path d="M51.8713 76.3853L35.3418 66.9732V64.557L51.8713 73.9682V76.3853Z" fill="#02090B"/>
<path d="M51.8713 73.9682L35.3418 64.557L81.724 38.0758L98.2544 47.4879L51.8713 73.9682Z" fill="#AB7022"/>
<path d="M98.2543 47.4879L51.8711 73.9682V76.3853L98.2543 49.9876V47.4879Z" fill="#313839"/>
<path d="M96.6934 39.7686L99.0072 33.3316L82.6727 24.048C82.5883 23.9819 82.5028 23.9342 82.4174 23.903L82.4044 23.8956L82.4035 23.8974C81.0163 23.4155 79.4824 27.2178 79.422 30.8466C79.3542 34.8812 80.1639 38.9488 80.1639 38.9488L96.7017 48.36L96.6934 39.7686Z" fill="#353A63"/>
<path d="M82.6734 24.0489C82.5889 23.9828 82.5035 23.9351 82.4181 23.9039L82.4051 23.8965L82.4041 23.8984C81.7867 23.6845 81.1414 24.3207 80.6084 25.4094V25.638L97.1973 34.8794L98.4954 34.76L99.0088 33.3325L82.6734 24.0489Z" fill="#4D537E"/>
<path d="M68.6895 31.2275L68.6904 43.961L71.8622 45.6051L72.4992 32.0207L68.6895 31.2275Z" fill="#3C4275"/>
<path d="M80.1873 24.8182L68.6895 31.2276L70.358 32.2668L82.0731 25.7665L80.1873 24.8182Z" fill="#3C4275"/>
<path d="M83.5767 39.1059L83.5702 33.4832C83.3483 30.8633 83.4867 28.1984 82.0725 25.7666L70.3574 32.2669C71.7716 34.6977 71.6341 37.3635 71.8551 39.9835L71.8616 45.6062L83.5795 40.2708L83.5804 39.1041L83.5767 39.1059Z" fill="#5A619D"/>
<path d="M48.6553 42.2408V54.9733L51.8271 56.6184L52.465 43.0331L48.6553 42.2408Z" fill="#3C4275"/>
<path d="M67.7437 31.6949L48.6553 42.2408L50.3229 43.279L69.6296 32.6432L67.7437 31.6949Z" fill="#3C4275"/>
<path d="M71.1331 45.9816L71.1266 40.3589C70.9047 37.7399 71.0431 35.0741 69.6289 32.6423L50.3223 43.2791C51.7364 45.7099 51.599 48.3757 51.8209 50.9957L51.8274 56.6184L71.1359 45.9871L71.1369 45.9807L71.1331 45.9816Z" fill="#5A619D"/>
<path d="M36.332 48.8824V61.6159L39.5038 63.26L40.1417 49.6756L36.332 48.8824Z" fill="#3C4275"/>
<path d="M47.8299 42.473L36.332 48.8824L37.9996 49.9216L49.7148 43.4213L47.8299 42.473Z" fill="#3C4275"/>
<path d="M51.2183 56.7604L51.2118 51.1378C50.9899 48.5178 51.1282 45.8529 49.7131 43.4211L37.998 49.9214C39.4122 52.3523 39.2748 55.0181 39.4957 57.638L39.5022 63.2607L51.2201 56.765L51.2211 56.7586L51.2183 56.7604Z" fill="#5A619D"/>
<path d="M53.4175 73.0539L41.3264 66.158C41.3264 66.158 40.9958 62.0114 41.5557 61.6057C44.1788 59.7054 74.8394 42.864 80.8432 39.8989C82.7866 38.9396 83.7244 39.7778 83.7244 39.7778L96.0588 46.7875C96.0588 46.7875 53.9338 70.8985 53.4175 73.0539Z" fill="#3C4275"/>
<path d="M94.7806 46.6948L54.7058 69.7243C53.897 70.2971 53.417 71.2207 53.417 72.2047V73.0539L96.7017 48.3609V47.9359C96.7026 46.9582 95.6868 46.3019 94.7806 46.6948Z" fill="#5A619D"/>
<path d="M39.226 54.181C44.3607 49.4533 50.1324 49.2651 50.1324 49.2651C50.1677 49.3661 52.4314 49.8187 52.4648 49.9215C53.8892 54.2388 51.5057 59.151 51.5057 59.151C46.7219 62.7311 40.5241 63.9713 40.5241 63.9713C38.5333 57.9254 39.226 54.181 39.226 54.181Z" fill="#DE9B46"/>
<path d="M41.3451 54.6767C46.4799 49.949 52.2515 49.7609 52.2515 49.7609C52.2868 49.8618 53.2051 49.9647 53.2395 50.0666C54.6638 54.3839 53.6248 59.6458 53.6248 59.6458C48.8411 63.2259 42.6432 64.4661 42.6432 64.4661C40.6525 58.4212 41.3451 54.6767 41.3451 54.6767Z" fill="#FEC277"/>
<path d="M42.3334 54.9825C47.4681 50.2548 53.2398 50.0667 53.2398 50.0667C54.7756 54.4372 54.6131 59.9515 54.6131 59.9515C49.8294 63.5308 43.6315 64.7719 43.6315 64.7719C41.6408 58.727 42.3334 54.9825 42.3334 54.9825Z" fill="#FFA160"/>
<path d="M42.4136 55.0145C47.4796 50.3502 53.1752 50.1638 53.1752 50.1638C54.6905 54.4765 54.5308 59.9184 54.5308 59.9184C49.8102 63.4508 43.6941 64.6745 43.6941 64.6745C41.7312 58.7085 42.4136 55.0145 42.4136 55.0145Z" fill="#FFA12C"/>
<path d="M98.2545 47.4879C98.2545 47.4879 97.2424 40.826 98.2545 38.8257C99.2666 36.8254 100.885 35.2915 99.4012 33.6244C97.9175 31.9573 96.0288 36.2251 95.9611 40.2596C95.8933 44.2942 96.7029 48.3618 96.7029 48.3618L98.2545 47.4879Z" fill="#5A619D"/>
<path d="M51.8618 73.9682L51.8534 65.3758L50.7086 61.2302L34.3082 51.9016C34.2887 51.8888 34.2701 51.8814 34.2506 51.8686L34.1113 51.7896L34.1085 51.7924C33.6266 51.5436 33.1559 51.5922 32.7696 52.0696C31.1651 54.0524 33.2617 55.2972 34.2738 57.2985C35.2051 59.1399 35.3258 63.729 35.3388 64.4505C35.3295 64.5129 35.323 64.557 35.323 64.557L51.8618 73.9682Z" fill="#353A63"/>
<path d="M34.3088 51.9016C34.2893 51.8888 34.2707 51.8814 34.2512 51.8686L34.1119 51.7896L34.1091 51.7924C33.6272 51.5436 33.1565 51.5922 32.7702 52.0696C32.3988 52.5295 32.2317 52.9481 32.1982 53.3474L48.7741 62.5824L51.0249 62.374L50.7092 61.2302L34.3088 51.9016Z" fill="#4D537E"/>
<path d="M51.8707 73.9682C51.8707 73.9682 52.0759 68.6357 51.0638 66.6354C50.0517 64.6351 47.696 63.4637 49.2996 61.4808C50.7026 59.7468 53.217 63.5179 53.2848 67.5515C53.3526 71.5861 53.412 73.0943 53.412 73.0943L51.8707 73.9682Z" fill="#5A619D"/>
<path d="M75.5715 32.3512C82.1881 30.2701 88.6172 32.7193 88.6172 32.7193C88.7008 32.9185 89.1223 32.7524 89.1687 33.2931C89.529 37.5333 88.1919 42.5813 88.1919 42.5813C83.5382 43.4873 77.7879 43.6526 75.6328 43.2505C75.0079 43.1339 75.0812 42.0892 75.0812 42.0892C74.0682 35.5348 75.5715 32.3512 75.5715 32.3512Z" fill="#DE9B46"/>
<path d="M76.1227 32.9249C82.7393 30.8439 89.1684 33.2931 89.1684 33.2931C90.0087 38.0758 88.7431 43.155 88.7431 43.155C82.7402 44.3236 75.6324 42.663 75.6324 42.663C74.6185 36.1085 76.1227 32.9249 76.1227 32.9249Z" fill="#FFA12C"/>
<path d="M21.4167 85.914C20.7445 85.6175 20.2162 85.219 19.881 84.7527C19.6358 84.4167 19.5105 84.0624 19.4947 83.708L19.491 83.6814C19.4882 83.6429 19.4938 83.6006 19.4984 83.5593L19.5263 83.0131L19.6089 83.014L19.8132 83.015L19.8447 82.9608C19.9107 82.8598 19.9896 82.7579 20.0787 82.6606C21.2115 81.4085 23.7111 80.8733 25.8931 81.4241C27.0166 81.705 27.9033 82.2347 28.3862 82.9085C28.441 82.9782 28.4837 83.0489 28.5227 83.1233L28.8096 82.9847V83.4308C28.8551 83.8549 28.6963 84.2864 28.4252 84.6949C28.3565 84.8014 28.2775 84.9033 28.1912 84.9951C27.6851 85.5514 26.908 85.9681 26.0138 86.2041C24.8968 86.5116 23.5857 86.54 22.374 86.2362C22.0286 86.1499 21.7092 86.0379 21.4167 85.914Z" fill="url(#paint0_linear_248_3771)"/>
<path d="M20.1116 81.6518C20.0253 81.7472 19.9463 81.8482 19.8776 81.9501C19.3939 82.6689 19.406 83.4538 19.912 84.1579C20.3958 84.8326 21.2825 85.3595 22.4088 85.6423C24.5908 86.1903 27.0904 85.6569 28.2232 84.403C28.3095 84.3066 28.3884 84.2065 28.4571 84.1046C28.9409 83.3858 28.9288 82.601 28.4228 81.8969C27.939 81.2221 27.0523 80.6952 25.926 80.4125C23.744 79.8644 21.2444 80.3969 20.1116 81.6518Z" fill="#E8CA6F"/>
<path d="M25.2311 44.5953H23.0732V82.9654H23.0928C23.076 83.0701 23.0881 83.1756 23.1559 83.2775C23.1717 83.3014 23.1902 83.3244 23.2107 83.3473C23.4734 83.6392 24.0547 83.7622 24.5617 83.6356C24.8235 83.5695 25.0296 83.4474 25.142 83.2904C25.2163 83.1866 25.2274 83.0765 25.2098 82.9663H25.2321V44.5953H25.2311Z" fill="url(#paint1_linear_248_3771)"/>
<path d="M33.2649 43.815V43.8113C33.2352 43.6066 33.1832 43.4038 33.1154 43.2009L30.7244 33.4105H17.5348L15 43.815H15.0409C14.9192 44.6862 15.1318 45.572 15.6973 46.4129C15.8329 46.614 15.9879 46.8113 16.1579 47.0004C18.39 49.4726 23.3158 50.5228 27.6158 49.4432C29.834 48.8869 31.5815 47.8477 32.536 46.5185C33.1553 45.6547 33.3977 44.7312 33.2649 43.815Z" fill="url(#paint2_linear_248_3771)"/>
<path d="M29.9293 31.895C30.0528 32.0318 30.1652 32.175 30.2627 32.32C30.9516 33.3445 30.9349 34.4617 30.2144 35.466C29.5245 36.4271 28.2608 37.1789 26.6563 37.581C23.5467 38.3622 19.9849 37.6021 18.3711 35.8148C18.2476 35.678 18.1353 35.5357 18.0378 35.3898C17.3488 34.3653 17.3655 33.2481 18.087 32.2438C18.7769 31.2827 20.0406 30.5318 21.6451 30.1288C24.7538 29.3476 28.3156 30.1077 29.9293 31.895Z" fill="#FFC377"/>
<path d="M24.1317 37.2055C21.9218 37.2055 19.9116 36.4987 18.8846 35.3613C18.7834 35.2493 18.6906 35.1318 18.6117 35.0125C18.0833 34.2285 18.0963 33.4069 18.6479 32.6394C19.243 31.8096 20.3666 31.1532 21.8132 30.7906C22.5662 30.6006 23.3582 30.5051 24.1688 30.5051C26.3778 30.5051 28.388 31.212 29.415 32.3484C29.5152 32.4604 29.6081 32.577 29.6879 32.6973C30.2163 33.4822 30.2033 34.3029 29.6517 35.0721C29.0556 35.902 27.9321 36.5593 26.4874 36.9209C25.7334 37.1101 24.9414 37.2055 24.1317 37.2055Z" fill="url(#paint3_linear_248_3771)"/>
</g>
<defs>
<linearGradient id="paint0_linear_248_3771" x1="19.4911" y1="83.8297" x2="28.8187" y2="83.8297" gradientUnits="userSpaceOnUse">
<stop offset="0.1613" stop-color="#AD8A1F"/>
<stop offset="0.1633" stop-color="#D0A626"/>
<stop offset="0.5593" stop-color="#D0A626"/>
<stop offset="0.5622" stop-color="#DDB028"/>
<stop offset="0.8728" stop-color="#DDB028"/>
<stop offset="0.8739" stop-color="#CEA425"/>
</linearGradient>
<linearGradient id="paint1_linear_248_3771" x1="23.0726" y1="64.1401" x2="25.2308" y2="64.1401" gradientUnits="userSpaceOnUse">
<stop offset="0.1613" stop-color="#AD8A1F"/>
<stop offset="0.1633" stop-color="#D0A626"/>
<stop offset="0.5593" stop-color="#D0A626"/>
<stop offset="0.5622" stop-color="#DDB028"/>
<stop offset="0.8728" stop-color="#DDB028"/>
<stop offset="0.8739" stop-color="#CEA425"/>
</linearGradient>
<linearGradient id="paint2_linear_248_3771" x1="14.9997" y1="41.6376" x2="33.3001" y2="41.6376" gradientUnits="userSpaceOnUse">
<stop offset="0.1202" stop-color="#A56310"/>
<stop offset="0.3017" stop-color="#CA7B17"/>
<stop offset="0.6143" stop-color="#E98D18"/>
<stop offset="0.8054" stop-color="#FF9E22"/>
</linearGradient>
<linearGradient id="paint3_linear_248_3771" x1="14.0457" y1="33.8551" x2="25.8961" y2="33.8551" gradientUnits="userSpaceOnUse">
<stop offset="0.1946" stop-color="#FF9E22"/>
<stop offset="0.3857" stop-color="#F8991F"/>
<stop offset="0.6983" stop-color="#D18017"/>
<stop offset="0.8798" stop-color="#A56310"/>
</linearGradient>
<clipPath id="clip0_248_3771">
<rect width="115" height="110" fill="white"/>
</clipPath>
</defs>
</svg>
