<svg width="40" height="40" viewBox="0 0 40 40" fill="none" xmlns="http://www.w3.org/2000/svg">
<g clip-path="url(#clip0_139_95)">
<path d="M16.6656 31.9997H25.9984C26.367 31.9997 26.665 31.7011 26.665 31.3331C26.665 30.9652 26.367 30.6665 25.9984 30.6665H16.6656C16.297 30.6665 15.999 30.9652 15.999 31.3331C15.999 31.7011 16.297 31.9997 16.6656 31.9997Z" fill="#898FC5"/>
<path d="M12.6659 6.00115C12.6659 6.3691 12.9638 6.66775 13.3325 6.66775H36.6644C37.767 6.66775 38.6643 7.56504 38.6643 8.66762V24.6666C38.6643 25.0346 38.9622 25.3332 39.3309 25.3332C39.6995 25.3332 39.9975 25.0346 39.9975 24.6666V8.66762C39.9975 6.82977 38.5022 5.33447 36.6643 5.33447H13.3326C12.9639 5.33455 12.6659 5.6332 12.6659 6.00115Z" fill="#898FC5"/>
<path d="M16.6656 27.9997H23.3318C23.7005 27.9997 23.9984 27.701 23.9984 27.3331C23.9984 26.9652 23.7005 26.6665 23.3318 26.6665H16.6656C16.297 26.6665 15.999 26.9652 15.999 27.3331C15.999 27.701 16.297 27.9997 16.6656 27.9997Z" fill="#898FC5"/>
<path d="M23.3319 38.6657H11.9992V8.66756C11.9992 6.82971 10.504 5.33441 8.6661 5.33441C6.82824 5.33441 5.33295 6.82963 5.33295 8.66756V31.3328C5.33295 32.4354 4.43566 33.3327 3.33307 33.3327C2.23049 33.3327 1.3332 32.4354 1.3332 31.3328V1.33466H27.9982V3.33454C27.9982 3.70248 28.2962 4.00114 28.6648 4.00114C29.0335 4.00114 29.3314 3.70248 29.3314 3.33454V0.668064C29.3314 0.300118 29.0335 0.00146484 28.6648 0.00146484H0.666599C0.29795 0.00146484 0 0.300118 0 0.668064V31.3328C0 33.1706 1.49522 34.6659 3.33315 34.6659C5.171 34.6659 6.6663 33.1707 6.6663 31.3328V8.66756C6.6663 7.56498 7.56359 6.66769 8.66618 6.66769C9.76876 6.66769 10.6661 7.56498 10.6661 8.66756V33.3327H7.3329C6.96425 33.3327 6.6663 33.6313 6.6663 33.9993C6.6663 34.3672 6.96425 34.6659 7.3329 34.6659H10.6661V39.3322C10.6661 39.7002 10.964 39.9988 11.3327 39.9988H23.3319C23.7005 39.9988 23.9985 39.7002 23.9985 39.3322C23.9985 38.9643 23.7005 38.6657 23.3319 38.6657Z" fill="#898FC5"/>
<path d="M30.6647 27.3331C30.6647 26.9652 30.3668 26.6665 29.9981 26.6665H25.9984C25.6297 26.6665 25.3318 26.9652 25.3318 27.3331C25.3318 27.701 25.6297 27.9997 25.9984 27.9997H29.9981C30.3668 27.9997 30.6647 27.701 30.6647 27.3331Z" fill="#898FC5"/>
<path d="M39.2036 27.4608L37.8703 26.1276C36.8451 25.1029 35.2852 25.105 34.2612 26.1276L25.5271 34.8617C25.4018 34.9864 25.3318 35.1564 25.3318 35.333V39.3328C25.3318 39.7007 25.6297 39.9994 25.9984 39.9994H29.9981C30.1755 39.9994 30.3448 39.9294 30.4694 39.8041L39.2036 31.0699C40.2655 30.008 40.2655 28.5234 39.2036 27.4608ZM33.3993 28.8754L34.4558 29.9319L28.6649 35.7236L27.6076 34.6663L33.3993 28.8754ZM26.665 38.6661V35.6089L29.7221 38.6661H26.665ZM30.6647 37.7235L29.6075 36.6662L35.3992 30.8752L36.4565 31.9318L30.6647 37.7235ZM38.261 30.1273L37.399 30.9893L34.3418 27.9321L35.2038 27.0702C35.7318 26.5429 36.3984 26.5415 36.9277 27.0702L38.261 28.4034C38.8002 28.9434 38.8002 29.588 38.261 30.1273Z" fill="#898FC5"/>
<path d="M31.998 23.3333V17.6096L32.1933 17.8049C32.3233 17.9349 32.494 18.0002 32.6646 18.0002C32.8353 18.0002 33.0059 17.9349 33.1359 17.8049C33.3965 17.5443 33.3965 17.123 33.1359 16.8623L31.8033 15.5298L31.802 15.5284L25.8031 9.52944C25.5425 9.26883 25.1211 9.26883 24.8605 9.52944L18.8616 15.5284L18.8602 15.5298L17.5277 16.8623C17.267 17.123 17.267 17.5443 17.5277 17.8049C17.7884 18.0655 18.2097 18.0655 18.4703 17.8049L18.6656 17.6096V23.3333C18.6656 23.7012 18.9635 23.9999 19.3322 23.9999H23.9985C24.3672 23.9999 24.6651 23.7012 24.6651 23.3333V20.0001H25.9984V23.3333C25.9984 23.7012 26.2963 23.9999 26.665 23.9999H31.3313C31.7001 23.9999 31.998 23.7012 31.998 23.3333ZM30.6647 22.6666H27.3316V19.3334C27.3316 18.9655 27.0336 18.6668 26.665 18.6668H23.9985C23.6299 18.6668 23.3319 18.9655 23.3319 19.3334V22.6666H19.9988V16.2763L25.3318 10.9433L30.6648 16.2763V22.6666H30.6647Z" fill="#898FC5"/>
</g>
<defs>
<clipPath id="clip0_139_95">
<rect width="40" height="40" fill="white"/>
</clipPath>
</defs>
</svg>
