<svg width="40" height="40" viewBox="0 0 40 40" fill="none" xmlns="http://www.w3.org/2000/svg">
<g clip-path="url(#clip0_139_110)">
<path d="M17.9995 13.0005C17.6308 13.0005 17.3329 13.2991 17.3329 13.6671V22.0002C17.3329 22.3682 17.6308 22.6668 17.9995 22.6668H37.9989C38.3676 22.6668 38.6655 22.3682 38.6655 22.0002V13.6671C38.6655 13.2991 38.3676 13.0005 37.9989 13.0005C37.6303 13.0005 37.3323 13.2991 37.3323 13.6671V21.3335H27.9992V12.6671C27.9992 12.2992 27.7013 12.0005 27.3326 12.0005H21.9994C21.6307 12.0005 21.3328 12.2992 21.3328 12.6671V21.3335H18.6662V13.6671C18.6661 13.2991 18.3682 13.0005 17.9995 13.0005ZM22.666 13.3337H26.6659V16.667H25.9993C25.6306 16.667 25.3327 16.9657 25.3327 17.3336C25.3327 17.7016 25.6306 18.0002 25.9993 18.0002H26.6659V21.3335H22.666V13.3337Z" fill="#898FC5"/>
<path d="M16.4109 12.6165C16.4935 12.6505 16.5802 12.6672 16.6662 12.6672C16.8395 12.6672 17.0102 12.5993 17.1375 12.4719L28.0012 1.6089L38.8609 12.4719C39.0522 12.6633 39.3389 12.7206 39.5875 12.6166C39.8362 12.5133 39.9989 12.27 39.9989 12.0006V2.00092C39.9989 1.63296 39.7009 1.3343 39.3322 1.3343H32.6658C32.2971 1.3343 31.9992 1.63296 31.9992 2.00092C31.9992 2.36888 32.2971 2.66754 32.6658 2.66754H38.6656V10.3907L28.4745 0.196283C28.2245 -0.0537093 27.7779 -0.0537093 27.5279 0.196283L17.3329 10.3913V2.66754H20.6661C21.0348 2.66754 21.3328 2.36888 21.3328 2.00092V1.3343H22.6661V2.00092C22.6661 2.36888 22.964 2.66754 23.3327 2.66754C23.7014 2.66754 23.9993 2.36888 23.9993 2.00092V0.667598C23.9993 0.29964 23.7014 0.000976562 23.3327 0.000976562H20.6661C20.2975 0.000976562 19.9995 0.29964 19.9995 0.667598V1.33422H16.6663C16.2976 1.33422 15.9996 1.63288 15.9996 2.00084V12.0005C15.9996 12.2699 16.1616 12.5133 16.4109 12.6165Z" fill="#898FC5"/>
<path d="M33.999 18.6669C34.3677 18.6669 34.6656 18.3683 34.6656 18.0003V12.6671C34.6656 12.2992 34.3677 12.0005 33.999 12.0005H29.9991C29.6305 12.0005 29.3325 12.2992 29.3325 12.6671V18.0003C29.3325 18.3683 29.6305 18.6669 29.9991 18.6669H33.999ZM30.6658 13.3337H33.3323V17.3336H30.6658V13.3337Z" fill="#898FC5"/>
<path d="M3.33332 35.6665C3.33332 35.1152 2.88466 34.6665 2.33334 34.6665C1.78203 34.6665 1.33337 35.1152 1.33337 35.6665C1.33337 36.2178 1.78203 36.6664 2.33334 36.6664C2.88466 36.6664 3.33332 36.2178 3.33332 35.6665Z" fill="#898FC5"/>
<path d="M39.6415 28.0002C38.9062 26.7262 37.2695 26.2902 36.0409 27.0022L28.3678 30.7368C27.1751 31.3334 25.9712 31.3334 23.3326 31.3334C20.7534 31.3334 16.8154 30.6821 16.7754 30.6761C16.4128 30.6161 16.0688 30.8608 16.0088 31.2234C15.9481 31.5868 16.1935 31.9307 16.5568 31.9907C16.7221 32.0187 20.642 32.6667 23.3326 32.6667C26.1005 32.6667 27.4898 32.6667 28.9577 31.9328L36.6655 28.1789C36.9734 28.0009 37.3321 27.9536 37.6775 28.0455C38.0208 28.1382 38.3088 28.3589 38.4861 28.6668C38.6648 28.9755 38.7121 29.3348 38.6201 29.6789C38.5281 30.0229 38.3075 30.3102 37.9801 30.4995L28.9664 36.1094C28.9477 36.122 27.0244 37.3333 22.666 37.3333C18.8868 37.3333 13.0483 34.1161 12.9642 34.0701C12.9035 34.0408 11.4582 33.3334 8.66638 33.3334C8.29772 33.3334 7.99976 33.6321 7.99976 34.0001C7.99976 34.368 8.29772 34.6667 8.66638 34.6667C11.091 34.6667 12.3403 35.25 12.3429 35.25V35.2493C12.5949 35.3893 18.5407 38.6666 22.666 38.6666C27.4792 38.6666 29.6137 37.28 29.6844 37.2326L38.6655 31.6428C39.2821 31.2868 39.7234 30.7115 39.9075 30.0242C40.0928 29.3354 39.9975 28.6168 39.6415 28.0002Z" fill="#898FC5"/>
<path d="M8.66638 25.3333H13.9996C14.7775 25.3333 16.0995 26.3253 17.2661 27.1999C18.7287 28.2972 20.1107 29.3332 21.3326 29.3332H25.3325C26.3452 29.3332 26.8478 29.7925 26.8612 29.8045C26.9912 29.9345 27.1619 29.9998 27.3325 29.9998C27.5032 29.9998 27.6738 29.9345 27.8038 29.8045C28.0644 29.5438 28.0644 29.1225 27.8038 28.8619C27.7158 28.7739 26.8972 27.9999 25.3325 27.9999H21.3326C20.5547 27.9999 19.2327 27.0079 18.0661 26.1333C16.6035 25.036 15.2215 24 13.9996 24H8.66638C8.29772 24 7.99976 24.2987 7.99976 24.6666C7.99976 25.0346 8.29772 25.3333 8.66638 25.3333Z" fill="#898FC5"/>
<path d="M4.6665 21.3335H0.666621C0.29796 21.3335 0 21.6322 0 22.0001C0 22.3681 0.29796 22.6667 0.666621 22.6667H4.6665C5.03446 22.6667 5.33313 22.966 5.33313 23.3334V37.9996C5.33313 38.3669 5.03446 38.6662 4.6665 38.6662H0.666621C0.29796 38.6662 0 38.9649 0 39.3328C0 39.7008 0.29796 39.9994 0.666621 39.9994H4.6665C5.76913 39.9994 6.66645 39.1021 6.66645 37.9995V23.3334C6.66645 22.2308 5.76913 21.3335 4.6665 21.3335Z" fill="#898FC5"/>
</g>
<defs>
<clipPath id="clip0_139_110">
<rect width="40" height="40" fill="white"/>
</clipPath>
</defs>
</svg>
