<svg width="45" height="45" viewBox="0 0 45 45" fill="none" xmlns="http://www.w3.org/2000/svg">
<path fill-rule="evenodd" clip-rule="evenodd" d="M22.3924 2.34375H22.6076C26.9358 2.34373 30.3278 2.34371 32.9743 2.69952C35.6832 3.06372 37.8207 3.82374 39.4985 5.50151C41.1763 7.17927 41.9363 9.31682 42.3005 12.0257C42.6563 14.6722 42.6563 18.0642 42.6562 22.3924V22.6076C42.6563 26.9358 42.6563 30.3278 42.3005 32.9743C41.9363 35.6832 41.1763 37.8207 39.4985 39.4985C37.8207 41.1763 35.6832 41.9363 32.9743 42.3005C30.3278 42.6563 26.9358 42.6563 22.6076 42.6562H22.3924C18.0642 42.6563 14.6722 42.6563 12.0257 42.3005C9.31682 41.9363 7.17927 41.1763 5.50151 39.4985C3.82374 37.8207 3.06372 35.6832 2.69952 32.9743C2.34371 30.3278 2.34373 26.9358 2.34375 22.6076V22.3924C2.34373 18.0642 2.34371 14.6722 2.69952 12.0257C3.06372 9.31682 3.82374 7.17927 5.50151 5.50151C7.17927 3.82374 9.31682 3.06372 12.0257 2.69952C14.6722 2.34371 18.0642 2.34373 22.3924 2.34375ZM12.4005 5.48695C10.0035 5.80921 8.55835 6.42214 7.49024 7.49024C6.42214 8.55835 5.80921 10.0035 5.48695 12.4005C5.15924 14.8379 5.15625 18.0408 5.15625 22.5C5.15625 26.9592 5.15924 30.1621 5.48695 32.5995C5.80921 34.9966 6.42214 36.4417 7.49024 37.5098C8.55835 38.5779 10.0035 39.1908 12.4005 39.5131C14.8379 39.8408 18.0408 39.8438 22.5 39.8438C26.9592 39.8438 30.1621 39.8408 32.5995 39.5131C34.9966 39.1908 36.4417 38.5779 37.5098 37.5098C38.5779 36.4417 39.1908 34.9966 39.5131 32.5995C39.8408 30.1621 39.8438 26.9592 39.8438 22.5C39.8438 18.0408 39.8408 14.8379 39.5131 12.4005C39.1908 10.0035 38.5779 8.55835 37.5098 7.49024C36.4417 6.42214 34.9966 5.80921 32.5995 5.48695C30.1621 5.15924 26.9592 5.15625 22.5 5.15625C18.0408 5.15625 14.8379 5.15924 12.4005 5.48695Z" fill="#E1A356"/>
<path fill-rule="evenodd" clip-rule="evenodd" d="M15 10.7812C15.7767 10.7812 16.4063 11.4108 16.4063 12.1875L16.4062 14.5312H18.75C19.5267 14.5312 20.1563 15.1608 20.1563 15.9375C20.1563 16.7141 19.5267 17.3437 18.75 17.3437H16.4062V19.6875C16.4062 20.4641 15.7767 21.0937 15 21.0937C14.2233 21.0937 13.5938 20.4641 13.5938 19.6875V17.3437H11.25C10.4734 17.3437 9.84375 16.7141 9.84375 15.9375C9.84375 15.1608 10.4734 14.5312 11.25 14.5312H13.5938L13.5938 12.1875C13.5938 11.4108 14.2234 10.7812 15 10.7812ZM24.8438 15.9375C24.8438 15.1608 25.4734 14.5312 26.25 14.5312H33.75C34.5266 14.5312 35.1562 15.1608 35.1562 15.9375C35.1562 16.7141 34.5266 17.3437 33.75 17.3437H26.25C25.4734 17.3437 24.8438 16.7141 24.8438 15.9375ZM24.8438 27.1875C24.8438 26.4108 25.4734 25.7812 26.25 25.7812H33.75C34.5266 25.7812 35.1562 26.4108 35.1562 27.1875C35.1562 27.9641 34.5266 28.5937 33.75 28.5937H26.25C25.4734 28.5937 24.8438 27.9641 24.8438 27.1875ZM11.1931 26.1931C11.7423 25.644 12.6327 25.644 13.1819 26.1931L15 28.0113L16.8181 26.1932C17.3673 25.644 18.2577 25.644 18.8069 26.1932C19.356 26.7423 19.356 27.6327 18.8069 28.1819L16.9887 30L18.8068 31.8181C19.356 32.3673 19.356 33.2577 18.8068 33.8068C18.2577 34.356 17.3673 34.356 16.8181 33.8068L15 31.9888L13.1819 33.8069C12.6327 34.356 11.7423 34.356 11.1932 33.8069C10.644 33.2577 10.644 32.3673 11.1932 31.8181L13.0113 30L11.1931 28.1819C10.644 27.6327 10.644 26.7423 11.1931 26.1931ZM24.8438 32.8125C24.8438 32.0358 25.4734 31.4062 26.25 31.4062H33.75C34.5266 31.4062 35.1562 32.0358 35.1562 32.8125C35.1562 33.5891 34.5266 34.2187 33.75 34.2187H26.25C25.4734 34.2187 24.8438 33.5891 24.8438 32.8125Z" fill="#E1A356"/>
</svg>
