<svg width="30" height="30" viewBox="0 0 30 30" fill="none" xmlns="http://www.w3.org/2000/svg">
<path d="M10 7.1875C9.4875 7.1875 9.0625 6.7625 9.0625 6.25V2.5C9.0625 1.9875 9.4875 1.5625 10 1.5625C10.5125 1.5625 10.9375 1.9875 10.9375 2.5V6.25C10.9375 6.7625 10.5125 7.1875 10 7.1875Z" fill="#898FC5"/>
<path d="M20 7.1875C19.4875 7.1875 19.0625 6.7625 19.0625 6.25V2.5C19.0625 1.9875 19.4875 1.5625 20 1.5625C20.5125 1.5625 20.9375 1.9875 20.9375 2.5V6.25C20.9375 6.7625 20.5125 7.1875 20 7.1875Z" fill="#898FC5"/>
<path d="M10.625 18.125C10.3 18.125 9.975 17.9875 9.7375 17.7625C9.5125 17.525 9.375 17.2125 9.375 16.875C9.375 16.7125 9.4125 16.55 9.475 16.4C9.5375 16.25 9.625 16.1125 9.7375 15.9875C10.2 15.525 11.0375 15.525 11.5125 15.9875C11.7375 16.225 11.875 16.55 11.875 16.875C11.875 16.95 11.8625 17.0375 11.85 17.125C11.8375 17.2 11.8125 17.275 11.775 17.35C11.75 17.425 11.7125 17.5 11.6625 17.575C11.6125 17.6375 11.5625 17.7 11.5125 17.7625C11.275 17.9875 10.95 18.125 10.625 18.125Z" fill="#898FC5"/>
<path d="M15 18.125C14.8375 18.125 14.675 18.0875 14.525 18.025C14.3625 17.9625 14.2375 17.875 14.1125 17.7625C13.8875 17.525 13.75 17.2125 13.75 16.875C13.75 16.7125 13.7875 16.55 13.85 16.4C13.9125 16.25 14 16.1125 14.1125 15.9875C14.2375 15.875 14.3625 15.7875 14.525 15.725C14.9875 15.5375 15.5375 15.6375 15.8875 15.9875C16.1125 16.225 16.25 16.55 16.25 16.875C16.25 16.95 16.2375 17.0375 16.225 17.125C16.2125 17.2 16.1875 17.275 16.15 17.35C16.125 17.425 16.0875 17.5 16.0375 17.575C16 17.6375 15.9375 17.7 15.8875 17.7625C15.65 17.9875 15.325 18.125 15 18.125Z" fill="#898FC5"/>
<path d="M10.625 22.5C10.4625 22.5 10.3 22.4625 10.15 22.4C9.9875 22.3375 9.85 22.25 9.7375 22.1375C9.625 22.025 9.5375 21.8875 9.475 21.725C9.4125 21.575 9.375 21.4125 9.375 21.25C9.375 21.0875 9.4125 20.925 9.475 20.775C9.5375 20.6125 9.625 20.475 9.7375 20.3625C9.85 20.25 9.9875 20.1625 10.15 20.1C10.45 19.975 10.8 19.9625 11.1 20.1C11.2625 20.1625 11.4 20.25 11.5125 20.3625C11.625 20.475 11.7125 20.6125 11.775 20.775C11.8375 20.925 11.875 21.0875 11.875 21.25C11.875 21.4125 11.8375 21.575 11.775 21.725C11.7125 21.8875 11.625 22.025 11.5125 22.1375C11.4 22.25 11.2625 22.3375 11.1 22.4C10.95 22.4625 10.7875 22.5 10.625 22.5Z" fill="#898FC5"/>
<path d="M25.625 12.2999H4.375C3.8625 12.2999 3.4375 11.8749 3.4375 11.3624C3.4375 10.8499 3.8625 10.4249 4.375 10.4249H25.625C26.1375 10.4249 26.5625 10.8499 26.5625 11.3624C26.5625 11.8749 26.1375 12.2999 25.625 12.2999Z" fill="#898FC5"/>
<path d="M22.5 29.6875C21.0375 29.6875 19.65 29.1625 18.5875 28.2C18.1375 27.825 17.7375 27.35 17.4125 26.8C16.8625 25.9 16.5625 24.8375 16.5625 23.75C16.5625 20.475 19.225 17.8125 22.5 17.8125C24.2 17.8125 25.825 18.55 26.95 19.825C27.9125 20.925 28.4375 22.3125 28.4375 23.75C28.4375 24.8375 28.1375 25.9 27.575 26.8125C26.525 28.5875 24.575 29.6875 22.5 29.6875ZM22.5 19.6875C20.2625 19.6875 18.4375 21.5125 18.4375 23.75C18.4375 24.4875 18.6375 25.2125 19.025 25.8375C19.2375 26.2125 19.5125 26.525 19.8125 26.7875C20.5625 27.4625 21.5 27.8125 22.5 27.8125C23.9375 27.8125 25.2375 27.075 25.975 25.85C26.3625 25.2125 26.5625 24.5 26.5625 23.75C26.5625 22.775 26.2 21.825 25.55 21.0625C24.775 20.1875 23.6625 19.6875 22.5 19.6875Z" fill="#898FC5"/>
<path d="M21.7873 25.9249C21.5498 25.9249 21.3124 25.8374 21.1249 25.6499L19.8874 24.4124C19.5249 24.0499 19.5249 23.4499 19.8874 23.0874C20.2499 22.7249 20.8499 22.7249 21.2124 23.0874L21.8123 23.6875L23.8124 21.8374C24.1874 21.4874 24.7874 21.5125 25.1374 21.8875C25.4873 22.2625 25.4623 22.8624 25.0873 23.2124L22.4249 25.675C22.2374 25.8375 22.0123 25.9249 21.7873 25.9249Z" fill="#898FC5"/>
<path d="M19.2125 28.4375H10C5.4375 28.4375 2.8125 25.8125 2.8125 21.25V10.625C2.8125 6.0625 5.4375 3.4375 10 3.4375H20C24.5625 3.4375 27.1875 6.0625 27.1875 10.625V20.45C27.1875 20.8375 26.95 21.1875 26.575 21.325C26.2125 21.4625 25.8 21.3625 25.5375 21.0625C24.7625 20.1875 23.65 19.6875 22.4875 19.6875C20.25 19.6875 18.425 21.5125 18.425 23.75C18.425 24.4875 18.625 25.2125 19.0125 25.8375C19.225 26.2125 19.5 26.525 19.8 26.7875C20.1 27.0375 20.2125 27.45 20.075 27.825C19.9625 28.1875 19.6125 28.4375 19.2125 28.4375ZM10 5.3125C6.425 5.3125 4.6875 7.05 4.6875 10.625V21.25C4.6875 24.825 6.425 26.5625 10 26.5625H17.275C16.8125 25.7125 16.5625 24.75 16.5625 23.75C16.5625 20.475 19.225 17.8125 22.5 17.8125C23.4875 17.8125 24.4625 18.0625 25.3125 18.525V10.625C25.3125 7.05 23.575 5.3125 20 5.3125H10Z" fill="#898FC5"/>
</svg>
