<svg width="40" height="40" viewBox="0 0 40 40" fill="none" xmlns="http://www.w3.org/2000/svg">
<path d="M38 33.2C34.0211 31.09 30.9691 29.9069 28.2522 29.4533L28.5333 29.0667C28.6667 28.9333 28.7333 28.7333 28.6667 28.5333L28.0419 26.0343C29.6943 23.6984 30.6667 20.778 30.6667 18V15.3333H31.3333H32.6667C33.0666 15.3333 33.3333 15.0667 33.3333 14.6667C33.3333 14.2667 33.0666 14.0001 32.6667 14.0001H32V13.3334C32 8.06678 28.5333 3.60012 23.3333 2.13341V1.99998C23.3333 0.933269 22.4667 0 21.3333 0H18.6667C17.6 0 16.6667 0.86663 16.6667 1.99998V2.13333C11.4667 3.60004 7.99998 8.0667 7.99998 13.3334V14H7.33335C6.93336 14 6.66672 14.2666 6.66672 14.6666C6.66672 15.0666 6.93336 15.3333 7.33335 15.3333H8.6667H9.33333V17.9999C9.33333 20.7779 10.3057 23.6983 11.9581 26.0343L11.3333 28.5333C11.3333 28.6667 11.3333 28.9333 11.4667 29.0667L11.7478 29.4533C9.03095 29.907 5.97888 31.09 1.99998 33.2C0.733351 33.8001 0 35.0667 0 36.4667V39.3334C0 39.7334 0.266637 40 0.666632 40H16.6667H16.9333H23.0667H23.3333H39.3334C39.7334 40 40 39.7334 40 39.3334V36.4667C40.0001 35.1333 39.2 33.8667 38 33.2ZM19.6002 32.5829L20.0038 31.6749L21.0002 33.8671L21.6519 35.3333H18.4001L19.6002 32.5829ZM17.8934 36.6667H22.1016L22.4826 38.6667H17.4934L17.8934 36.6667ZM27 27.3334L27.2666 28.5333L26.5856 29.4684C26.5422 29.5039 26.502 29.547 26.4666 29.6L23.6937 33.4395L22.8138 34.6476L21.0165 30.6038C23.1649 30.3417 25.0826 29.2633 26.6315 27.7134C26.6487 27.6964 26.6659 27.6796 26.683 27.6624C26.6871 27.6582 26.6913 27.654 26.6954 27.6498C26.7981 27.5468 26.8997 27.4415 27 27.3334ZM26.1315 4.87595C26.2055 4.9252 26.2789 4.97524 26.3515 5.02623C27.2013 5.6595 27.9857 6.40135 28.6001 7.19999L25.5334 7.79999L26.1315 4.87595ZM14.4667 7.79999L11.4 7.19999C12.0144 6.40127 12.7989 5.65942 13.6487 5.02615C13.7212 4.97524 13.7946 4.9252 13.8686 4.87595L14.4667 7.79999ZM9.33333 13.3334C9.33333 11.5594 9.77995 9.88575 10.5883 8.42317L15.2001 9.33341C15.2667 9.33341 15.2667 9.33341 15.3334 9.33341C15.5334 9.33341 15.6668 9.26677 15.8668 9.20005C16.0668 9.06669 16.1334 8.80005 16.0668 8.60006L15.1515 4.14578C15.6336 3.91385 16.1394 3.71465 16.6668 3.55087V5.33338C16.6668 5.73337 16.9334 6.00001 17.3334 6.00001C17.7334 6.00001 18 5.73337 18 5.33338V2.66669V1.99998C18 1.66662 18.2667 1.33334 18.6667 1.33334H21.3333C21.6667 1.33334 22 1.59998 22 1.99998V2.66661V5.3333C22 5.73329 22.2666 5.99993 22.6666 5.99993C23.0666 5.99993 23.3332 5.73329 23.3332 5.3333V3.55087C23.8781 3.72005 24.4003 3.92688 24.8968 4.16874L24 8.53342C24 8.73341 24.0666 9.00005 24.2 9.13341C24.3333 9.26677 24.4666 9.33341 24.6666 9.33341C24.7332 9.33341 24.7332 9.33341 24.7999 9.33341L29.3819 8.36876C30.2092 9.8442 30.6666 11.5374 30.6666 13.3334V14H30H10H9.33341L9.33333 13.3334ZM10.6667 15.3333H29.3333V18C29.3333 20.907 28.3361 23.4902 26.8389 25.4537L26.8 25.4667C26.7334 25.5333 26.6666 25.6 26.6 25.6667C26.2646 26.1139 25.9106 26.5217 25.5407 26.8894C23.971 28.3518 22.0986 29.2375 20.2945 29.3253C20.2037 29.2863 20.1019 29.2667 20 29.2667C19.8975 29.2667 19.8052 29.2868 19.7223 29.3262C18.618 29.2755 17.4877 28.9255 16.4163 28.3267C15.331 27.7031 14.3099 26.8041 13.3999 25.6667C13.3333 25.6 13.2666 25.5333 13.1999 25.4667L13.161 25.4537C11.6638 23.4901 10.6666 20.9069 10.6666 18L10.6667 15.3333ZM18.9835 30.6039L17.1862 34.6478L16.3063 33.4396L13.5334 29.6001C13.5122 29.5789 13.4886 29.5579 13.4643 29.5371L12.7334 28.5334L13 27.3334C13.0904 27.4307 13.1821 27.5256 13.2746 27.6189C14.8396 29.2194 16.7915 30.3366 18.9835 30.6039ZM1.33334 36.4667C1.33334 35.6001 1.79998 34.8 2.60005 34.4C6.84948 32.1424 9.90854 31.0094 12.6335 30.671L16.6119 36.1411L16.1068 38.6666H1.33334V36.4667ZM38.6667 38.6667H23.8934L23.3883 36.1413L27.4097 30.6119C30.1251 31.0216 33.2389 32.1538 37.4 34.3334C38.2 34.8001 38.6667 35.6001 38.6667 36.4668V38.6667Z" fill="#E1A356"/>
</svg>
