<svg width="40" height="40" viewBox="0 0 40 40" fill="none" xmlns="http://www.w3.org/2000/svg">
<g clip-path="url(#clip0_139_312)">
<path d="M38.5133 22.905C39.4766 24.1583 40 25.68 40 27.2667C40 30.105 38.2816 32.7033 35.685 33.84C33.9966 37.7033 30.65 39.9983 26.6666 39.9983V38.3317C30.1766 38.3567 33.13 36.0817 34.4133 32.5467C36.74 31.8067 38.345 29.7067 38.3333 27.265C38.3716 25.5367 37.4566 23.9883 36.2016 22.8367C37.6083 21.765 38.435 20.0767 38.4233 18.2633C38.4833 16.1133 37.045 14.3467 34.7883 13.22V10.9133C34.7816 7.99333 31.7716 7.03 29.3366 7.205C29.6533 4.47167 27.7433 1.655 25.0816 1.665C23.1333 1.73 20.9916 2.76333 20.8316 4.99833V13.3317H19.165V5C19.165 3.035 17.0166 1.66667 15.0883 1.66667C12.4316 1.63333 10.5216 4.46167 10.84 7.20667C7.03997 6.69333 4.67663 9.53333 5.3883 13.22C3.1333 14.3483 1.69497 16.1133 1.75497 18.2633C1.7383 19.9933 2.5533 21.7683 3.9783 22.835C2.72163 23.9867 1.80497 25.5367 1.8433 27.265C1.82997 29.7067 3.43663 31.8067 5.7633 32.5467C6.66997 34.8383 8.5533 38.2633 13.3316 38.3317V39.9983C9.39663 39.9983 6.19163 37.7583 4.49163 33.84C1.89663 32.7017 0.176632 30.105 0.176632 27.2667C0.176632 25.6767 0.701632 24.1517 1.66997 22.8967C0.613299 21.4817 0.0899658 19.91 0.0899658 18.265C0.0899658 15.7683 1.31163 13.7483 3.7233 12.2583V10.915C3.7233 8.03 5.99163 5.87833 9.22163 5.57667C9.59997 2.48333 12.1333 0 15.09 0C16.9783 0 18.9333 0.945 20.005 2.48167C21.1133 0.903333 23.2233 0.0583333 25.0966 0C28.0483 0.025 30.5766 2.505 30.9566 5.57667C34.1866 5.87667 36.4566 8.03 36.4566 10.915V12.2583C38.8683 13.75 40.0916 15.7667 40.0916 18.265C40.0916 19.94 39.5483 21.5383 38.5166 22.905H38.5133ZM29.1666 25.8333C29.1666 29.1067 27.385 32.1467 24.5133 33.7717C23.785 34.1817 23.3333 35.0217 23.3333 35.9617V40H16.6666V35.9967C16.6666 35.0383 16.2066 34.18 15.4666 33.7583C12.01 31.7933 10.2583 27.9833 11.0033 24.0517C11.675 20.5033 14.4916 17.6217 18.0116 16.8767C20.785 16.2917 23.61 16.96 25.77 18.71C27.9283 20.4617 29.1666 23.0567 29.1666 25.8333ZM21.6666 35.9617C21.6666 35.6317 21.7183 35.3117 21.7883 35H18.2083C18.2816 35.3233 18.3333 35.6533 18.3333 35.9967V38.3333H21.6666V35.9617ZM27.5 25.8333C27.5 23.5617 26.4866 21.4367 24.72 20.005C22.9533 18.5733 20.635 18.0283 18.3566 18.5083C15.4866 19.1133 13.1883 21.4667 12.64 24.3617C12.03 27.585 13.4616 30.705 16.29 32.3117C16.78 32.5917 17.1716 32.9983 17.5 33.4567V33.3367H19.1666V28.2183C17.7333 27.845 16.6666 26.5517 16.6666 25.0033H18.3333C18.3333 25.9233 19.0816 26.67 20 26.67C20.9183 26.67 21.6666 25.9233 21.6666 25.0033H23.3333C23.3333 26.5517 22.2666 27.845 20.8333 28.2183V33.3367H22.5V33.4417C22.825 32.9933 23.21 32.595 23.6933 32.3233C26.0416 30.995 27.5 28.51 27.5 25.8367V25.8333Z" fill="#E1A356"/>
</g>
<defs>
<clipPath id="clip0_139_312">
<rect width="40" height="40" fill="white"/>
</clipPath>
</defs>
</svg>
