<svg width="30" height="30" viewBox="0 0 30 30" fill="none" xmlns="http://www.w3.org/2000/svg">
<path fill-rule="evenodd" clip-rule="evenodd" d="M15.3125 3.54271C14.737 3.44492 13.9525 3.4375 12.5372 3.4375C10.1414 3.4375 8.43843 3.43948 7.14731 3.61228C5.88245 3.78156 5.15566 4.0991 4.62738 4.62738C4.09837 5.15639 3.78128 5.88095 3.6122 7.13856C3.43949 8.42314 3.4375 10.1165 3.4375 12.5V17.5C3.4375 19.8835 3.43949 21.5769 3.6122 22.8614C3.78128 24.1191 4.09837 24.8436 4.62738 25.3726C5.15639 25.9016 5.88095 26.2187 7.13856 26.3878C8.42314 26.5605 10.1165 26.5625 12.5 26.5625H17.5C19.8835 26.5625 21.5769 26.5605 22.8614 26.3878C24.1191 26.2187 24.8436 25.9016 25.3726 25.3726C25.9016 24.8436 26.2187 24.1191 26.3878 22.8614C26.5605 21.5769 26.5625 19.8835 26.5625 17.5V16.9536C26.5625 15.0336 26.549 14.1234 26.3452 13.4375H22.4329C21.0168 13.4375 19.8597 13.4376 18.9461 13.3147C17.9912 13.1863 17.1632 12.9085 16.5024 12.2476C15.8415 11.5868 15.5637 10.7588 15.4353 9.8039C15.3124 8.89032 15.3125 7.73315 15.3125 6.31711V3.54271ZM17.1875 4.51181V6.25C17.1875 7.74964 17.1895 8.78007 17.2936 9.55406C17.394 10.3011 17.5738 10.6674 17.8282 10.9218C18.0826 11.1762 18.4489 11.356 19.1959 11.4565C19.9699 11.5605 21.0004 11.5625 22.5 11.5625H25.0243C24.6538 11.2031 24.179 10.7724 23.5625 10.2175L18.614 5.7639C18.0073 5.21785 17.5557 4.81478 17.1875 4.51181ZM12.7193 1.56247C14.4501 1.56201 15.5682 1.56171 16.5974 1.95663C17.6265 2.35155 18.454 3.09662 19.7341 4.24938C19.7783 4.28917 19.823 4.32945 19.8683 4.37022L24.8168 8.82384C24.8695 8.87125 24.9215 8.91806 24.9729 8.96431C26.4525 10.2951 27.4093 11.1557 27.9239 12.3112C28.4385 13.4668 28.4382 14.7536 28.4375 16.7436C28.4375 16.8127 28.4375 16.8827 28.4375 16.9536V17.5705C28.4375 19.8677 28.4375 21.6873 28.2461 23.1113C28.049 24.5768 27.6339 25.763 26.6984 26.6985C25.763 27.6339 24.5768 28.049 23.1113 28.2461C21.6873 28.4375 19.8677 28.4375 17.5705 28.4375H12.4295C10.1323 28.4375 8.31274 28.4375 6.88872 28.2461C5.42319 28.049 4.23701 27.6339 3.30155 26.6985C2.3661 25.763 1.95095 24.5768 1.75392 23.1113C1.56246 21.6873 1.56248 19.8677 1.5625 17.5705V12.4295C1.56248 10.1323 1.56246 8.31274 1.75392 6.88872C1.95095 5.4232 2.3661 4.23701 3.30155 3.30156C4.23774 2.36537 5.4279 1.95068 6.89859 1.75385C8.32854 1.56247 10.1571 1.56248 12.4669 1.5625L12.5372 1.5625C12.5987 1.5625 12.6594 1.56249 12.7193 1.56247Z" fill="#898FC5"/>
<path fill-rule="evenodd" clip-rule="evenodd" d="M13.1228 18.0493C13.5098 18.3933 13.5447 18.9859 13.2007 19.3728L9.86736 23.1228C9.68946 23.323 9.43445 23.4375 9.16667 23.4375C8.89888 23.4375 8.64388 23.323 8.46597 23.1228L6.7993 21.2478C6.45532 20.8609 6.49018 20.2683 6.87716 19.9243C7.26414 19.5803 7.85671 19.6152 8.2007 20.0022L9.16667 21.0889L11.7993 18.1272C12.1433 17.7402 12.7359 17.7053 13.1228 18.0493Z" fill="#898FC5"/>
</svg>
