<svg width="40" height="40" viewBox="0 0 40 40" fill="none" xmlns="http://www.w3.org/2000/svg">
<path fill-rule="evenodd" clip-rule="evenodd" d="M19.9044 2.08331C16.0571 2.08329 13.042 2.08328 10.6896 2.39956C8.28166 2.72329 6.38162 3.39886 4.89027 4.89021C3.39892 6.38156 2.72335 8.2816 2.39962 10.6895C2.08334 13.042 2.08335 16.057 2.08337 19.9043V20.0956C2.08335 23.9429 2.08334 26.958 2.39962 29.3105C2.72335 31.7184 3.39892 33.6184 4.89027 35.1098C6.38162 36.6011 8.28166 37.2767 10.6896 37.6004C13.042 37.9167 16.0571 37.9167 19.9044 37.9166H20.0957C23.943 37.9167 26.9581 37.9167 29.3105 37.6004C31.7184 37.2767 33.6185 36.6011 35.1098 35.1098C36.6012 33.6184 37.2767 31.7184 37.6005 29.3105C37.9167 26.958 37.9167 23.9429 37.9167 20.0956V19.9044C37.9167 16.057 37.9167 13.042 37.6005 10.6895C37.2767 8.2816 36.6012 6.38156 35.1098 4.89021C33.6185 3.39886 31.7184 2.72329 29.3105 2.39956C26.9581 2.08328 23.943 2.08329 20.0957 2.08331H19.9044ZM18.75 4.58377C15.4272 4.58728 12.9545 4.61754 11.0227 4.87726C8.892 5.16373 7.60746 5.70855 6.65804 6.65797C5.70861 7.6074 5.16379 8.89194 4.87733 11.0226C4.6176 12.9544 4.58734 15.4271 4.58383 18.75H11.523C10.938 18.0193 10.501 17.1575 10.2626 16.2042C9.36555 12.6158 12.6159 9.36549 16.2042 10.2626C17.1576 10.5009 18.0194 10.938 18.75 11.5229V4.58377ZM4.58383 21.25C4.58734 24.5728 4.6176 27.0455 4.87733 28.9774C5.16379 31.108 5.70861 32.3926 6.65804 33.342C7.60746 34.2914 8.892 34.8362 11.0227 35.1227C12.9545 35.3824 15.4272 35.4127 18.75 35.4162V23.5394C17.4506 26.1348 14.7668 27.9166 11.6667 27.9166C10.9764 27.9166 10.4167 27.357 10.4167 26.6666C10.4167 25.9763 10.9764 25.4166 11.6667 25.4166C14.228 25.4166 16.3741 23.6389 16.9384 21.25H16.7252L16.7098 21.25H4.58383ZM21.25 35.4162C24.5729 35.4127 27.0456 35.3824 28.9774 35.1227C31.1081 34.8362 32.3926 34.2914 33.342 33.342C34.2915 32.3926 34.8363 31.108 35.1228 28.9774C35.3825 27.0455 35.4127 24.5728 35.4162 21.25H23.2903L23.2749 21.25H23.0617C23.626 23.6389 25.7721 25.4166 28.3334 25.4166C29.0237 25.4166 29.5834 25.9763 29.5834 26.6666C29.5834 27.357 29.0237 27.9166 28.3334 27.9166C25.2333 27.9166 22.5494 26.1348 21.25 23.5394V35.4162ZM35.4162 18.75H28.4771C29.0621 18.0193 29.4991 17.1575 29.7375 16.2042C30.6346 12.6158 27.3842 9.36549 23.7958 10.2626C22.8425 10.5009 21.9807 10.938 21.25 11.5229V4.58377C24.5729 4.58728 27.0456 4.61754 28.9774 4.87726C31.1081 5.16373 32.3926 5.70855 33.342 6.65797C34.2915 7.6074 34.8363 8.89194 35.1228 11.0226C35.3825 12.9544 35.4127 15.4271 35.4162 18.75ZM21.2501 18.75L21.2501 16.7152C21.2546 14.8098 22.5529 13.1503 24.4022 12.6879C26.1596 12.2486 27.7515 13.8404 27.3121 15.5978C26.85 17.4465 25.1915 18.7445 23.287 18.75H21.2501ZM18.75 16.7125C18.7443 14.8082 17.4464 13.15 15.5979 12.6879C13.8405 12.2486 12.2486 13.8404 12.688 15.5978C13.1501 17.4465 14.8086 18.7445 16.7131 18.75H18.75V16.7125Z" fill="white"/>
</svg>
