<svg width="30" height="30" viewBox="0 0 30 30" fill="none" xmlns="http://www.w3.org/2000/svg">
<path fill-rule="evenodd" clip-rule="evenodd" d="M12.6943 4.05902C12.045 4.55435 11.2826 5.314 10.1789 6.41765C9.07528 7.5213 8.31564 8.28376 7.8203 8.93297C7.34147 9.56056 7.19878 9.97094 7.19878 10.3576C7.19878 10.7443 7.34147 11.1547 7.8203 11.7823C8.31564 12.4315 9.07528 13.1939 10.1789 14.2976L15.7024 19.8211C16.806 20.9247 17.5685 21.6844 18.2177 22.1797C18.8453 22.6585 19.2557 22.8012 19.6424 22.8012C20.0291 22.8012 20.4394 22.6585 21.067 22.1797C21.7162 21.6844 22.4787 20.9247 23.5824 19.8211C24.686 18.7174 25.4456 17.955 25.941 17.3057C26.4198 16.6782 26.5625 16.2678 26.5625 15.8811C26.5625 15.4944 26.4198 15.084 25.941 14.4564C25.4456 13.8072 24.686 13.0448 23.5824 11.9411L18.0589 6.41765C16.9552 5.314 16.1928 4.55435 15.5436 4.05902C14.916 3.58019 14.5056 3.4375 14.1189 3.4375C13.7322 3.4375 13.3218 3.58019 12.6943 4.05902ZM11.5569 2.56835C12.3513 1.96227 13.1574 1.5625 14.1189 1.5625C15.0804 1.5625 15.8865 1.96227 16.6809 2.56835C17.4421 3.14911 18.2927 3.99976 19.337 5.04413L19.6423 5.34944C19.9408 5.0522 20.2065 4.80117 20.4986 4.63249C21.3929 4.11618 22.4947 4.11618 23.389 4.63249C23.7218 4.82465 24.0203 5.12369 24.372 5.47616C24.397 5.50122 24.4223 5.52654 24.4479 5.55211C24.4735 5.57768 24.4988 5.60294 24.5238 5.62794C24.8763 5.97973 25.1753 6.27817 25.3675 6.61101C25.8838 7.50528 25.8838 8.60708 25.3675 9.50135C25.1988 9.79351 24.9478 10.0592 24.6506 10.3577L24.9559 10.663C26.0003 11.7073 26.8509 12.5579 27.4316 13.3191C28.0377 14.1135 28.4375 14.9196 28.4375 15.8811C28.4375 16.8426 28.0377 17.6487 27.4316 18.4431C26.8509 19.2043 26.0002 20.0549 24.9559 21.0992L24.8605 21.1946C23.8162 22.239 22.9655 23.0896 22.2044 23.6704C21.41 24.2764 20.6038 24.6762 19.6424 24.6762C18.6809 24.6762 17.8748 24.2764 17.0804 23.6704C16.3192 23.0896 15.4686 22.2389 14.4243 21.1946L14.1189 20.8892L7.87749 27.1306C7.85191 27.1562 7.82664 27.1815 7.80164 27.2066C7.44986 27.5591 7.15142 27.8581 6.81859 28.0503C5.92431 28.5666 4.82252 28.5666 3.92825 28.0503C3.59541 27.8581 3.29697 27.5591 2.94518 27.2066C2.92018 27.1815 2.89492 27.1562 2.86935 27.1306C2.84378 27.1051 2.81846 27.0798 2.79341 27.0548C2.44093 26.703 2.14189 26.4046 1.94973 26.0718C1.43342 25.1775 1.43342 24.0757 1.94973 23.1814C2.14189 22.8486 2.44092 22.5501 2.79339 22.1984C2.81845 22.1734 2.84377 22.1481 2.86935 22.1225L9.11077 15.8811L8.80539 15.5757C7.76103 14.5314 6.91039 13.6808 6.32963 12.9196C5.72355 12.1252 5.32378 11.3191 5.32378 10.3576C5.32378 9.39615 5.72355 8.59 6.32963 7.79563C6.9104 7.03445 7.76105 6.18383 8.80542 5.13951L8.90081 5.04412C9.94513 3.99976 10.7957 3.14911 11.5569 2.56835ZM10.4366 17.2069L4.19518 23.4483C3.72444 23.9191 3.62481 24.0301 3.57353 24.1189C3.39216 24.4331 3.39216 24.8201 3.57353 25.1343C3.62481 25.2231 3.72444 25.3341 4.19518 25.8048C4.66591 26.2756 4.77693 26.3752 4.86575 26.4265C5.1799 26.6078 5.56694 26.6078 5.88109 26.4265C5.96991 26.3752 6.08093 26.2756 6.55166 25.8048L12.7931 19.5634L10.4366 17.2069ZM23.3242 9.03131C23.624 8.72806 23.7008 8.63818 23.7437 8.56385C23.9251 8.2497 23.9251 7.86266 23.7437 7.54851C23.6924 7.45969 23.5928 7.34867 23.1221 6.87794C22.6513 6.4072 22.5403 6.30757 22.4515 6.25629C22.1373 6.07492 21.7503 6.07492 21.4361 6.25629C21.3618 6.29921 21.2719 6.37598 20.9687 6.6758L23.3242 9.03131Z" fill="#898FC5"/>
</svg>
