<svg width="40" height="40" viewBox="0 0 40 40" fill="none" xmlns="http://www.w3.org/2000/svg">
<g clip-path="url(#clip0_124_672)">
<path d="M37.9099 39.5676C37.7414 39.5676 37.5728 39.5034 37.4443 39.3749C37.1871 39.1176 37.1871 38.7011 37.4443 38.4441L37.7358 38.1526H7.67118L7.96267 38.4438C8.21992 38.7011 8.21992 39.1176 7.96267 39.3746C7.70567 39.6319 7.28858 39.6319 7.03185 39.3746L5.63286 37.9756C5.50226 37.845 5.43801 37.6733 5.44012 37.5019C5.44012 37.4993 5.44012 37.4964 5.44012 37.4938C5.44012 37.2673 5.5544 37.0677 5.72845 36.9492L7.06477 35.6132C7.32176 35.3559 7.73885 35.3559 7.99558 35.6132C8.25284 35.8704 8.25284 36.287 7.99558 36.544L7.70409 36.8355H37.769L37.4775 36.544C37.2203 36.2867 37.2203 35.8702 37.4775 35.6132C37.7345 35.3559 38.1516 35.3559 38.4083 35.6132L39.8073 37.0122C39.9382 37.1428 40.0022 37.3144 40.0001 37.4859C40.0001 37.4888 40.0001 37.4914 40.0001 37.494C40.0001 37.7205 39.8858 37.9201 39.7117 38.0386L38.3754 39.3746C38.2469 39.5034 38.0784 39.5676 37.9099 39.5676ZM2.07365 34.9925C1.8472 34.9925 1.64735 34.878 1.52912 34.7039L0.193065 33.3679C-0.0641923 33.1106 -0.0641923 32.6941 0.193065 32.4371C0.45006 32.1798 0.867149 32.1798 1.12388 32.4371L1.41537 32.7286V2.6634L1.12388 2.95489C0.866885 3.21214 0.449796 3.21214 0.193065 2.95489C-0.0641923 2.69763 -0.0641923 2.28107 0.193065 2.02407L1.59205 0.625086C1.72266 0.494483 1.89328 0.427864 2.06549 0.432341C2.29879 0.43787 2.49864 0.544512 2.61845 0.720932L3.9545 2.05699C4.21176 2.31424 4.21176 2.73081 3.9545 2.9878C3.69751 3.24506 3.28042 3.24506 3.02369 2.9878L2.7322 2.69631V32.7615L3.02369 32.47C3.28068 32.2127 3.69777 32.2127 3.9545 32.47C4.21176 32.7273 4.21176 33.1438 3.9545 33.4008L2.55552 34.7998C2.42491 34.9304 2.25165 34.9962 2.08208 34.9925C2.07918 34.9925 2.07655 34.9925 2.07365 34.9925ZM39.3418 33.1301H7.53004C7.1664 33.1301 6.87176 32.8355 6.87176 32.4718V1.09089C6.87176 0.727252 7.1664 0.432604 7.53004 0.432604H26.5397C26.9034 0.432604 27.198 0.727252 27.198 1.09089V13.8677H39.3415C39.7051 13.8677 39.9998 14.1623 39.9998 14.5259V32.4716C40.0001 32.8352 39.7054 33.1301 39.3418 33.1301ZM27.1698 31.8136H38.6835V15.1842H27.1698V31.8136ZM14.5592 31.8136H25.8535V22.9957H14.5592V31.8136ZM8.18833 31.8136H13.2424V22.9957H8.18833V31.8136ZM13.9009 21.6791H25.8535V14.5259C25.8535 14.4593 25.8635 14.3951 25.8817 14.3343V7.46019H8.18833V21.6791H13.9009ZM17.6792 6.14362H25.8817V1.74917H17.6792V6.14362ZM8.18833 6.14362H16.3624V1.74917H8.18833V6.14362Z" fill="#E1A356"/>
</g>
<defs>
<clipPath id="clip0_124_672">
<rect width="40" height="40" fill="white"/>
</clipPath>
</defs>
</svg>
