<svg width="15" height="15" viewBox="0 0 15 15" fill="none" xmlns="http://www.w3.org/2000/svg">
<path fill-rule="evenodd" clip-rule="evenodd" d="M2.03125 6.33956C2.03125 3.27767 4.47188 0.78125 7.5 0.78125C10.5281 0.78125 12.9688 3.27767 12.9688 6.33956C12.9688 7.81775 12.5475 9.40494 11.8028 10.7762C11.059 12.1457 9.97227 13.3358 8.61282 13.9712C7.9066 14.3013 7.0934 14.3013 6.38718 13.9712C5.02773 13.3358 3.94101 12.1457 3.19722 10.7762C2.45252 9.40494 2.03125 7.81775 2.03125 6.33956ZM7.5 1.71875C5.00527 1.71875 2.96875 3.77968 2.96875 6.33956C2.96875 7.65023 3.3454 9.08463 4.02107 10.3287C4.69765 11.5745 5.65376 12.5935 6.78415 13.1219C7.23878 13.3344 7.76122 13.3344 8.21585 13.1219C9.34624 12.5935 10.3024 11.5745 10.9789 10.3287C11.6546 9.08463 12.0312 7.65023 12.0312 6.33956C12.0312 3.77968 9.99473 1.71875 7.5 1.71875ZM7.5 4.84375C6.72335 4.84375 6.09375 5.47335 6.09375 6.25C6.09375 7.02665 6.72335 7.65625 7.5 7.65625C8.27665 7.65625 8.90625 7.02665 8.90625 6.25C8.90625 5.47335 8.27665 4.84375 7.5 4.84375ZM5.15625 6.25C5.15625 4.95558 6.20558 3.90625 7.5 3.90625C8.79442 3.90625 9.84375 4.95558 9.84375 6.25C9.84375 7.54442 8.79442 8.59375 7.5 8.59375C6.20558 8.59375 5.15625 7.54442 5.15625 6.25Z" fill="white" fill-opacity="0.7"/>
</svg>
