<svg width="30" height="30" viewBox="0 0 30 30" fill="none" xmlns="http://www.w3.org/2000/svg">
<path fill-rule="evenodd" clip-rule="evenodd" d="M9.07849 4.07339C9.22897 2.66192 10.4236 1.5625 11.875 1.5625H18.125C19.5764 1.5625 20.771 2.66192 20.9215 4.07339C21.8755 4.09281 22.7003 4.14215 23.4046 4.27151C24.3521 4.44555 25.1584 4.7771 25.8146 5.43326C26.567 6.18566 26.8906 7.133 27.0418 8.25814C27.1876 9.34185 27.1875 10.7198 27.1875 12.4292V20.0664C27.1875 21.7759 27.1876 23.1538 27.0418 24.2375C26.8906 25.3627 26.567 26.31 25.8146 27.0624C25.0622 27.8148 24.1148 28.1384 22.9897 28.2897C21.906 28.4354 20.5281 28.4354 18.8186 28.4353H11.1814C9.47193 28.4354 8.09402 28.4354 7.01031 28.2897C5.88518 28.1384 4.93783 27.8148 4.18544 27.0624C3.43304 26.31 3.10943 25.3627 2.95816 24.2375C2.81245 23.1538 2.81247 21.7759 2.8125 20.0664V12.4292C2.81247 10.7197 2.81245 9.34185 2.95816 8.25814C3.10943 7.133 3.43304 6.18566 4.18544 5.43326C4.8416 4.7771 5.64794 4.44555 6.59544 4.27151C7.29971 4.14215 8.12454 4.09281 9.07849 4.07339ZM9.08095 5.94891C8.18335 5.96809 7.49165 6.01326 6.93419 6.11566C6.22567 6.2458 5.81558 6.45477 5.51126 6.75909C5.16531 7.10504 4.93975 7.59076 4.81644 8.50798C4.68949 9.45217 4.6875 10.7036 4.6875 12.4978V19.9978C4.6875 21.7921 4.68949 23.0435 4.81644 23.9877C4.93975 24.9049 5.16531 25.3906 5.51126 25.7366C5.85722 26.0825 6.34293 26.3081 7.26015 26.4314C8.20434 26.5583 9.45573 26.5603 11.25 26.5603H18.75C20.5443 26.5603 21.7957 26.5583 22.7399 26.4314C23.6571 26.3081 24.1428 26.0825 24.4887 25.7366C24.8347 25.3906 25.0603 24.9049 25.1836 23.9877C25.3105 23.0435 25.3125 21.7921 25.3125 19.9978V12.4978C25.3125 10.7036 25.3105 9.45217 25.1836 8.50798C25.0603 7.59076 24.8347 7.10504 24.4887 6.75909C24.1844 6.45477 23.7743 6.2458 23.0658 6.11566C22.5084 6.01326 21.8167 5.96809 20.9191 5.94891C20.7584 7.34965 19.5688 8.4375 18.125 8.4375H11.875C10.4312 8.4375 9.24158 7.34965 9.08095 5.94891ZM11.875 3.4375C11.3572 3.4375 10.9375 3.85723 10.9375 4.375V5.625C10.9375 6.14277 11.3572 6.5625 11.875 6.5625H18.125C18.6428 6.5625 19.0625 6.14277 19.0625 5.625V4.375C19.0625 3.85723 18.6428 3.4375 18.125 3.4375H11.875ZM19.4354 13.1103C19.7886 13.4888 19.7682 14.0821 19.3897 14.4354L14.0325 19.4354C13.6723 19.7715 13.1134 19.7715 12.7532 19.4354L10.6103 17.4354C10.2318 17.0821 10.2114 16.4888 10.5646 16.1103C10.9179 15.7318 11.5112 15.7114 11.8897 16.0646L13.3929 17.4676L18.1103 13.0646C18.4888 12.7114 19.0821 12.7318 19.4354 13.1103Z" fill="#898FC5"/>
</svg>
