<svg width="150" height="150" viewBox="0 0 150 150" fill="none" xmlns="http://www.w3.org/2000/svg">
<path d="M100.19 62.6896C102.02 60.859 102.02 57.891 100.19 56.0604C98.359 54.2299 95.391 54.2299 93.5604 56.0604L65.625 83.9959L56.4396 74.8104C54.609 72.9799 51.641 72.9799 49.8104 74.8104C47.9799 76.641 47.9799 79.609 49.8104 81.4396L62.3104 93.9396C64.141 95.7701 67.109 95.7701 68.9396 93.9396L100.19 62.6896Z" fill="#E1A356"/>
<path fill-rule="evenodd" clip-rule="evenodd" d="M75 7.8125C37.8934 7.8125 7.8125 37.8934 7.8125 75C7.8125 112.107 37.8934 142.188 75 142.188C112.107 142.188 142.188 112.107 142.188 75C142.188 37.8934 112.107 7.8125 75 7.8125ZM17.1875 75C17.1875 43.071 43.071 17.1875 75 17.1875C106.929 17.1875 132.812 43.071 132.812 75C132.812 106.929 106.929 132.812 75 132.812C43.071 132.812 17.1875 106.929 17.1875 75Z" fill="#E1A356"/>
</svg>
