<svg width="40" height="40" viewBox="0 0 40 40" fill="none" xmlns="http://www.w3.org/2000/svg">
<path d="M39.4054 35.6147H12.9759C9.02002 35.6147 5.8017 32.3964 5.8017 28.4407V20.7717H5.76507C3.24573 20.7717 1.19596 18.7219 1.19596 16.2026V11.4449H0.548303C0.24542 11.4449 0 11.1994 0 10.8966C0 10.5937 0.24542 10.3483 0.548303 10.3483H2.98715V6.01776C2.98715 5.71488 3.23257 5.46946 3.53546 5.46946C3.83834 5.46946 4.08376 5.71488 4.08376 6.01776V10.3485H8.61625V6.01776C8.61625 5.71488 8.86167 5.46946 9.16455 5.46946C9.46743 5.46946 9.71285 5.71488 9.71285 6.01776V10.3485H12.1517C12.4546 10.3485 12.7 10.5939 12.7 10.8968C12.7 11.1997 12.4546 11.4451 12.1517 11.4451H11.504V16.2026C11.504 18.7219 9.45427 20.7717 6.93493 20.7717H6.89831V28.4407C6.89831 31.7919 9.62469 34.5181 12.9759 34.5181H39.4054C39.7083 34.5181 39.9537 34.7635 39.9537 35.0664C39.9537 35.3693 39.7083 35.6147 39.4054 35.6147ZM6.35 19.6751H6.93493C8.84961 19.6751 10.4074 18.1173 10.4074 16.2026V11.4449H2.29256V16.2024C2.29256 18.117 3.8504 19.6749 5.76507 19.6749L6.35 19.6751ZM36.8929 29.0223H18.4699C16.7566 29.0223 15.3628 27.6286 15.3628 25.9152V7.49225C15.3628 5.77892 16.7566 4.38513 18.4699 4.38513H36.8929C38.6062 4.38513 40 5.77892 40 7.49225V25.9152C40 27.6286 38.606 29.0223 36.8929 29.0223ZM18.4699 5.48196C17.3612 5.48196 16.4594 6.3838 16.4594 7.49247V25.9154C16.4594 27.0241 17.3612 27.926 18.4699 27.926H36.8929C38.0015 27.926 38.9034 27.0241 38.9034 25.9154V7.49247C38.9034 6.38402 38.0015 5.48196 36.8929 5.48196H18.4699ZM27.6814 24.1436C23.5792 24.1436 20.2418 20.8061 20.2418 16.704C20.2418 12.6018 23.5792 9.26415 27.6814 9.26415C31.7838 9.26415 35.1212 12.6016 35.1212 16.7037C35.1212 20.8059 31.7838 24.1436 27.6814 24.1436ZM27.6814 10.3608C24.1839 10.3608 21.3384 13.2062 21.3384 16.7037C21.3384 20.2013 24.1839 23.0467 27.6814 23.0467C31.1789 23.0467 34.0246 20.2013 34.0246 16.7037C34.0246 13.2062 31.1789 10.3608 27.6814 10.3608ZM31.4625 18.7158H29.7502C29.4474 18.7158 29.2019 18.4704 29.2019 18.1675V15.2402C29.2019 14.9373 29.4474 14.6919 29.7502 14.6919H31.4625C31.7654 14.6919 32.0108 14.9373 32.0108 15.2402V18.1675C32.0108 18.4704 31.7654 18.7158 31.4625 18.7158ZM30.2985 17.6192H30.9142V15.7885H30.2985V17.6192ZM25.6123 18.7158H23.9001C23.5972 18.7158 23.3518 18.4704 23.3518 18.1675V15.2402C23.3518 14.9373 23.5972 14.6919 23.9001 14.6919H25.6123C25.9152 14.6919 26.1606 14.9373 26.1606 15.2402V18.1675C26.1606 18.4704 25.9152 18.7158 25.6123 18.7158ZM24.4486 17.6192H25.0642V15.7885H24.4486V17.6192Z" fill="#E1A356"/>
</svg>
