<svg width="30" height="30" viewBox="0 0 30 30" fill="none" xmlns="http://www.w3.org/2000/svg">
<path d="M18.8243 13.1244C19.1692 12.7382 19.1356 12.1455 18.7494 11.8007C18.3632 11.4558 17.7705 11.4894 17.4257 11.8756L13.6607 16.0924L12.5743 14.8756C12.2295 14.4894 11.6368 14.4558 11.2506 14.8007C10.8644 15.1455 10.8308 15.7382 11.1757 16.1244L12.9614 18.1244C13.1393 18.3236 13.3937 18.4375 13.6607 18.4375C13.9278 18.4375 14.1822 18.3236 14.36 18.1244L18.8243 13.1244Z" fill="#898FC5"/>
<path fill-rule="evenodd" clip-rule="evenodd" d="M15 1.5625C13.8281 1.5625 12.7092 1.94573 10.9042 2.56389L9.99494 2.87517C8.14327 3.509 6.71425 3.99815 5.69129 4.41373C5.17598 4.62307 4.73296 4.82584 4.37623 5.03301C4.03293 5.23238 3.68853 5.48105 3.45454 5.81443C3.22326 6.14395 3.10367 6.54906 3.02852 6.93902C2.95039 7.34445 2.90328 7.83079 2.87287 8.3892C2.8125 9.49796 2.8125 11.0169 2.8125 12.987V14.9892C2.8125 22.6155 8.57253 26.2719 11.9979 27.7682L12.0318 27.783C12.4565 27.9686 12.8558 28.1431 13.3145 28.2605C13.7988 28.3845 14.3134 28.4375 15 28.4375C15.6866 28.4375 16.2012 28.3845 16.6855 28.2605C17.1442 28.1431 17.5434 27.9686 17.9682 27.783L18.0021 27.7682C21.4275 26.2719 27.1875 22.6155 27.1875 14.9892V12.9873C27.1875 11.017 27.1875 9.498 27.1271 8.3892C27.0967 7.83079 27.0496 7.34445 26.9715 6.93902C26.8963 6.54906 26.7767 6.14395 26.5455 5.81443C26.3115 5.48105 25.9671 5.23238 25.6238 5.03301C25.267 4.82584 24.824 4.62307 24.3087 4.41373C23.2857 3.99815 21.8567 3.509 20.0051 2.87517L19.0958 2.5639C17.2909 1.94573 16.1719 1.5625 15 1.5625ZM11.3508 4.39287C13.3689 3.70205 14.1778 3.4375 15 3.4375C15.8222 3.4375 16.6311 3.70205 18.6492 4.39287L19.3652 4.63797C21.256 5.28517 22.6349 5.75756 23.603 6.15086C24.0862 6.34717 24.4364 6.51168 24.6821 6.65441C24.8035 6.72488 24.8871 6.78302 24.9429 6.82841C24.9902 6.86686 25.0083 6.88865 25.0109 6.89185C25.0133 6.89575 25.0288 6.92171 25.0507 6.98317C25.0757 7.05331 25.1034 7.15386 25.1304 7.29382C25.1849 7.57712 25.2263 7.96627 25.2549 8.49115C25.3122 9.54264 25.3125 11.0104 25.3125 13.0208V14.9892C25.3125 21.4581 20.4751 24.6418 17.2515 26.05C16.7872 26.2528 16.519 26.3676 16.2205 26.4441C15.9354 26.517 15.5875 26.5625 15 26.5625C14.4125 26.5625 14.0646 26.517 13.7795 26.4441C13.481 26.3676 13.2128 26.2528 12.7485 26.05C9.52487 24.6418 4.6875 21.4581 4.6875 14.9892V13.0208C4.6875 11.0104 4.68784 9.54264 4.7451 8.49115C4.77368 7.96627 4.81505 7.57712 4.86964 7.29382C4.89662 7.15386 4.9243 7.05331 4.94929 6.98317C4.97116 6.92175 4.9867 6.89578 4.98911 6.89186C4.9917 6.88868 5.00975 6.86689 5.05709 6.82841C5.11292 6.78302 5.19653 6.72488 5.31786 6.65441C5.56363 6.51168 5.91375 6.34717 6.39699 6.15086C7.36512 5.75756 8.74401 5.28517 10.6348 4.63797L11.3508 4.39287Z" fill="#898FC5"/>
</svg>
