<svg width="40" height="40" viewBox="0 0 40 40" fill="none" xmlns="http://www.w3.org/2000/svg">
<g clip-path="url(#clip0_150_252)">
<path d="M15.8983 40C15.3473 40 14.8295 39.7856 14.4398 39.396L12.3575 37.3137C12.3568 37.3133 12.3564 37.3128 12.3559 37.3124L11.7815 36.7377C10.9774 35.9336 10.9774 34.6252 11.7815 33.8213L20.97 24.6328L20.5523 24.2148C20.3336 23.9963 20.3336 23.642 20.5523 23.4235C20.771 23.2048 21.1251 23.2048 21.3436 23.4235L22.6863 24.766L24.1483 23.3039C24.3671 23.0852 24.7212 23.0852 24.9397 23.3039L25.3706 23.7347L36.1756 12.9294C36.2475 12.8573 36.3343 12.809 36.4261 12.7846L38.0072 12.0918C38.3182 11.9556 38.6741 12.0226 38.9145 12.2628C39.1547 12.503 39.2217 12.8591 39.0856 13.1703L38.3925 14.7523C38.3679 14.8439 38.3195 14.9301 38.2479 15.0019L27.4429 25.8069L27.8738 26.2378C27.9788 26.3428 28.0377 26.485 28.0377 26.6336C28.0377 26.7823 27.9786 26.9244 27.8738 27.0294L26.4118 28.4917L27.7543 29.8344C27.973 30.0528 27.973 30.4072 27.7543 30.6257C27.5356 30.8444 27.1814 30.8444 26.9629 30.6257L26.545 30.2078L17.3565 39.3963C16.967 39.7853 16.4492 40 15.8983 40ZM15.0509 38.424L15.2314 38.6045C15.4096 38.7824 15.6464 38.8807 15.8983 38.8807C16.1501 38.8807 16.3869 38.7827 16.5651 38.6045L25.7536 29.416L22.2905 25.9531C22.2883 25.9509 22.2861 25.9486 22.284 25.9464L21.7616 25.4241L12.5731 34.6124C12.2053 34.9802 12.2053 35.5784 12.5731 35.9462L12.7535 36.1264L20.9203 27.9595C21.5538 27.3262 22.5845 27.326 23.218 27.9595C23.5249 28.2665 23.6939 28.6743 23.6939 29.1084C23.6939 29.5424 23.5249 29.9505 23.218 30.2572L15.0509 38.424ZM13.5446 36.9179L14.2594 37.6327L22.4262 29.4661C22.6232 29.2691 22.6232 28.9483 22.4262 28.7513C22.229 28.5543 21.9084 28.5543 21.7114 28.7513L13.5446 36.9179ZM23.4777 25.5571L25.62 27.6996L26.6867 26.6332L24.9751 24.9216C24.9739 24.9204 24.9726 24.9191 24.9715 24.918L24.5441 24.4906L23.4777 25.5571ZM26.3464 24.71L26.6515 25.0151L37.3701 14.2968L37.7516 13.426L36.8803 13.8076L26.162 24.526L26.3464 24.71ZM6.98486 30.5353C6.74265 30.5353 6.49864 30.5039 6.25956 30.4399L5.3451 30.195C5.15191 30.1433 5.00103 29.9924 4.94909 29.7992C4.8976 29.606 4.95267 29.4001 5.09393 29.2586L7.34953 27.003C7.60943 26.7429 7.7527 26.3952 7.7527 26.0238C7.7527 25.6525 7.60943 25.3048 7.34953 25.0447L6.335 24.0304C6.0751 23.7702 5.72723 23.627 5.35607 23.627C4.98469 23.627 4.63703 23.7702 4.37691 24.0301L2.12153 26.286C1.98028 26.4275 1.7741 26.4827 1.58091 26.4308C1.38795 26.3791 1.23706 26.2282 1.18513 26.035L0.940004 25.1206C0.680551 24.1517 0.959927 23.1092 1.66911 22.4L3.59049 20.4786C4.2999 19.7694 5.34219 19.4901 6.31105 19.7497L7.65555 20.1099L20.9548 6.8107L20.5946 5.4662C20.3349 4.49734 20.6143 3.45483 21.3237 2.74564L23.2449 0.824263C23.9543 0.115078 24.9963 -0.164298 25.9654 0.0951549L26.8801 0.34028C27.0731 0.391992 27.2239 0.542873 27.2759 0.736063C27.3274 0.929253 27.2723 1.1352 27.131 1.27668L24.8752 3.53228C24.6153 3.79241 24.472 4.14006 24.472 4.51144C24.472 4.88282 24.6153 5.23048 24.8752 5.49038L25.8895 6.50491C26.1496 6.76481 26.4973 6.90808 26.8687 6.90808C27.2401 6.90808 27.5877 6.76481 27.8478 6.50491L30.1034 4.2493C30.2447 4.10783 30.4513 4.05253 30.6441 4.10447C30.837 4.15618 30.9879 4.30706 31.0398 4.50025L31.2847 5.41471C31.5444 6.38335 31.265 7.42586 30.5556 8.13527L28.6345 10.0567C27.9253 10.7658 26.883 11.045 25.9139 10.7858L24.5694 10.4256L11.2702 23.7246L11.6304 25.0693C11.8901 26.0379 11.6107 27.0804 10.9013 27.7899L8.98012 29.7112C8.44622 30.2449 7.72315 30.5353 6.98486 30.5353ZM6.57117 29.3645C7.15007 29.5109 7.76703 29.3412 8.189 28.9194L10.1102 26.9981C10.5375 26.5705 10.7058 25.9423 10.5494 25.3587L10.1057 23.702C10.0542 23.5088 10.1093 23.3028 10.2505 23.1613L24.0066 9.40522C24.1479 9.26397 24.3543 9.2089 24.5473 9.26038L26.2038 9.7043C26.7867 9.861 27.4158 9.69243 27.8431 9.26509L29.7643 7.34371C30.1865 6.92151 30.356 6.30366 30.2093 5.7261L28.6392 7.29602C28.168 7.76747 27.5389 8.02715 26.8687 8.02715C26.1984 8.02715 25.5694 7.76747 25.0982 7.29602L24.0839 6.2815C23.6124 5.81027 23.3528 5.18145 23.3528 4.51099C23.3528 3.84054 23.6122 3.21172 24.0839 2.74049L25.654 1.17057C25.076 1.02395 24.4582 1.19341 24.0362 1.61538L22.115 3.53699C21.6877 3.96456 21.5193 4.5927 21.6758 5.17653L22.1195 6.83331C22.171 7.0265 22.1159 7.23245 21.9747 7.37393L8.21855 21.1301C8.0773 21.2715 7.8709 21.3266 7.67793 21.2749L6.02138 20.831C5.438 20.6743 4.8094 20.8428 4.38206 21.2702L2.46068 23.1916C2.0387 23.6135 1.86924 24.2314 2.01587 24.8092L3.58602 23.2393C4.05724 22.7678 4.68628 22.5081 5.35651 22.5081C6.02675 22.5081 6.65557 22.7678 7.12679 23.2393L8.14132 24.2536C8.61277 24.725 8.87244 25.3538 8.87244 26.0243C8.87244 26.6945 8.61299 27.3233 8.14132 27.7948L6.57117 29.3645Z" fill="#E1A356"/>
</g>
<defs>
<clipPath id="clip0_150_252">
<rect width="40" height="40" fill="white"/>
</clipPath>
</defs>
</svg>
