<svg width="40" height="40" viewBox="0 0 40 40" fill="none" xmlns="http://www.w3.org/2000/svg">
<path d="M29.5194 13.0581C29.8294 12.0938 30 11.0669 30 10C30 4.4775 25.5231 0 20 0C14.4769 0 10 4.4775 10 10C10 11.0669 10.1706 12.0938 10.4806 13.0581C6.56562 14.4137 3.75 18.1238 3.75 22.5C3.75 28.0225 8.22688 32.5 13.75 32.5C15.0781 32.5 16.3413 32.2313 17.5 31.76V39.375C17.5 39.7206 17.7794 40 18.125 40H21.875C22.2206 40 22.5 39.7206 22.5 39.375V31.76C23.6588 32.2313 24.9219 32.5 26.25 32.5C31.7731 32.5 36.25 28.0225 36.25 22.5C36.25 18.1238 33.4344 14.4137 29.5194 13.0581ZM21.25 38.75H18.75V31.1512C19.1875 30.8969 19.6069 30.6144 20 30.2994C20.3931 30.6144 20.8125 30.8969 21.25 31.1512V38.75ZM26.25 31.25C24.4294 31.25 22.7419 30.6906 21.3419 29.7388L25.4562 25.625H28.125C28.4706 25.625 28.75 25.3456 28.75 25C28.75 24.6544 28.4706 24.375 28.125 24.375H25.625V21.875C25.625 21.5294 25.3456 21.25 25 21.25C24.6544 21.25 24.375 21.5294 24.375 21.875V24.9362L20.625 28.6869V28.125V20.8838L22.9487 18.56C23.1931 18.3156 23.1938 17.92 22.9494 17.6756C22.705 17.4312 22.3006 17.4406 22.0563 17.685L20 19.7413L17.9175 17.6588C17.6731 17.4144 17.3337 17.4706 17.09 17.715C16.845 17.96 16.8181 18.3281 17.0625 18.5725L19.375 20.885V28.125V28.6862L15.625 24.9381V21.875C15.625 21.5294 15.3456 21.25 15 21.25C14.6544 21.25 14.375 21.5294 14.375 21.875V24.375H11.875C11.5294 24.375 11.25 24.6544 11.25 25C11.25 25.3456 11.5294 25.625 11.875 25.625H14.5438L18.6581 29.7388C17.2581 30.6906 15.5706 31.25 13.75 31.25C8.9175 31.25 5 27.3325 5 22.5C5 18.2056 8.095 14.6419 12.175 13.8988C11.5881 12.7238 11.25 11.4025 11.25 10C11.25 5.1675 15.1675 1.25 20 1.25C24.8325 1.25 28.75 5.1675 28.75 10C28.75 11.4025 28.4119 12.7238 27.825 13.8988C31.905 14.6419 35 18.2056 35 22.5C35 27.3325 31.0825 31.25 26.25 31.25Z" fill="#E1A356"/>
</svg>
