<svg width="30" height="30" viewBox="0 0 30 30" fill="none" xmlns="http://www.w3.org/2000/svg">
<path d="M20.35 27.6246H15.6C14.9 27.6246 13.375 27.4121 12.5625 26.5996L8.77495 23.6746L9.92495 22.1871L13.8 25.1871C14.1125 25.4871 14.9 25.7371 15.6 25.7371H20.35C21.475 25.7371 22.6875 24.8371 22.9375 23.8246L25.9625 14.6371C26.1625 14.0871 26.125 13.5871 25.8625 13.2246C25.5875 12.8371 25.0875 12.6121 24.475 12.6121H19.475C18.825 12.6121 18.225 12.3371 17.8125 11.8621C17.3875 11.3746 17.2 10.7246 17.3 10.0496L17.925 6.03712C18.075 5.33712 17.6 4.54962 16.925 4.32462C16.3125 4.09962 15.525 4.42462 15.25 4.82462L10.125 12.4496L8.57495 11.4121L13.7 3.78712C14.4875 2.61212 16.2125 2.04962 17.5625 2.56212C19.125 3.07462 20.125 4.79962 19.775 6.39962L19.1625 10.3371C19.15 10.4246 19.15 10.5496 19.2375 10.6496C19.3 10.7121 19.3875 10.7496 19.4875 10.7496H24.4875C25.7125 10.7496 26.775 11.2621 27.4 12.1496C28.0125 13.0121 28.1375 14.1496 27.7375 15.2496L24.75 24.3496C24.2874 26.1621 22.3625 27.6246 20.35 27.6246Z" fill="#898FC5"/>
<path d="M6.72498 26.25H5.47498C3.16248 26.25 2.03748 25.1625 2.03748 22.9375V10.6875C2.03748 8.4625 3.16248 7.375 5.47498 7.375H6.72498C9.03748 7.375 10.1625 8.4625 10.1625 10.6875V22.9375C10.1625 25.1625 9.03748 26.25 6.72498 26.25ZM5.47498 9.25C4.11248 9.25 3.91248 9.575 3.91248 10.6875V22.9375C3.91248 24.05 4.11248 24.375 5.47498 24.375H6.72498C8.08748 24.375 8.28748 24.05 8.28748 22.9375V10.6875C8.28748 9.575 8.08748 9.25 6.72498 9.25H5.47498Z" fill="#898FC5"/>
</svg>
