<svg width="30" height="30" viewBox="0 0 30 30" fill="none" xmlns="http://www.w3.org/2000/svg">
<path d="M16.1 26.0748H8.5125C4.075 26.0748 2.5 22.9623 2.5 20.0623V9.9373C2.5 5.6123 4.1875 3.9248 8.5125 3.9248H16.1C20.425 3.9248 22.1125 5.6123 22.1125 9.9373V20.0623C22.1125 24.3873 20.425 26.0748 16.1 26.0748ZM8.5125 5.8248C5.25 5.8248 4.4 6.6748 4.4 9.9373V20.0623C4.4 21.5998 4.9375 24.1748 8.5125 24.1748H16.1C19.3625 24.1748 20.2125 23.3248 20.2125 20.0623V9.9373C20.2125 6.6748 19.3625 5.8248 16.1 5.8248H8.5125Z" fill="#898FC5"/>
<path d="M25.9749 22.6376C25.4374 22.6376 24.7499 22.4626 23.9624 21.9126L20.6249 19.5751C20.3749 19.4001 20.2249 19.1126 20.2249 18.8001V11.2001C20.2249 10.8876 20.3749 10.6001 20.6249 10.4251L23.9624 8.08762C25.4499 7.05012 26.5374 7.35012 27.0499 7.61262C27.5624 7.88762 28.4374 8.60012 28.4374 10.4126V19.5751C28.4374 21.3876 27.5624 22.1126 27.0499 22.3751C26.8124 22.5126 26.4374 22.6376 25.9749 22.6376ZM22.1124 18.3001L25.0499 20.3501C25.6124 20.7376 26.0124 20.7751 26.1749 20.6876C26.3499 20.6001 26.5374 20.2501 26.5374 19.5751V10.4251C26.5374 9.73762 26.3374 9.40012 26.1749 9.31262C26.0124 9.22512 25.6124 9.26262 25.0499 9.65012L22.1124 11.7001V18.3001Z" fill="#898FC5"/>
<path d="M14.375 14.6875C12.825 14.6875 11.5625 13.425 11.5625 11.875C11.5625 10.325 12.825 9.0625 14.375 9.0625C15.925 9.0625 17.1875 10.325 17.1875 11.875C17.1875 13.425 15.925 14.6875 14.375 14.6875ZM14.375 10.9375C13.8625 10.9375 13.4375 11.3625 13.4375 11.875C13.4375 12.3875 13.8625 12.8125 14.375 12.8125C14.8875 12.8125 15.3125 12.3875 15.3125 11.875C15.3125 11.3625 14.8875 10.9375 14.375 10.9375Z" fill="#898FC5"/>
</svg>
