<svg width="30" height="30" viewBox="0 0 30 30" fill="none" xmlns="http://www.w3.org/2000/svg">
<path fill-rule="evenodd" clip-rule="evenodd" d="M15.3125 3.54277C14.737 3.44498 13.9525 3.43756 12.5372 3.43756C10.1414 3.43756 8.43843 3.43954 7.14731 3.61234C5.88245 3.78162 5.15566 4.09916 4.62738 4.62744C4.09837 5.15645 3.78128 5.88101 3.6122 7.13862C3.43949 8.4232 3.4375 10.1165 3.4375 12.5001V17.5001C3.4375 19.8836 3.43949 21.5769 3.6122 22.8615C3.78128 24.1191 4.09837 24.8437 4.62738 25.3727C5.15639 25.9017 5.88095 26.2188 7.13856 26.3879C8.42314 26.5606 10.1165 26.5626 12.5 26.5626H17.5C19.8835 26.5626 21.5769 26.5606 22.8614 26.3879C24.1191 26.2188 24.8436 25.9017 25.3726 25.3727C25.9016 24.8437 26.2187 24.1191 26.3878 22.8615C26.5605 21.5769 26.5625 19.8836 26.5625 17.5001V16.9537C26.5625 15.0337 26.549 14.1235 26.3452 13.4376H22.4329C21.0168 13.4376 19.8597 13.4376 18.9461 13.3148C17.9912 13.1864 17.1632 12.9086 16.5024 12.2477C15.8415 11.5868 15.5637 10.7589 15.4353 9.80396C15.3124 8.89038 15.3125 7.73322 15.3125 6.31717V3.54277ZM17.1875 4.51188V6.25006C17.1875 7.74971 17.1895 8.78013 17.2936 9.55412C17.394 10.3011 17.5738 10.6674 17.8282 10.9219C18.0826 11.1763 18.4489 11.3561 19.1959 11.4565C19.9699 11.5606 21.0004 11.5626 22.5 11.5626H25.0243C24.6538 11.2031 24.179 10.7725 23.5625 10.2176L18.614 5.76396C18.0073 5.21791 17.5557 4.81484 17.1875 4.51188ZM12.7193 1.56253C14.4501 1.56207 15.5682 1.56177 16.5974 1.95669C17.6265 2.35161 18.454 3.09668 19.7341 4.24944C19.7783 4.28923 19.823 4.32951 19.8683 4.37028L24.8168 8.82391C24.8695 8.87132 24.9215 8.91813 24.9729 8.96437C26.4525 10.2952 27.4093 11.1557 27.9239 12.3113C28.4385 13.4668 28.4382 14.7536 28.4375 16.7437C28.4375 16.8128 28.4375 16.8828 28.4375 16.9537V17.5706C28.4375 19.8678 28.4375 21.6873 28.2461 23.1113C28.049 24.5769 27.6339 25.7631 26.6984 26.6985C25.763 27.634 24.5768 28.0491 23.1113 28.2461C21.6873 28.4376 19.8677 28.4376 17.5705 28.4376H12.4295C10.1323 28.4376 8.31274 28.4376 6.88872 28.2461C5.42319 28.0491 4.23701 27.634 3.30155 26.6985C2.3661 25.7631 1.95095 24.5769 1.75392 23.1113C1.56246 21.6873 1.56248 19.8678 1.5625 17.5706V12.4295C1.56248 10.1323 1.56246 8.3128 1.75392 6.88878C1.95095 5.42326 2.3661 4.23707 3.30155 3.30162C4.23774 2.36543 5.4279 1.95074 6.89859 1.75391C8.32854 1.56253 10.1571 1.56254 12.4669 1.56256L12.5372 1.56256C12.5987 1.56256 12.6594 1.56255 12.7193 1.56253Z" fill="#898FC5"/>
<path fill-rule="evenodd" clip-rule="evenodd" d="M13.1228 18.0494C13.5098 18.3934 13.5447 18.9859 13.2007 19.3729L9.86736 23.1229C9.68946 23.323 9.43445 23.4376 9.16667 23.4376C8.89888 23.4376 8.64388 23.323 8.46597 23.1229L6.7993 21.2479C6.45532 20.8609 6.49018 20.2684 6.87716 19.9244C7.26414 19.5804 7.85671 19.6152 8.2007 20.0022L9.16667 21.0889L11.7993 18.1272C12.1433 17.7402 12.7359 17.7054 13.1228 18.0494Z" fill="#898FC5"/>
</svg>
