<svg width="24" height="24" viewBox="0 0 24 24" fill="none" xmlns="http://www.w3.org/2000/svg">
<path d="M7.53599 6.26401C7.36538 6.10503 7.13972 6.01849 6.90656 6.0226C6.6734 6.02672 6.45094 6.12117 6.28604 6.28606C6.12115 6.45096 6.02669 6.67342 6.02258 6.90658C6.01847 7.13975 6.10501 7.3654 6.26399 7.53601L10.728 12L6.26399 16.464C6.17556 16.5464 6.10464 16.6458 6.05545 16.7562C6.00626 16.8666 5.97981 16.9857 5.97768 17.1066C5.97555 17.2274 5.99778 17.3475 6.04304 17.4595C6.08831 17.5716 6.15568 17.6734 6.24114 17.7589C6.32661 17.8443 6.42841 17.9117 6.54047 17.957C6.65254 18.0022 6.77257 18.0245 6.89342 18.0223C7.01426 18.0202 7.13344 17.9937 7.24383 17.9445C7.35423 17.8954 7.45359 17.8244 7.53599 17.736L12 13.272L16.464 17.736C16.5464 17.8244 16.6457 17.8954 16.7561 17.9445C16.8665 17.9937 16.9857 18.0202 17.1066 18.0223C17.2274 18.0245 17.3474 18.0022 17.4595 17.957C17.5716 17.9117 17.6734 17.8443 17.7588 17.7589C17.8443 17.6734 17.9117 17.5716 17.9569 17.4595C18.0022 17.3475 18.0244 17.2274 18.0223 17.1066C18.0202 16.9857 17.9937 16.8666 17.9445 16.7562C17.8953 16.6458 17.8244 16.5464 17.736 16.464L13.272 12L17.736 7.53601C17.895 7.3654 17.9815 7.13975 17.9774 6.90658C17.9733 6.67342 17.8788 6.45096 17.7139 6.28606C17.549 6.12117 17.3266 6.02672 17.0934 6.0226C16.8603 6.01849 16.6346 6.10503 16.464 6.26401L12 10.728L7.53599 6.26401Z" fill="#D3D7DE"/>
</svg>
