<svg width="40" height="40" viewBox="0 0 40 40" fill="none" xmlns="http://www.w3.org/2000/svg">
<path d="M21.5425 5C23.2299 5.0045 24.0864 5.0135 24.8259 5.0345L25.1169 5.045C25.4529 5.057 25.7843 5.072 26.1848 5.09C27.7808 5.165 28.8698 5.41699 29.8253 5.78748C30.8152 6.16847 31.6492 6.68446 32.4832 7.51694C33.2462 8.26652 33.8364 9.17361 34.2126 10.1749C34.5831 11.1304 34.8351 12.2193 34.9101 13.8168C34.9281 14.2158 34.9431 14.5473 34.9551 14.8848L34.9641 15.1758C34.9866 15.9137 34.9956 16.7702 34.9986 18.4577L35.0001 19.5766V21.5416C35.0038 22.6357 34.9923 23.7298 34.9656 24.8235L34.9566 25.1145C34.9446 25.452 34.9296 25.7835 34.9116 26.1825C34.8366 27.7799 34.5816 28.8674 34.2126 29.8244C33.8364 30.8257 33.2462 31.7328 32.4832 32.4823C31.7336 33.2454 30.8265 33.8356 29.8253 34.2118C28.8698 34.5823 27.7808 34.8343 26.1848 34.9093L25.1169 34.9543L24.8259 34.9633C24.0864 34.9843 23.2299 34.9948 21.5425 34.9978L20.4235 34.9993H18.46C17.3654 35.0031 16.2709 34.9916 15.1766 34.9648L14.8856 34.9558C14.5295 34.9423 14.1735 34.9268 13.8176 34.9093C12.2217 34.8343 11.1327 34.5823 10.1757 34.2118C9.175 33.8354 8.26844 33.2452 7.51929 32.4823C6.75573 31.7329 6.16499 30.8258 5.78833 29.8244C5.41784 28.8689 5.16585 27.7799 5.09085 26.1825L5.04585 25.1145L5.03835 24.8235C5.0107 23.7298 4.9982 22.6357 5.00085 21.5416V18.4577C4.9967 17.3636 5.0077 16.2695 5.03385 15.1758L5.04435 14.8848C5.05635 14.5473 5.07135 14.2158 5.08935 13.8168C5.16435 12.2193 5.41634 11.1319 5.78683 10.1749C6.16437 9.1732 6.75615 8.26608 7.52079 7.51694C8.2695 6.75428 9.17553 6.16408 10.1757 5.78748C11.1327 5.41699 12.2202 5.165 13.8176 5.09C14.2166 5.072 14.5496 5.057 14.8856 5.045L15.1766 5.036C16.2704 5.00935 17.3644 4.99785 18.4585 5.0015L21.5425 5ZM20.0005 12.4998C18.0114 12.4998 16.1038 13.29 14.6973 14.6965C13.2908 16.103 12.5007 18.0106 12.5007 19.9996C12.5007 21.9887 13.2908 23.8963 14.6973 25.3028C16.1038 26.7093 18.0114 27.4995 20.0005 27.4995C21.9896 27.4995 23.8972 26.7093 25.3037 25.3028C26.7101 23.8963 27.5003 21.9887 27.5003 19.9996C27.5003 18.0106 26.7101 16.103 25.3037 14.6965C23.8972 13.29 21.9896 12.4998 20.0005 12.4998ZM20.0005 15.4997C20.5914 15.4996 21.1766 15.6159 21.7226 15.842C22.2686 16.068 22.7647 16.3994 23.1826 16.8172C23.6005 17.235 23.9321 17.731 24.1583 18.2769C24.3845 18.8228 24.501 19.408 24.5011 19.9989C24.5012 20.5898 24.3849 21.175 24.1589 21.721C23.9328 22.267 23.6015 22.7631 23.1837 23.181C22.7659 23.5989 22.2699 23.9305 21.724 24.1567C21.1781 24.3829 20.5929 24.4994 20.002 24.4995C18.8085 24.4995 17.664 24.0254 16.8201 23.1815C15.9762 22.3376 15.5021 21.1931 15.5021 19.9996C15.5021 18.8062 15.9762 17.6616 16.8201 16.8177C17.664 15.9738 18.8085 15.4997 20.002 15.4997M27.8768 10.2499C27.3795 10.2499 26.9026 10.4474 26.551 10.799C26.1994 11.1507 26.0018 11.6276 26.0018 12.1248C26.0018 12.6221 26.1994 13.099 26.551 13.4506C26.9026 13.8022 27.3795 13.9998 27.8768 13.9998C28.3741 13.9998 28.851 13.8022 29.2026 13.4506C29.5542 13.099 29.7518 12.6221 29.7518 12.1248C29.7518 11.6276 29.5542 11.1507 29.2026 10.799C28.851 10.4474 28.3741 10.2499 27.8768 10.2499Z" fill="#E1A356"/>
</svg>
