<svg width="40" height="40" viewBox="0 0 40 40" fill="none" xmlns="http://www.w3.org/2000/svg">
<path d="M20.4066 6.66699C21.2966 6.67199 23.5233 6.69366 25.8899 6.78866L26.7299 6.82533C29.1116 6.93699 31.4916 7.13033 32.6733 7.45866C34.2483 7.90199 35.4849 9.19199 35.9033 10.8287C36.5699 13.4287 36.6533 18.4987 36.6633 19.727L36.6649 19.9803V20.2703C36.6533 21.4987 36.5699 26.5703 35.9033 29.1687C35.4799 30.8103 34.2416 32.102 32.6733 32.5387C31.4916 32.867 29.1116 33.0603 26.7299 33.172L25.8899 33.2103C23.5233 33.3037 21.2966 33.327 20.4066 33.3303L20.0149 33.332H19.5899C17.7066 33.3203 9.82992 33.2353 7.32325 32.5387C5.74992 32.0953 4.51159 30.8053 4.09325 29.1687C3.42659 26.5687 3.34325 21.4987 3.33325 20.2703V19.727C3.34325 18.4987 3.42659 13.427 4.09325 10.8287C4.51659 9.18699 5.75492 7.89533 7.32492 7.46033C9.82992 6.76199 17.7083 6.67699 19.5916 6.66699H20.4066ZM16.6649 14.167V25.8337L26.6649 20.0003L16.6649 14.167Z" fill="#E1A356"/>
</svg>
