<svg width="99" height="12" viewBox="0 0 99 12" fill="none" xmlns="http://www.w3.org/2000/svg">
<path d="M0 7.97449H3.69289C3.73461 8.2398 3.86501 8.47449 4.08408 8.67857C4.31358 8.87245 4.62132 9.02551 5.0073 9.13775C5.39328 9.23979 5.84707 9.29082 6.36866 9.29082C7.08846 9.29082 7.64657 9.20918 8.04298 9.04592C8.44983 8.88265 8.65325 8.63265 8.65325 8.29592C8.65325 8.06122 8.5385 7.87245 8.309 7.72959C8.07949 7.57653 7.62571 7.47449 6.94763 7.42347L4.88212 7.2551C3.19216 7.13265 1.96641 6.77551 1.20488 6.18367C0.453787 5.58163 0.0782391 4.77551 0.0782391 3.76531C0.0782391 2.93877 0.323388 2.25 0.813687 1.69898C1.30399 1.13775 1.98727 0.714286 2.86355 0.428571C3.73983 0.142857 4.77259 0 5.96182 0C7.10933 0 8.12644 0.158163 9.01315 0.474489C9.91029 0.790816 10.6197 1.2398 11.1413 1.82143C11.6733 2.39286 11.9654 3.06122 12.0175 3.82653H8.32464C8.28292 3.60204 8.16295 3.40816 7.96474 3.2449C7.77697 3.07143 7.50574 2.93878 7.15106 2.84694C6.79637 2.7551 6.37388 2.70918 5.88358 2.70918C5.23681 2.70918 4.72043 2.78571 4.33445 2.93878C3.9589 3.09184 3.77113 3.32143 3.77113 3.62755C3.77113 3.85204 3.88066 4.03571 4.09973 4.17857C4.32923 4.32143 4.74651 4.41837 5.35156 4.46939L7.62049 4.65306C8.74713 4.73469 9.65471 4.90816 10.3432 5.17347C11.0421 5.42857 11.5481 5.78061 11.8611 6.22959C12.174 6.66837 12.3305 7.22449 12.3305 7.89796C12.3305 8.71429 12.0801 9.43367 11.5794 10.0561C11.0787 10.6684 10.3745 11.148 9.46693 11.4949C8.56979 11.8316 7.51617 12 6.30607 12C5.06468 12 3.97455 11.8316 3.03568 11.4949C2.09681 11.1582 1.36136 10.6888 0.829335 10.0867C0.297309 9.47449 0.0208638 8.77041 0 7.97449Z" fill="white"/>
<path d="M19.9106 0.260203C21.3189 0.260203 22.5499 0.5 23.6035 0.979592C24.6676 1.44898 25.4917 2.11225 26.0759 2.96939C26.6705 3.82653 26.9678 4.83673 26.9678 6C26.9678 7.15306 26.6705 8.16327 26.0759 9.03061C25.4917 9.88775 24.6676 10.5561 23.6035 11.0357C22.5499 11.5051 21.3189 11.7398 19.9106 11.7398H13.8706V0.260203H19.9106ZM17.4852 10.1939L15.8109 8.57143H20.1923C20.8286 8.57143 21.3763 8.46939 21.8353 8.26531C22.3048 8.05102 22.6647 7.75 22.915 7.36224C23.1654 6.97449 23.2906 6.52041 23.2906 6C23.2906 5.46939 23.1654 5.01531 22.915 4.63775C22.6647 4.25 22.3048 3.95408 21.8353 3.75C21.3763 3.53571 20.8286 3.42857 20.1923 3.42857H15.8109L17.4852 1.80612V10.1939Z" fill="white"/>
<path d="M31.8458 7.97449H35.5387C35.5804 8.2398 35.7108 8.47449 35.9299 8.67857C36.1594 8.87245 36.4671 9.02551 36.8531 9.13775C37.2391 9.23979 37.6928 9.29082 38.2144 9.29082C38.9342 9.29082 39.4923 9.20918 39.8888 9.04592C40.2956 8.88265 40.499 8.63265 40.499 8.29592C40.499 8.06122 40.3843 7.87245 40.1548 7.72959C39.9253 7.57653 39.4715 7.47449 38.7934 7.42347L36.7279 7.2551C35.0379 7.13265 33.8122 6.77551 33.0507 6.18367C32.2996 5.58163 31.924 4.77551 31.924 3.76531C31.924 2.93877 32.1692 2.25 32.6595 1.69898C33.1498 1.13775 33.833 0.714286 34.7093 0.428571C35.5856 0.142857 36.6184 0 37.8076 0C38.9551 0 39.9722 0.158163 40.8589 0.474489C41.7561 0.790816 42.4654 1.2398 42.987 1.82143C43.519 2.39286 43.8111 3.06122 43.8633 3.82653H40.1704C40.1287 3.60204 40.0087 3.40816 39.8105 3.2449C39.6227 3.07143 39.3515 2.93878 38.9968 2.84694C38.6421 2.7551 38.2197 2.70918 37.7294 2.70918C37.0826 2.70918 36.5662 2.78571 36.1802 2.93878C35.8047 3.09184 35.6169 3.32143 35.6169 3.62755C35.6169 3.85204 35.7264 4.03571 35.9455 4.17857C36.175 4.32143 36.5923 4.41837 37.1973 4.46939L39.4663 4.65306C40.5929 4.73469 41.5005 4.90816 42.189 5.17347C42.8879 5.42857 43.3939 5.78061 43.7068 6.22959C44.0198 6.66837 44.1763 7.22449 44.1763 7.89796C44.1763 8.71429 43.9259 9.43367 43.4252 10.0561C42.9244 10.6684 42.2203 11.148 41.3127 11.4949C40.4156 11.8316 39.3619 12 38.1518 12C36.9104 12 35.8203 11.8316 34.8814 11.4949C33.9426 11.1582 33.2071 10.6888 32.6751 10.0867C32.1431 9.47449 31.8666 8.77041 31.8458 7.97449Z" fill="white"/>
<path d="M48.965 1.80612H52.6109V11.7398H48.965V1.80612ZM44.6149 0.260203H56.961V3.42857H44.6149V0.260203Z" fill="white"/>
<path d="M60.812 5.21939H64.9117C65.3707 5.21939 65.7254 5.11735 65.9758 4.91327C66.2365 4.70918 66.367 4.41327 66.367 4.02551C66.367 3.63775 66.2365 3.34184 65.9758 3.13775C65.7254 2.93367 65.3707 2.83163 64.9117 2.83163H60.2956L61.9386 1.17857V11.7398H58.2927V0.260203H65.4594C66.367 0.260203 67.165 0.418367 67.8535 0.734694C68.542 1.05102 69.0792 1.4898 69.4652 2.05102C69.8512 2.61225 70.0442 3.27041 70.0442 4.02551C70.0442 4.7602 69.8512 5.41327 69.4652 5.98469C69.0792 6.54592 68.542 6.98469 67.8535 7.30102C67.165 7.60714 66.367 7.7602 65.4594 7.7602H60.812V5.21939ZM62.3768 6.36735H66.4295L70.4667 11.7398H66.2887L62.3768 6.36735Z" fill="white"/>
<path d="M78.251 12C76.8427 12 75.6065 11.75 74.5424 11.25C73.4888 10.75 72.6647 10.051 72.0701 9.15306C71.4859 8.2551 71.1938 7.20408 71.1938 6C71.1938 4.79592 71.4859 3.7449 72.0701 2.84694C72.6647 1.94898 73.4888 1.25 74.5424 0.749999C75.6065 0.25 76.8427 0 78.251 0C79.6593 0 80.8903 0.25 81.9439 0.749999C83.0079 1.25 83.832 1.94898 84.4162 2.84694C85.0108 3.7449 85.3082 4.79592 85.3082 6C85.3082 7.20408 85.0108 8.2551 84.4162 9.15306C83.832 10.051 83.0079 10.75 81.9439 11.25C80.8903 11.75 79.6593 12 78.251 12ZM78.251 8.83163C78.9499 8.83163 79.5498 8.71939 80.0505 8.4949C80.5616 8.2602 80.9528 7.93367 81.2241 7.51531C81.4953 7.08673 81.6309 6.58163 81.6309 6C81.6309 5.41837 81.4953 4.91837 81.2241 4.5C80.9528 4.07143 80.5616 3.7449 80.0505 3.52041C79.5498 3.28571 78.9499 3.16837 78.251 3.16837C77.552 3.16837 76.947 3.28571 76.4358 3.52041C75.9351 3.7449 75.5491 4.07143 75.2779 4.5C75.0067 4.91837 74.871 5.41837 74.871 6C74.871 6.58163 75.0067 7.08673 75.2779 7.51531C75.5491 7.93367 75.9351 8.2602 76.4358 8.4949C76.947 8.71939 77.552 8.83163 78.251 8.83163Z" fill="white"/>
<path d="M89.893 11.7398V6.10714H93.5389V11.7398H89.893ZM84.4006 0.260203H88.4064L92.4905 5.37245H90.9257L94.9942 0.260203H99L92.8817 7.89796L90.5345 7.94388L84.4006 0.260203Z" fill="white"/>
</svg>
