<svg width="40" height="43" viewBox="0 0 40 43" fill="none" xmlns="http://www.w3.org/2000/svg">
<path d="M0 7.5V14L20 6.5L40 14V7.5L20 0L0 7.5Z" fill="white"/>
<path d="M6.53755 43C6.04438 43 5.56841 42.9327 5.10964 42.7981C4.65661 42.6571 4.28673 42.4776 4 42.2596L4.55912 40.8558C4.82865 41.0481 5.13831 41.2083 5.48812 41.3365C5.84367 41.4583 6.19634 41.5192 6.54615 41.5192C6.78127 41.5192 6.97051 41.4968 7.11387 41.4519C7.25724 41.4006 7.36046 41.3365 7.42354 41.2596C7.49236 41.1763 7.52676 41.0801 7.52676 40.9712C7.52676 40.8173 7.46368 40.6955 7.33752 40.6058C7.21136 40.516 7.04793 40.4423 6.84722 40.3846C6.64651 40.3269 6.42286 40.2692 6.17627 40.2115C5.93542 40.1538 5.6917 40.0801 5.44511 39.9904C5.20426 39.9006 4.98348 39.7853 4.78277 39.6442C4.58206 39.4968 4.41862 39.3077 4.29246 39.0769C4.1663 38.8397 4.10322 38.5417 4.10322 38.1827C4.10322 37.7788 4.20071 37.4135 4.39569 37.0865C4.5964 36.7596 4.89459 36.4968 5.29028 36.2981C5.68596 36.0994 6.17914 36 6.7698 36C7.16549 36 7.55257 36.0513 7.93105 36.1538C8.31527 36.25 8.65647 36.3942 8.95467 36.5865L8.42996 38C8.14323 37.8269 7.85937 37.6987 7.57837 37.6154C7.29738 37.5256 7.02499 37.4808 6.7612 37.4808C6.52608 37.4808 6.33684 37.5096 6.19347 37.5673C6.05011 37.6186 5.94689 37.6891 5.88381 37.7788C5.82073 37.8686 5.78919 37.9712 5.78919 38.0865C5.78919 38.234 5.8494 38.3526 5.96983 38.4423C6.09599 38.5256 6.25942 38.5962 6.46013 38.6538C6.66658 38.7051 6.89023 38.7596 7.13108 38.8173C7.37766 38.875 7.62138 38.9487 7.86224 39.0385C8.10882 39.1218 8.33247 39.2372 8.53318 39.3846C8.73389 39.5256 8.89446 39.7147 9.01489 39.9519C9.14105 40.1827 9.20413 40.4744 9.20413 40.8269C9.20413 41.2179 9.10377 41.5801 8.90306 41.9135C8.70809 42.2404 8.41276 42.5032 8.01707 42.7019C7.62712 42.9006 7.13395 43 6.53755 43Z" fill="white"/>
<path d="M11.6186 42.8654V37.6442H9.76923V36.1346H15.1626V37.6442H13.3218V42.8654H11.6186Z" fill="white"/>
<path d="M16.2272 42.8654V36.1346H18.9798C19.5303 36.1346 20.0034 36.234 20.3991 36.4327C20.8005 36.6314 21.1102 36.9199 21.3281 37.2981C21.546 37.6699 21.655 38.1122 21.655 38.625C21.655 39.1314 21.546 39.5705 21.3281 39.9423C21.1102 40.3077 20.8005 40.5897 20.3991 40.7885C20.0034 40.9808 19.5303 41.0769 18.9798 41.0769H17.1734L17.9304 40.2788V42.8654H16.2272ZM19.9518 42.8654L18.4551 40.4135H20.2701L21.7754 42.8654H19.9518ZM17.9304 40.4808L17.1734 39.6058H18.8766C19.2321 39.6058 19.4959 39.5192 19.668 39.3462C19.8457 39.1731 19.9346 38.9327 19.9346 38.625C19.9346 38.3109 19.8457 38.0673 19.668 37.8942C19.4959 37.7212 19.2321 37.6346 18.8766 37.6346H17.1734L17.9304 36.7596V40.4808Z" fill="white"/>
<path d="M26.0612 43C25.5795 43 25.135 42.9135 24.7279 42.7404C24.3207 42.5673 23.9652 42.3237 23.6612 42.0096C23.363 41.6891 23.1308 41.3173 22.9645 40.8942C22.7982 40.4712 22.715 40.0064 22.715 39.5C22.715 38.9936 22.7982 38.5288 22.9645 38.1058C23.1308 37.6827 23.363 37.3141 23.6612 37C23.9652 36.6795 24.3207 36.4327 24.7279 36.2596C25.135 36.0865 25.5795 36 26.0612 36C26.5486 36 26.993 36.0865 27.3944 36.2596C27.8016 36.4327 28.1543 36.6795 28.4525 37C28.7507 37.3141 28.9829 37.6827 29.1492 38.1058C29.3213 38.5288 29.4073 38.9936 29.4073 39.5C29.4073 40.0064 29.3213 40.4744 29.1492 40.9038C28.9829 41.3269 28.7507 41.6955 28.4525 42.0096C28.1543 42.3237 27.8016 42.5673 27.3944 42.7404C26.993 42.9135 26.5486 43 26.0612 43ZM26.0612 41.4231C26.2905 41.4231 26.5027 41.3782 26.6977 41.2885C26.8984 41.1987 27.0704 41.0705 27.2138 40.9038C27.3629 40.7308 27.4776 40.5256 27.5579 40.2885C27.6439 40.0513 27.6869 39.7885 27.6869 39.5C27.6869 39.2051 27.6439 38.9423 27.5579 38.7115C27.4776 38.4744 27.3629 38.2724 27.2138 38.1058C27.0704 37.9327 26.8984 37.8013 26.6977 37.7115C26.5027 37.6218 26.2905 37.5769 26.0612 37.5769C25.8318 37.5769 25.6167 37.6218 25.416 37.7115C25.221 37.8013 25.049 37.9327 24.8999 38.1058C24.7565 38.2724 24.6418 38.4744 24.5558 38.7115C24.4755 38.9423 24.4354 39.2051 24.4354 39.5C24.4354 39.7885 24.4755 40.0513 24.5558 40.2885C24.6418 40.5256 24.7565 40.7308 24.8999 40.9038C25.049 41.0705 25.221 41.1987 25.416 41.2885C25.6167 41.3782 25.8318 41.4231 26.0612 41.4231Z" fill="white"/>
<path d="M31.9915 42.8654V40.0192L32.3872 41.1635L29.6948 36.1346H31.4926L33.4366 39.7788H32.3958L34.3484 36.1346H36L33.3162 41.1635L33.6947 40.0192V42.8654H31.9915Z" fill="white"/>
<path d="M10.071 32C8.69678 32 7.37046 31.8269 6.09208 31.4808C4.82968 31.1181 3.79899 30.6566 3 30.0962L4.55803 26.4863C5.30908 26.9808 6.17198 27.3929 7.14675 27.7225C8.13749 28.0357 9.12025 28.1923 10.095 28.1923C10.7502 28.1923 11.2775 28.1346 11.677 28.0192C12.0765 27.8874 12.3641 27.7225 12.5399 27.5247C12.7317 27.3104 12.8276 27.0632 12.8276 26.783C12.8276 26.3874 12.6518 26.0742 12.3002 25.8434C11.9487 25.6126 11.4932 25.4231 10.934 25.2747C10.3747 25.1264 9.75145 24.978 9.06432 24.8297C8.39317 24.6813 7.71403 24.4918 7.0269 24.261C6.35575 24.0302 5.74053 23.7335 5.18124 23.3709C4.62195 22.9918 4.16652 22.5055 3.81497 21.9121C3.46341 21.3022 3.28764 20.5357 3.28764 19.6126C3.28764 18.5742 3.55929 17.6346 4.1026 16.794C4.6619 15.9533 5.49284 15.2775 6.59545 14.7665C7.69805 14.2555 9.07231 14 10.7182 14C11.8208 14 12.8995 14.1319 13.9541 14.3956C15.0248 14.6429 15.9756 15.0137 16.8065 15.5082L15.3444 19.1429C14.5454 18.6978 13.7544 18.3681 12.9714 18.1538C12.1884 17.9231 11.4293 17.8077 10.6943 17.8077C10.0391 17.8077 9.51175 17.8819 9.11226 18.0302C8.71276 18.1621 8.42513 18.3434 8.24935 18.5742C8.07357 18.8049 7.98569 19.0687 7.98569 19.3654C7.98569 19.7445 8.15347 20.0495 8.48905 20.2802C8.8406 20.4945 9.29603 20.6758 9.85532 20.8242C10.4306 20.956 11.0538 21.0962 11.7249 21.2445C12.4121 21.3929 13.0912 21.5824 13.7624 21.8132C14.4495 22.0275 15.0727 22.3242 15.632 22.7033C16.1913 23.0659 16.6387 23.5522 16.9743 24.1621C17.3259 24.7555 17.5016 25.5055 17.5016 26.4121C17.5016 27.4176 17.222 28.3489 16.6627 29.206C16.1194 30.0467 15.2964 30.7225 14.1938 31.2335C13.1072 31.7445 11.7329 32 10.071 32Z" fill="white"/>
<path d="M19.6939 31.6538V14.3462H27.6279C29.4815 14.3462 31.1115 14.7005 32.5177 15.4093C33.9239 16.1181 35.0185 17.1154 35.8015 18.4011C36.6005 19.6868 37 21.2198 37 23C37 24.7637 36.6005 26.2967 35.8015 27.5989C35.0185 28.8846 33.9239 29.8819 32.5177 30.5907C31.1115 31.2995 29.4815 31.6538 27.6279 31.6538H19.6939ZM24.4399 27.7473H27.4361C28.3949 27.7473 29.2258 27.5659 29.929 27.2033C30.648 26.8242 31.2073 26.2802 31.6068 25.5714C32.0063 24.8462 32.2061 23.989 32.2061 23C32.2061 21.9945 32.0063 21.1374 31.6068 20.4286C31.2073 19.7198 30.648 19.1841 29.929 18.8214C29.2258 18.4423 28.3949 18.2527 27.4361 18.2527H24.4399V27.7473Z" fill="white"/>
</svg>
