<svg width="160" height="33" viewBox="0 0 160 33" fill="none" xmlns="http://www.w3.org/2000/svg">
<path d="M0 27.7976H21.1297V32.1847H0V27.7976ZM152.805 13.7144L159.467 6.35735H154.502L149.042 12.4721V6.35735H145.086V21.8188H149.062V15.3062L154.899 21.8188H160L152.805 13.7144ZM23.457 14.7335C23.3503 17.6453 22.9818 18.1985 21.3721 18.1985V21.8285H21.9733C26.017 21.8285 26.977 19.7418 27.1224 15.0926L27.297 9.94853H31.0303V21.8188H34.9867V6.35735H23.7285L23.457 14.7335ZM6.28364 17.3929H14.623L16.0097 21.8188H20.6352L14.4 3.22235C13.7988 1.42676 13.1006 0 10.7152 0C8.3297 0 7.60242 1.42676 6.96242 3.22235L0.426667 21.8188H4.77091L6.28364 17.3929ZM10.5115 4.85294H10.6182L13.4109 13.6659H7.53455L10.5115 4.85294ZM102.933 8.55088H98.5212V4.18323H108.761V0.300883H94.3709V21.8188H102.933C107.675 21.8188 110.4 19.4506 110.4 15.1218C110.4 11.0162 107.636 8.55088 102.933 8.55088ZM102.73 17.9268H98.5212V12.3362H102.73C104.921 12.3362 106.153 13.3068 106.153 15.1315C106.153 16.9562 104.921 17.9268 102.73 17.9268ZM63.6024 5.99824V0.271764H59.6558V5.99824C57.5834 6.06666 55.6229 6.95553 54.2047 8.46955C52.7866 9.98366 52.0268 11.9992 52.0921 14.0735C52.0215 16.1521 52.7787 18.1737 54.1971 19.6935C55.6155 21.2135 57.5791 22.1071 59.6558 22.1779V28.0015H63.6121V22.1779C64.6408 22.1441 65.6528 21.9075 66.5899 21.4816C67.5271 21.0558 68.3711 20.4491 69.0737 19.6963C69.7763 18.9435 70.3236 18.0593 70.6843 17.0945C71.0451 16.1296 71.212 15.103 71.1758 14.0735C71.2173 13.0433 71.0533 12.0152 70.6936 11.0492C70.3339 10.0831 69.7855 9.19836 69.0805 8.44664C68.3756 7.69502 67.5281 7.09131 66.5875 6.67095C65.6469 6.25059 64.6322 6.02192 63.6024 5.99824ZM59.6655 18.4412C58.6184 18.3261 57.6585 17.8036 56.9928 16.9866C56.327 16.1695 56.0087 15.1233 56.1067 14.0735C56.0213 13.0264 56.3441 11.9868 57.0076 11.1726C57.671 10.3584 58.6235 9.83284 59.6655 9.70588V18.4412ZM63.6218 18.4412V9.70588C64.6638 9.83284 65.6163 10.3584 66.2797 11.1726C66.9431 11.9868 67.2659 13.0264 67.1806 14.0735C67.2734 15.1222 66.9533 16.1657 66.2885 16.9817C65.6238 17.7976 64.6669 18.3213 63.6218 18.4412ZM86.0024 17.0726V11.8606C86.0024 8.05588 83.5879 5.67794 79.5345 5.67794C75.4812 5.67794 73.1152 8.20147 72.9212 10.8318H76.9261C77.0618 10.2688 77.663 9.26912 79.5249 9.26912C79.873 9.22428 80.2259 9.26097 80.5566 9.37646C80.8882 9.49197 81.1879 9.68288 81.4322 9.93436C81.6766 10.1857 81.8599 10.4907 81.9665 10.825C82.0732 11.1593 82.1004 11.5139 82.0461 11.8606H78.1673C74.657 11.8606 72.5721 13.7144 72.5721 16.7815C72.5448 17.5134 72.6712 18.2429 72.9433 18.9228C73.2155 19.6027 73.6273 20.2177 74.152 20.7283C74.6766 21.2388 75.3025 21.6333 75.9892 21.8865C76.6759 22.1395 77.408 22.2454 78.1382 22.1974C78.9625 22.2407 79.7847 22.0801 80.5324 21.7297C81.28 21.3792 81.9297 20.8499 82.4242 20.1882C82.7462 20.7332 83.2155 21.1756 83.7789 21.4642C84.3413 21.7528 84.9745 21.8758 85.6049 21.8188H86.9721V18.2471C86.303 18.2471 86.0024 17.9268 86.0024 17.0726ZM82.0461 16.1021C82.0625 16.4844 81.9976 16.8658 81.855 17.2211C81.7135 17.5765 81.4982 17.8977 81.2238 18.1637C80.9484 18.4296 80.6206 18.6342 80.2608 18.7641C79.9011 18.8939 79.5181 18.9459 79.137 18.9168C77.7115 18.9168 76.5867 18.4024 76.5867 16.8591C76.5867 15.3159 77.8376 15.0926 78.8945 15.0926H82.0461V16.1021ZM44.8388 11.055H41.9976V6.35735H38.0412V21.8188H44.9067C49.2024 21.8188 50.7248 19.0235 50.7248 16.3835C50.7442 12.9768 48.6109 11.055 44.8388 11.055ZM44.5479 18.4412H41.9976V14.5588H44.5479C45.9151 14.5588 46.7394 15.18 46.7394 16.5C46.7394 17.82 45.9539 18.4412 44.5479 18.4412ZM125.498 17.0726V11.8606C125.498 8.05588 123.084 5.67794 119.03 5.67794C114.977 5.67794 112.611 8.20147 112.417 10.8318H116.422C116.558 10.2688 117.159 9.26912 119.021 9.26912C119.369 9.22428 119.722 9.26097 120.052 9.37646C120.384 9.49197 120.684 9.68288 120.928 9.93436C121.172 10.1857 121.356 10.4907 121.462 10.825C121.569 11.1593 121.596 11.5139 121.542 11.8606H117.663C114.153 11.8606 112.068 13.7144 112.068 16.7815C112.041 17.5134 112.167 18.2429 112.439 18.9228C112.711 19.6027 113.123 20.2177 113.648 20.7283C114.172 21.2388 114.799 21.6333 115.485 21.8865C116.172 22.1395 116.904 22.2454 117.634 22.1974C118.466 22.2489 119.298 22.0922 120.055 21.7416C120.812 21.3908 121.469 20.857 121.968 20.1882C122.286 20.7237 122.746 21.16 123.298 21.4481C123.85 21.7361 124.47 21.8645 125.091 21.8188H126.458V18.2471C125.77 18.2471 125.498 17.9268 125.498 17.0726ZM121.561 16.1021C121.576 16.484 121.51 16.8647 121.367 17.2193C121.225 17.574 121.009 17.8945 120.735 18.1602C120.461 18.4257 120.133 18.6304 119.774 18.7609C119.415 18.8912 119.033 18.9443 118.652 18.9168C117.227 18.9168 116.102 18.4024 116.102 16.8591C116.102 15.3159 117.353 15.0926 118.41 15.0926H121.561V16.1021ZM138.133 12.1129H132.674V6.35735H128.718V21.8285H132.674V15.7332H138.133V21.8188H142.09V6.35735H138.133V12.1129Z" fill="white"/>
</svg>
