<svg width="160" height="61" viewBox="0 0 160 61" fill="none" xmlns="http://www.w3.org/2000/svg">
<path d="M19.9703 53.0845H3.31616V46.0091H19.9335V53.0845H19.9703ZM23.3233 42.4528H0V60.16H3.31616V56.6038H23.2497V42.4528H23.3233ZM3.31616 10.6317L9.98517 3.55625V28.3389H3.31616V10.6317ZM0 31.8581H13.2644V0H8.32716L0 8.85359V31.8581ZM19.9703 3.55625H26.6395V28.3389H19.9703V3.55625ZM16.6543 31.8581H29.9187V0H16.6543V31.8581ZM53.1684 31.8581H56.4844V0H51.4734V0.0370508L46.4624 5.33439V0H41.4514L33.1979 8.85359V31.8581H36.5141V10.6317L43.1831 3.55625V31.8581H46.4993V10.6317L53.1684 3.55625V31.8581ZM0 38.9336H56.5212V35.3773H0V38.9336ZM43.22 46.0091H53.1684V53.0845H43.22V46.0091ZM39.9039 53.0845H29.9187V46.0091H39.9039V53.0845ZM43.22 56.6038H56.5212V42.4528H26.6395V56.6038H39.9039V60.16H43.22V56.6038ZM105.968 31.2654H108.879C110.168 31.2654 110.942 32.1915 110.942 33.4511C110.942 34.7846 110.168 35.6367 108.879 35.6367H105.968V31.2654ZM105.968 28.4871V25.3013H112.895V22.523H102.984V38.452H108.99C111.974 38.452 113.854 36.3776 113.854 33.4881C113.854 30.5987 112.01 28.5241 108.99 28.5241C109.026 28.4871 105.968 28.4871 105.968 28.4871ZM124.649 33.0065H120.927L122.844 27.2276L124.649 33.0065ZM126.344 38.452H129.402L123.986 22.523H121.701L116.285 38.452H119.343L120.264 35.6367H125.534L126.344 38.452ZM140.419 38.452H143.33V22.523H140.419V29.0428H135.37V22.523H132.46V38.452H135.37V31.7841H140.419V38.452ZM154.051 29.9688L159.063 22.523H155.599L150.81 30.08V22.523H147.899V38.452H150.81V30.117L156.042 38.452H159.615L154.051 29.9688Z" fill="white"/>
<path d="M82.3505 6.77905H79.771V53.3808H82.3505V6.77905Z" fill="white"/>
</svg>
