<svg width="160" height="34" viewBox="0 0 160 34" fill="none" xmlns="http://www.w3.org/2000/svg">
<path fill-rule="evenodd" clip-rule="evenodd" d="M16.8535 0C7.55665 0 0 7.46326 0 16.649C0 25.8158 7.55665 33.28 16.8535 33.28C26.1294 33.28 33.6842 25.8158 33.6842 16.649C33.6842 7.46326 26.1294 0 16.8535 0ZM16.8535 32.4476C8.02449 32.4476 0.842014 25.3572 0.842014 16.649C0.842014 7.92278 8.02175 0.832361 16.8535 0.832361C25.6675 0.832361 32.8422 7.92639 32.8422 16.649C32.8422 25.3554 25.6647 32.4476 16.8535 32.4476ZM66.3309 13.7078C66.3309 14.7658 65.3363 15.1134 64.7917 15.1134H63.3516V18.191H64.7149C65.8639 18.191 66.388 18.7299 66.388 19.5388C66.388 20.1139 65.9613 20.9056 64.8702 20.9056C64.2274 20.9056 63.5855 20.8686 62.6311 20.4615L62.5722 23.4478C62.8842 23.6158 63.1803 23.7494 63.4772 23.8541C64.163 24.0951 64.8556 24.1836 65.7657 24.1962C68.22 24.1962 70.1279 22.6958 70.1279 19.9812C70.1279 17.7856 68.803 16.8458 67.8111 16.5344V16.4008C68.8414 15.9756 69.8949 14.8814 69.8949 13.0713C69.8949 11.2053 68.6682 9.29951 65.9005 9.29951C65.3271 9.29319 64.7551 9.33201 64.1895 9.41417C63.7765 9.47465 63.3667 9.55771 62.9623 9.66424L63.0007 12.7842C63.7221 12.4376 64.4613 12.3789 64.8497 12.3789C65.1827 12.3789 66.3309 12.4574 66.3309 13.7078ZM97.9135 24.0816C101.905 24.0816 103.247 20.3838 103.247 16.7086C103.247 13.0343 101.905 9.33743 97.9135 9.33743C93.9218 9.33743 92.5799 13.0343 92.5799 16.7086C92.5799 20.3838 93.9218 24.0807 97.9135 24.0816ZM97.9135 20.596C96.7233 20.596 96.1225 19.231 96.1225 16.7086C96.1225 14.1862 96.7233 12.8203 97.9135 12.8203C99.1027 12.8203 99.703 14.1862 99.703 16.7086C99.703 19.231 99.1027 20.596 97.9135 20.596ZM107.728 9.54958H104.866V23.9074H108.233V15.1495L110.256 17.6511L112.281 15.1495V23.9074H115.652V9.54868H112.81L110.256 12.9368L107.728 9.54958ZM117.929 23.9074H121.94C122.816 23.9074 126.458 23.5408 126.477 19.1894C126.477 15.5377 123.655 14.9003 121.824 14.9003H121.22V12.9955H125.679V9.54958H117.929V23.9074ZM121.22 21.0203V17.7676H121.707C121.913 17.7676 122.286 17.773 122.603 17.9698C122.912 18.1621 123.168 18.5367 123.168 19.268C123.168 20.772 122.115 21.0203 121.707 21.0203H121.22ZM138.589 9.54958H141.88V14.727H144.236V9.54958H147.525V23.9083H144.236V18.1531H141.88V23.9083H138.589V9.54958ZM149.744 9.54958H153.056L153.036 14.7081H153.755L155.645 9.54958H159.227L156.656 16.3647L159.598 23.9083H155.721L153.815 18.1332H153.036L153.056 23.9074H149.744V9.54958ZM130.548 23.9263H127.12L130.021 9.56944H134.266L137.148 23.9263H133.722L133.312 21.4437H130.958L130.548 23.9263ZM132.766 18.2867L132.143 13.9172L131.5 18.2867H132.766ZM86.1906 23.9074H82.8221V9.54868H87.3218C90.4939 9.54868 91.6822 12.4737 91.6822 14.3208C91.6822 16.2094 90.6492 19.1741 87.3218 19.1741H86.1906V23.9074ZM86.9897 12.7057H86.1906L86.1915 16.0153H86.9897C87.4182 16.0153 88.2369 15.9006 88.2369 14.3605C88.2369 13.1679 87.7494 12.7057 86.9897 12.7057ZM71.7041 9.54958H80.8941V23.9065H77.5251V13.0135H75.0736V23.9074H71.7041V9.54958ZM51.5538 23.9074H54.9598L55.3893 21.4229H57.7453L58.1533 23.9074H61.5588L58.6769 9.54868H54.4339L51.5538 23.9074ZM56.5561 13.8793L57.1998 18.2677H55.9133L56.5561 13.8793ZM51.9399 9.54958H45.0311V23.9065H48.4558V13.1273H51.9399V9.54958ZM21.6324 6.18764C18.967 5.01312 14.0004 4.89667 9.93193 6.68687C10.456 6.31674 11.017 6.00257 11.6068 5.74708C12.8879 5.15757 14.9539 4.58611 17.5288 4.58611C17.6503 4.58611 17.7718 4.58701 17.8938 4.58972C20.0955 4.62854 22.7056 5.37965 24.301 6.93875C24.4609 7.13104 24.581 7.32333 24.6647 7.50028C24.7231 7.62396 24.7638 7.73951 24.7876 7.84333C26.0535 8.47889 26.7928 9.07472 27.2007 9.76806C27.3776 10.1328 27.4356 10.5165 27.3561 10.9597C27.7714 11.1899 28.1314 11.5059 28.4115 11.8869C28.501 12.0367 28.5805 12.1956 28.6422 12.3554C28.6997 12.5035 28.7413 12.6515 28.7605 12.7924C28.8176 13.1742 28.856 13.6166 28.4471 14.1375C28.8756 14.3497 29.2247 14.9437 29.2667 15.1965C29.481 16.1362 28.856 17.0607 28.0588 17.7748C27.1231 18.5819 25.0589 19.5442 23.384 19.9685C20.0777 20.7955 17.135 21.1431 14.8003 21.5674C15.8512 21.8165 17.2716 22.1451 19.5902 22.1451C24.5527 22.1451 28.9346 19.8331 28.9346 19.8331C28.9346 19.8331 28.8382 20.1238 28.739 20.3937C25.5857 22.2787 20.583 23.0669 18.4393 22.9703C16.2779 22.8728 14.4486 22.5469 12.6567 22.007C12.1094 22.1596 11.5703 22.3392 11.0417 22.5469C13.7692 23.7783 15.8315 24.0491 18.1492 24.2206C20.5227 24.3958 24.4581 23.8351 27.765 22.6453C27.6096 22.8006 27.532 23.0299 27.3776 23.1644C26.2491 23.7539 24.2845 24.3434 22.563 24.6937C21.6991 24.8697 20.8964 24.9862 20.291 25.0115C18.4983 25.0891 16.3181 25.0115 14.4093 24.6639C12.7737 24.3389 11.4282 23.8351 10.0274 23.2222C9.77659 23.4117 9.65963 23.6456 9.59887 23.9155C15.0736 26.7439 20.1718 26.7999 25.9964 25.0115L25.4687 25.5125C19.0625 28.0917 14.0584 27.0897 10.1818 25.2417L10.0183 25.1722C9.93193 25.1351 9.84649 25.0954 9.77659 25.0494C10.1471 25.666 13.104 27.8019 16.4145 28.0719C18.6947 28.2642 21.478 27.8787 23.1323 27.226L22.1592 27.7252C21.3601 28.1107 19.2384 28.9981 16.277 28.804C12.3255 28.5332 10.1051 26.8008 9.11138 25.898C8.64446 25.4719 8.43202 24.9925 8.2945 24.3958C7.64666 24.0617 7.17197 23.7169 6.78317 23.2754C6.63423 23.1057 6.49762 22.9224 6.36879 22.7202C6.09558 22.3167 6.15177 21.8364 6.20979 21.4292L6.33132 21.0871C5.90004 20.7756 5.45276 20.4488 5.27778 20.1238C4.88578 19.4305 5.12335 18.8328 5.39474 18.3706C5.1599 18.1016 4.94472 17.8326 4.85152 17.5635C4.73319 17.2557 4.71491 16.9442 4.75009 16.5994C4.82959 16.0234 5.14117 15.4862 5.55007 15.0222C6.40534 14.04 7.77138 13.2708 10.0854 12.5206C12.3657 11.7677 13.2817 11.6522 14.995 11.2658C15.7566 11.0915 16.5748 10.9615 17.4063 10.8288C18.7637 10.6131 20.1567 10.391 21.3994 9.96125C15.8109 8.99979 10.0096 9.88361 5.27778 13.0948L5.58845 12.1911C9.83278 9.45931 14.5262 7.84333 22.4698 9.21014C22.8984 8.95917 23.151 8.70819 23.2698 8.20896C21.2824 7.49757 19.1223 7.2475 16.3386 7.28451C13.845 7.36306 9.3453 8.28299 6.93485 9.69312L7.67133 8.78674C9.3453 7.80181 13.7262 6.51444 17.0198 6.45667C19.3348 6.39979 20.5227 6.5334 23.2886 7.26556C23.0505 6.83764 22.5452 6.60653 21.8005 6.26437L21.6324 6.18764ZM25.8767 10.1924C25.8009 9.6534 25.1777 9.1334 24.6313 8.78674C24.5536 9.05667 24.2644 9.38347 24.068 9.59562C24.6715 9.7509 25.2947 9.9784 25.8767 10.1924ZM23.2118 10.3639C22.8198 10.6726 22.3744 10.9408 21.7101 11.1935C22.2994 11.2956 22.8093 11.4319 23.2995 11.5763C23.7185 11.6991 24.1233 11.8273 24.5527 11.9428C24.5623 11.9474 24.5733 11.9492 24.5838 11.9483C24.7866 11.9483 25.4537 11.3389 25.5688 11.1719C24.9027 10.883 24.0849 10.5932 23.2118 10.3639ZM27.3776 13.1932C27.6293 12.712 27.474 12.4042 26.9499 11.9609C26.7347 12.2137 26.5008 12.4231 26.2482 12.6154C26.6562 12.8077 27.0285 12.944 27.3776 13.1932ZM18.6171 12.1749C16.0467 12.4827 13.2022 13.019 10.7694 13.7322L10.6396 13.771C9.43211 14.1339 4.86614 15.5025 6.25274 17.3893C6.2669 17.3893 7.13268 16.2094 10.3979 15.2714C12.532 14.6521 14.7199 14.2585 16.9422 13.8585C18.9382 13.4992 20.9622 13.1345 22.9984 12.5974C21.3231 12.1568 20.3851 11.9609 18.6171 12.1749ZM21.4008 14.5031C20.0187 14.8489 16.668 15.3301 13.0674 16.0992C11.9371 16.3493 8.84 17.0607 7.32136 18.3318C7.51873 18.4925 7.68321 18.5954 7.84859 18.6857C8.04185 18.7913 8.23693 18.8798 8.48821 19.0251C9.11138 18.6198 9.96939 18.2352 11.2372 17.9066C13.4334 17.3306 15.0923 17.0824 17.0779 16.7574C19.0447 16.4631 22.7627 15.6939 24.8063 14.9626C25.2869 14.8019 25.7369 14.6015 26.1166 14.3686C26.2774 14.2702 26.4259 14.1664 26.5588 14.0572C26.4222 13.9055 25.0982 13.2708 25.0589 13.3295C24.2439 13.7132 23.0752 14.0969 21.4008 14.5031ZM16.6082 18.3733C15.1188 18.6171 13.6838 18.8518 12.1692 19.2192C11.488 19.3899 10.7872 19.6029 10.1471 19.871C10.7872 20.1987 11.4889 20.4885 12.1889 20.7585C13.5906 20.354 14.2558 20.1807 16.277 19.8539C17.0564 19.7167 19.4321 19.2942 21.1449 18.9511C24.2439 18.2939 28.7802 16.8693 27.5731 15.0222C27.5128 15.0728 27.4525 15.1188 27.3922 15.1649C27.3159 15.2244 27.24 15.284 27.1642 15.3499C26.2482 16.0387 24.7876 16.5994 22.7833 17.1203C20.4578 17.7423 18.4896 18.0646 16.6082 18.3733ZM7.25238 19.9649C7.31085 19.9207 7.36796 19.8765 7.41959 19.8331C7.16877 19.7049 6.98054 19.593 6.78911 19.4738L6.50356 19.2933C6.43503 19.4476 6.45742 19.6074 6.53006 19.7528C6.62281 19.9378 6.79779 20.1003 6.9714 20.1987C7.05546 20.1157 7.15552 20.039 7.25238 19.9649ZM10.5916 21.3155C10.0274 21.0654 9.4248 20.8172 8.84 20.5472C8.56771 20.7206 8.31597 20.8921 8.12043 21.0654C8.58735 21.3353 9.03646 21.5836 9.50429 21.8373C9.84832 21.6278 10.2124 21.4527 10.5916 21.3155ZM8.31597 23.1066C8.37217 22.9125 8.47131 22.7599 8.60791 22.5676C8.27485 22.3916 7.94454 22.2201 7.61422 22.007C7.59274 22.3744 7.82849 22.7013 8.31597 23.1066Z" fill="white"/>
</svg>
