<svg width="160" height="41" viewBox="0 0 160 41" fill="none" xmlns="http://www.w3.org/2000/svg">
<path fill-rule="evenodd" clip-rule="evenodd" d="M12.4481 22.9898L16.4584 19.0876V16.429L12.4481 20.3222V22.9898ZM12.4481 13.0946L16.4584 9.1743V6.67795L12.4481 10.5622V13.0855V13.0946ZM12.4481 16.3659L16.4584 12.4637V9.95835L12.4481 13.8516V16.3659ZM11.3049 6.70499L10.7606 6.20031V0H10.1617V5.60551L9.6355 5.09183V0H9.02761V4.50604L8.4923 3.98334V0H7.89348V5.91192L11.9219 9.81415V0H11.314V6.70499H11.3049ZM12.4481 19.6373L16.4584 15.7351V13.2297L12.4481 17.123V19.6373ZM7.8844 19.0876L11.9128 22.9898V20.3222L7.8844 16.429V19.0876ZM15.8596 3.98334L15.3243 4.50604V0H14.7255V5.10084L14.1811 5.60551V0H13.5823V6.1913L13.056 6.70499V0H12.4481V9.82317L16.4584 5.91192V0H15.8596V3.98334ZM7.8844 9.1743L11.9128 13.0946V10.5712L7.8844 6.66894V9.16529V9.1743ZM7.8844 12.4637L11.9128 16.3659V13.8426L7.8844 9.96736V12.4637ZM7.8844 15.7351L11.9128 19.6373V17.123L7.8844 13.2387V15.7351ZM31.81 17.7989H22.0474C22.2605 17.4712 22.3739 17.0895 22.3741 16.6994C22.3691 15.5606 21.4066 14.6127 20.26 14.6176C19.1204 14.6225 18.1691 15.5674 18.1642 16.6994C18.1642 17.15 18.3093 17.5645 18.5543 17.907C18.3717 18.0277 18.2567 18.2388 18.2549 18.4567C18.2549 18.6911 18.3819 18.8983 18.5543 19.0155C18.3015 19.3682 18.1652 19.7902 18.1642 20.2231C18.1642 21.357 19.1185 22.3049 20.26 22.3049C21.4066 22.3098 22.3691 21.3619 22.3741 20.2231C22.3741 19.8176 22.2561 19.4391 22.0474 19.1236H29.3149V19.5652H28.5891V20.178H29.3149V20.8089H28.5891V21.9805H29.3149V21.4578H30.3765V21.9805H31.0932V20.8089H30.3765V20.178H31.0932V19.5652H30.3765V19.1146H31.81C32.0868 19.1146 32.3181 18.8848 32.3181 18.6099V18.3035C32.3133 18.0306 32.0848 17.8036 31.81 17.7989ZM21.3488 20.2321C21.3488 20.8211 20.8531 21.3136 20.26 21.3136C19.667 21.3136 19.1713 20.8211 19.1713 20.2321C19.1713 19.8183 19.4545 19.4708 19.6612 19.1326C19.4648 18.9661 19.3494 18.7132 19.3527 18.4567C19.3527 18.1864 19.4707 17.9521 19.6521 17.7898C19.4567 17.4502 19.1738 17.0985 19.1803 16.6904C19.1803 16.1013 19.6761 15.6089 20.2691 15.6089C20.8621 15.6089 21.3579 16.1013 21.3579 16.6904C21.3579 17.132 20.8498 18.1774 20.8498 18.1774V18.7361C20.8407 18.7451 21.3488 19.7905 21.3488 20.2321ZM4.23704 16.5282V19.1326C4.23704 21.611 5.32581 23.2151 5.96092 23.8279L10.1164 27.8834C11.2777 29.0099 11.4773 29.3794 11.7404 30.0192V27.1354C11.7404 24.7883 10.6417 23.7599 9.93466 23.0981C8.69941 21.9419 7.48758 20.7572 6.28755 19.5652C5.37972 18.7215 4.67831 17.6826 4.23704 16.5282ZM6.28755 25.9998C5.44335 25.2399 4.7508 24.3288 4.24611 23.3142V25.5583C4.21899 27.2874 4.82883 28.9668 5.96092 30.2806L10.1164 34.309C11.2371 35.3961 11.4622 35.9376 11.713 36.5411L11.7404 36.6071V33.57C11.7404 31.2187 10.6379 30.1891 9.93636 29.534L9.93596 29.5336L9.93486 29.5326C8.70197 28.381 7.48502 27.1893 6.28755 25.9998ZM18.0289 4.81231C17.7413 4.81231 17.4538 4.81248 17.1662 4.83033V6.03795C24.0918 5.51039 30.7964 9.42636 33.699 15.6943C34.6501 17.7482 35.1708 19.9728 35.2293 22.2329C35.3467 26.767 33.55 31.239 30.3221 34.4471C27.0942 37.6553 22.5931 39.4425 18.0281 39.3286C13.578 39.3334 9.30811 37.5826 6.15715 34.4613C3.00618 31.3399 1.23208 27.1035 1.22486 22.6833C1.22486 17.5734 3.53849 13.0133 7.19493 9.94919V8.39912C4.95985 10.0602 3.1457 12.2163 1.89669 14.696C0.647673 17.1757 -0.00176232 19.9106 3.59169e-06 22.6833C3.59169e-06 32.5515 8.07501 40.5542 18.0372 40.5542C22.8122 40.5566 27.3927 38.6754 30.7717 35.3242C34.1506 31.973 36.0515 27.4262 36.0563 22.6833C36.0563 12.8153 27.9817 4.81272 18.0289 4.81231ZM31.5742 30.8482C31.3292 31.2538 31.057 31.6503 30.7848 32.0198V28.451H31.5742V30.8482ZM33.1652 27.3366C33.1401 27.4189 33.1148 27.5019 33.0894 27.5858C32.6539 27.1442 31.8736 27.1533 31.175 27.1713H30.7848V26.5404H33.3979C33.3283 26.8031 33.248 27.0658 33.1652 27.3366ZM14.9705 26.4413H15.6782V26.4503V33.5699H14.9705V26.4413ZM13.3373 25.0798H15.6781C16.286 25.0798 16.7125 25.2059 16.9484 25.4403C17.1933 25.6656 17.3113 26.0891 17.3113 26.6839V33.3529C17.3113 33.9477 17.2024 34.3622 16.9484 34.5965C16.5854 34.966 15.8959 34.966 15.3334 34.966L14.9704 34.957V38.1112L15.6781 38.2374V35.6419C16.7669 35.6419 17.4655 35.2814 17.8012 34.5425V38.4086H18.0371L18.4908 38.3996V26.8011C18.4908 26.1883 18.6087 25.7557 18.8537 25.5124C19.0805 25.269 19.507 25.1519 20.0967 25.1519C20.1802 25.1519 20.2689 25.1502 20.3611 25.1484C20.9407 25.1373 21.6573 25.1236 22.0565 25.5124C22.2924 25.7557 22.4013 26.1973 22.4013 26.8011V30.2257H20.7953V26.5668H20.0967V38.2735C20.3326 38.2464 20.5504 38.2104 20.7953 38.1653V30.9106H22.4013V37.7958C22.7279 37.7057 23.0545 37.6066 23.3812 37.4894V31.1809C23.3812 30.46 23.5535 29.9193 24.2885 29.6759L23.4719 25.287H25.105L25.3772 30.0725H25.5768L25.849 25.287H27.5548L26.6384 29.6759C27.4005 29.9463 27.5548 30.4059 27.5548 31.1719V35.2544C28.0307 34.8999 28.4852 34.5177 28.9157 34.1099V25.251H33.6791L33.7698 24.6021H22.619L22.7733 25.4042C22.4285 24.7553 21.7571 24.4309 20.7772 24.4309H20.0786C18.8991 24.4309 18.1732 24.8995 17.901 25.8278C17.6561 24.8545 16.903 24.3678 15.6691 24.3678H12.6205V37.4534C12.8564 37.5345 13.0923 37.6156 13.3282 37.6787V25.0888L13.3373 25.0798ZM28.1173 30.1085L27.3461 29.3875L28.1173 25.4493V30.1085ZM25.2202 36.6955C25.1787 36.7168 25.1372 36.7381 25.096 36.7593V36.7503V30.9825H25.8218V36.3718C25.6332 36.4842 25.4257 36.5904 25.2202 36.6955Z" fill="white"/>
<path fill-rule="evenodd" clip-rule="evenodd" d="M134.545 15.5734L134.342 14.0449C133.687 14.1918 133.016 14.2597 132.353 14.3621C130.97 14.5675 129.61 15.1255 128.782 16.2943C127.912 17.5562 127.766 19.1764 127.766 20.6634C127.766 23.0934 128.704 25.4362 131.41 25.4362C133.615 25.4362 134.966 23.6306 134.966 21.5862C134.966 19.5702 133.857 17.8805 131.685 17.8805C130.975 17.8805 130.263 18.1044 129.668 18.4861C129.803 17.5825 130.113 16.9576 130.597 16.5539C131.133 16.0854 131.879 15.9128 132.571 15.8329C133.232 15.7626 133.893 15.7029 134.545 15.5734ZM129.61 20.0145C130.048 19.5574 130.746 19.3657 131.366 19.3657C132.628 19.3657 133.181 20.4599 133.181 21.5862C133.181 22.6955 132.699 23.9222 131.41 23.9222C130.368 23.9222 129.818 23.1086 129.668 22.163C129.561 21.4895 129.504 20.6993 129.61 20.0145ZM139.459 24.0085C140.001 24.0085 140.413 23.9797 140.693 23.922V21.9898C140.175 21.8355 139.599 21.8279 139.067 21.9033C138.511 21.9862 138.008 22.3006 138.008 22.9127C138.008 23.7655 138.708 24.0085 139.459 24.0085ZM139.314 17.5054C141.243 17.5054 142.392 18.5633 142.392 20.4902V25.0611C141.016 25.3539 139.454 25.5812 138.066 25.263C136.904 24.9967 136.251 24.1312 136.251 22.9559C136.251 21.7781 137.062 20.9664 138.196 20.7353C139.017 20.552 139.877 20.5695 140.693 20.7642C140.693 19.7218 140.309 18.9762 139.14 18.9762C138.491 18.9762 137.809 19.0426 137.195 19.2646L136.977 17.8515C137.716 17.5963 138.537 17.5054 139.314 17.5054ZM149.159 25.2342H150.916V17.6929H149.159V20.6344H146.299V17.6929H144.543V25.2342H146.299V22.0764H149.159V25.2342ZM154.905 20.7209V17.6929H153.148V25.2342H154.905V21.8456C156.108 22.7309 157.169 23.982 157.968 25.2342H160C159.141 23.7067 157.894 22.2484 156.545 21.1247C157.658 20.0192 158.765 18.8868 159.782 17.6929H157.721C156.832 18.741 155.88 19.7522 154.905 20.7209ZM120.435 17.9241C121.197 17.6329 122.076 17.5204 122.888 17.5204C124.239 17.5204 125.995 18.0032 125.995 19.64C125.995 20.3618 125.543 20.9819 124.892 21.2838C125.748 21.6053 126.242 22.3057 126.242 23.216C126.242 24.9187 124.397 25.4222 122.961 25.4222C122.069 25.4222 121.071 25.3278 120.246 24.9608L120.551 23.5477C121.282 23.8534 122.086 23.9658 122.874 23.9658C123.938 23.9658 124.471 23.6582 124.471 23.043C124.471 22.2256 123.623 22.0192 122.932 22.0192H121.48V20.7215H122.917C123.503 20.7215 124.224 20.5453 124.224 19.8419C124.224 19.1425 123.368 18.9623 122.816 18.9623C122.149 18.9623 121.37 19.0656 120.754 19.3372L120.435 17.9241ZM119.172 21.4563C119.172 19.3352 117.765 17.5054 115.528 17.5054C113.287 17.5054 111.884 19.3362 111.884 21.4563C111.884 23.5811 113.276 25.436 115.528 25.436C117.792 25.436 119.172 23.5912 119.172 21.4563ZM117.372 21.4563C117.372 22.6021 116.872 23.922 115.528 23.922C114.172 23.922 113.684 22.6112 113.684 21.4563C113.684 20.3075 114.186 19.0194 115.528 19.0194C116.858 19.0194 117.372 20.3166 117.372 21.4563ZM107.606 20.1586L109.217 17.6929H111.061L108.564 21.2545C109.54 22.5107 110.524 23.8157 111.25 25.2342H109.348C108.873 24.2384 108.205 23.2915 107.548 22.408C106.859 23.2872 106.268 24.2482 105.748 25.2342H103.948C104.652 23.8349 105.609 22.5401 106.575 21.3121L104.064 17.6929H105.995L107.606 20.1586ZM99.3047 20.3749C99.024 20.4037 98.8111 20.4374 98.6659 20.4758V17.6929H96.9094V25.0467C97.9254 25.2796 98.9589 25.3928 100.001 25.3928C101.655 25.3928 103.282 24.7366 103.282 22.8694C103.282 20.6952 101.091 20.1913 99.3047 20.3749ZM99.2176 24.0085C98.9756 23.9893 98.7917 23.9701 98.6659 23.9509V21.8024C98.8111 21.7639 98.995 21.7399 99.2176 21.7303C100.056 21.6579 101.526 21.6711 101.526 22.8406C101.526 24.0944 100.139 24.0438 99.2176 24.0085ZM90.9824 19.1348C90.9522 20.4543 90.9392 21.8212 90.4598 23.0713C89.9363 24.4362 88.7194 25.2378 87.2806 25.3784L87.0338 23.922C88.2081 23.6933 88.8566 22.9183 89.0662 21.7735C89.2111 21.0949 89.2656 20.3897 89.2839 19.6972C89.3016 19.0292 89.2984 18.361 89.2984 17.6929H94.6697V25.2342H92.9131V19.1348H90.9824ZM79.2923 21.4996C79.2923 23.8469 80.8164 25.4216 83.1973 25.4216C83.9873 25.4216 84.9318 25.3316 85.6507 24.9746L85.4184 23.5471C84.7975 23.8114 84.0852 23.9076 83.4151 23.9076C82.1761 23.9076 81.21 23.2955 81.1069 22.0042H86.1152C86.1367 21.7906 86.1442 21.57 86.1442 21.3554C86.1442 19.2699 85.0909 17.5054 82.8199 17.5054C80.5982 17.5054 79.2923 19.4519 79.2923 21.4996ZM84.3877 20.7209H81.1214C81.2425 19.7988 81.815 18.9618 82.8344 18.9618C83.8203 18.9618 84.3877 19.8066 84.3877 20.7209ZM72.4449 21.4707C72.4449 19.2954 73.9458 17.5054 76.2048 17.5054C76.921 17.5054 77.5984 17.6352 78.2372 17.8947L77.8597 19.3223C77.386 19.1206 76.8646 19.0194 76.35 19.0194C74.9117 19.0194 74.245 20.1534 74.245 21.4707C74.245 22.8996 74.9587 23.9076 76.4661 23.9076C77.0196 23.9076 77.5926 23.8136 78.1065 23.6048L78.3533 25.0467C77.7362 25.3532 76.941 25.4216 76.2629 25.4216C73.8872 25.4216 72.4449 23.7802 72.4449 21.4707ZM65.5976 21.4707C65.5976 23.7802 67.0399 25.4216 69.4156 25.4216C70.0937 25.4216 70.8889 25.3532 71.506 25.0467L71.2592 23.6048C70.7453 23.8136 70.1723 23.9076 69.6188 23.9076C68.1113 23.9076 67.3977 22.8996 67.3977 21.4707C67.3977 20.1534 68.0644 19.0194 69.5027 19.0194C70.0173 19.0194 70.5387 19.1206 71.0124 19.3223L71.3899 17.8947C70.7511 17.6352 70.0737 17.5054 69.3575 17.5054C67.0985 17.5054 65.5976 19.2954 65.5976 21.4707ZM64.209 21.4563C64.209 23.5912 62.8291 25.436 60.5653 25.436C58.3133 25.436 56.9215 23.5811 56.9215 21.4563C56.9215 19.3362 58.324 17.5054 60.5653 17.5054C62.8026 17.5054 64.209 19.3352 64.209 21.4563ZM62.4089 21.4563C62.4089 20.3167 61.895 19.0194 60.5653 19.0194C59.2233 19.0194 58.7216 20.3075 58.7216 21.4563C58.7216 22.6112 59.2091 23.922 60.5653 23.922C61.9092 23.922 62.4089 22.6021 62.4089 21.4563ZM54.5835 15.9337C53.8092 15.405 52.6914 15.1406 51.2301 15.1406C50.2857 15.1406 49.3083 15.1773 48.3848 15.3858V25.2342H50.2139V21.7158H51.1285C51.864 21.7158 52.5172 21.6534 53.0882 21.5284C54.6994 21.1758 55.7593 20.098 55.7593 18.4138C55.7593 17.2891 55.3674 16.4624 54.5835 15.9337ZM50.2139 16.7556C50.5139 16.7268 50.8962 16.7123 51.3607 16.7123C52.511 16.7123 53.8431 17.0186 53.8431 18.3994C53.8431 19.9375 52.3586 20.1586 51.0994 20.1586H50.2139V16.7556Z" fill="white"/>
</svg>
