<svg width="160" height="24" viewBox="0 0 160 24" fill="none" xmlns="http://www.w3.org/2000/svg">
<g clip-path="url(#clip0_132_212)">
<path d="M128.642 4.79126V19.3501H131.831V13.402H138.629V19.3501H141.818V4.79126H138.629V10.761H131.831V4.79126H128.642Z" fill="white"/>
<path d="M149 13.4788H150.984L155.879 19.3502H160.001L153.476 11.8217L159.178 4.79248H155.512L150.761 11.031H149V4.79248H145.81V19.3502H149V13.4788Z" fill="white"/>
<path d="M123.159 19.3489H126.517L120.29 4.79126H117.037L110.661 19.3489H113.892L115.174 16.4175H121.952L123.159 19.3489ZM116.127 13.9888L118.598 8.14389L120.92 13.9888H116.127Z" fill="white"/>
<path d="M103.991 10.4658H100.109V7.21514H108.451L108.458 4.79126H96.92V19.3489H103.579C107.314 19.3489 109.457 17.6822 109.457 14.776C109.457 11.9969 107.515 10.4658 103.991 10.4658ZM103.435 16.925H100.109V12.8897H103.435C105.46 12.8897 106.403 13.5652 106.403 14.9079C106.403 16.2795 105.404 16.925 103.435 16.925Z" fill="white"/>
<path d="M71.5421 7.21514L74.8802 4.79126H63.705V19.3501H74.8802V16.9263H66.8944V13.1992H73.707V10.7754H66.8944V7.21514H71.5421Z" fill="white"/>
<path d="M55.2696 10.4658H51.3882V7.21514H57.5831L60.9224 4.79126H48.1987V19.3501H54.8578C58.5931 19.3501 60.7348 17.6822 60.7348 14.776C60.7348 11.9969 58.7941 10.4658 55.2696 10.4658ZM54.7141 16.925H51.3882V12.8897H54.7141C56.7376 12.8897 57.6806 13.5652 57.6806 14.908C57.6806 16.2795 56.6828 16.925 54.7141 16.925Z" fill="white"/>
<path d="M83.9344 4.79126H77.8503V19.3489H81.0386V15.2259H83.9344C87.8171 15.2259 90.2293 13.2148 90.2293 10.0014C90.2293 6.78796 87.8171 4.79126 83.9344 4.79126ZM83.8638 12.8021H81.0386V7.21514H83.8638C85.908 7.21514 87.0313 8.20749 87.0313 10.0086C87.0313 11.8097 85.9068 12.8021 83.8638 12.8021Z" fill="white"/>
<path d="M42.7238 16.1981C41.8787 16.649 40.9317 16.8826 39.9705 16.8773C37.0954 16.8773 35.0084 14.8554 35.0084 12.0703C35.0084 9.28526 37.0954 7.26936 39.9705 7.26936C41.0097 7.25447 42.0264 7.56821 42.8712 8.16451L45.1591 6.50379L45.0081 6.373C43.668 5.21746 41.8881 4.60669 39.8474 4.60669C37.6338 4.60669 35.6249 5.34105 34.191 6.67659C32.7571 8.01212 31.9542 9.90803 31.9542 11.9959C31.9542 14.0838 32.7461 16.0109 34.1837 17.3957C35.6212 18.7804 37.629 19.5483 39.8267 19.5483C42.1256 19.5483 44.1333 18.7588 45.4954 17.3225L43.4304 15.8237L42.7238 16.1981Z" fill="white"/>
<path d="M24.3669 11.9995C24.3671 11.2788 24.3019 10.5596 24.172 9.85039L21.549 11.7535C21.549 11.8351 21.549 11.9179 21.549 11.9935C21.5519 14.0583 20.8525 16.0646 19.5623 17.6922C18.2722 19.3197 16.4658 20.4747 14.4313 20.9728C12.3968 21.4709 10.2515 21.2834 8.33785 20.4403C6.42418 19.5972 4.85241 18.1469 3.87337 16.3211C2.89433 14.4953 2.56445 12.399 2.93638 10.3669C3.30831 8.33483 4.36061 6.48401 5.92534 5.10984C7.49008 3.73567 9.47706 2.91734 11.5692 2.78546C13.6613 2.65359 15.738 3.21576 17.4678 4.38227L19.8373 2.66155C17.6872 0.952542 15.0111 0.0141614 12.2482 0.00039773C9.48528 -0.013366 6.79968 0.898304 4.63208 2.58581C2.46448 4.27331 0.943634 6.63641 0.319104 9.28733C-0.305425 11.9382 0.0034577 14.7195 1.19507 17.1748C2.38668 19.63 4.39023 21.6134 6.87696 22.7995C9.36369 23.9855 12.1859 24.3038 14.8804 23.702C17.575 23.1003 19.9818 21.6142 21.706 19.4878C23.4302 17.3614 24.3694 14.7208 24.3693 11.9995H24.3669Z" fill="white"/>
<path d="M21.8242 4.66309C22.4034 5.39998 22.894 6.20048 23.2862 7.04857L12.184 15.1074L7.54602 12.2431V8.79808L12.184 11.6611L21.8242 4.66309Z" fill="white"/>
</g>
<defs>
<clipPath id="clip0_132_212">
<rect width="160" height="24" fill="white"/>
</clipPath>
</defs>
</svg>
