<svg width="160" height="58" viewBox="0 0 160 58" fill="none" xmlns="http://www.w3.org/2000/svg">
<path d="M11.0474 0L8.28274 7.62373H46.5813L49.346 0H11.0474ZM6.90201 11.4324L4.13735 19.0545H42.436L45.2006 11.4324H6.90201ZM2.76466 22.8647L0 30.4852H38.2986L41.0601 22.8631C41.0617 22.8647 2.76466 22.8647 2.76466 22.8647Z" fill="white"/>
<path d="M80.5144 32.8777V33.0361C82.2342 33.6711 83.8786 34.7828 84.7385 35.497C87.3971 37.7205 88.5721 40.6566 88.5721 44.4668C88.5721 50.7413 85.2866 55.2641 79.8875 56.6942C78.2432 57.1709 76.5233 57.3292 73.3166 57.3292H56.9697V11.4414H71.4424C74.416 11.4414 76.4477 11.5998 78.2464 12.0748C83.488 13.5049 86.9309 17.1568 86.9309 22.9513C86.9309 26.049 85.8363 28.6699 84.0377 30.4151C83.2549 31.2085 82.1603 32.1619 80.5176 32.8761L80.5144 32.8777ZM66.0433 37.7205V49.7879H72.3023C74.1781 49.7879 75.9012 49.6296 77.1518 48.4387C78.4039 47.2477 78.9504 45.7385 78.9504 43.7542C78.9504 42.2482 78.5582 40.8181 77.777 39.7856C76.4477 38.118 74.8034 37.7205 71.9889 37.7205H66.0417H66.0433ZM65.9629 29.7801H71.0486C72.6126 29.7801 73.3953 29.7801 74.1765 29.5425C76.2902 28.9059 77.6195 27.004 77.6195 24.383C77.6195 21.287 76.2114 19.9361 74.1765 19.3027C73.315 19.0635 72.4567 18.986 70.7352 18.986H65.9629V29.7817V29.7801ZM102.183 57.3309V19.1427H89.1202V11.443H125.419L122.838 19.1427H111.258V57.3309H102.183ZM128.235 57.3309V11.443H157.65L155.069 19.1427H137.233V29.3066H144.51C150.377 29.3066 153.427 30.7367 155.541 32.561C157.185 33.991 160 37.1646 160 43.4391C160 49.6312 157.107 53.0439 154.68 54.7923C151.864 56.775 148.892 57.3325 142.866 57.3325H128.237H128.235V57.3309ZM137.232 49.6279H144.037C146.619 49.6279 148.183 48.9929 149.277 47.5628C149.824 46.8502 150.607 45.5769 150.607 43.1967C150.607 40.8165 149.824 39.1473 148.26 37.9564C147.323 37.2438 146.069 36.8479 143.957 36.8479H137.228V49.6279H137.232Z" fill="white"/>
</svg>
